<svg width="12" height="13" viewBox="0 0 12 13" fill="none" xmlns="http://www.w3.org/2000/svg">
<path d="M6.00005 8.82481L2.10005 12.6998C1.91672 12.8831 1.68755 12.979 1.41255 12.9873C1.13755 12.9956 0.900049 12.8998 0.700049 12.6998C0.516715 12.5165 0.425049 12.2831 0.425049 11.9998C0.425049 11.7165 0.516715 11.4831 0.700049 11.2998L5.30005 6.6998C5.40005 6.5998 5.50838 6.52897 5.62505 6.4873C5.74172 6.44564 5.86672 6.4248 6.00005 6.4248C6.13338 6.4248 6.25838 6.44564 6.37505 6.4873C6.49172 6.52897 6.60005 6.5998 6.70005 6.6998L11.3 11.2998C11.4834 11.4831 11.5792 11.7123 11.5875 11.9873C11.5959 12.2623 11.5 12.4998 11.3 12.6998C11.1167 12.8831 10.8834 12.9748 10.6 12.9748C10.3167 12.9748 10.0834 12.8831 9.90005 12.6998L6.00005 8.82481ZM6.00005 2.8248L2.10005 6.6998C1.91672 6.88314 1.68755 6.97897 1.41255 6.9873C1.13755 6.99564 0.900049 6.8998 0.700049 6.6998C0.516715 6.51647 0.425049 6.28314 0.425049 5.9998C0.425049 5.71647 0.516715 5.48314 0.700049 5.2998L5.30005 0.699805C5.40005 0.599805 5.50838 0.528971 5.62505 0.487305C5.74172 0.445638 5.86672 0.424805 6.00005 0.424805C6.13338 0.424805 6.25838 0.445638 6.37505 0.487305C6.49172 0.528971 6.60005 0.599805 6.70005 0.699805L11.3 5.2998C11.4834 5.48314 11.5792 5.7123 11.5875 5.9873C11.5959 6.2623 11.5 6.4998 11.3 6.6998C11.1167 6.88314 10.8834 6.9748 10.6 6.9748C10.3167 6.9748 10.0834 6.88314 9.90005 6.6998L6.00005 2.8248Z" fill="white"/>
</svg>
