<svg width="44" height="44" viewBox="0 0 44 44" fill="none" xmlns="http://www.w3.org/2000/svg">
<path d="M0 22C0 9.84974 9.84974 0 22 0C34.1503 0 44 9.84974 44 22C44 34.1503 34.1503 44 22 44C9.84974 44 0 34.1503 0 22Z" fill="#AFC6FF" fill-opacity="0.1"/>
<path d="M22 0.5C33.8741 0.5 43.5 10.1259 43.5 22C43.5 33.8741 33.8741 43.5 22 43.5C10.1259 43.5 0.5 33.8741 0.5 22C0.5 10.1259 10.1259 0.5 22 0.5Z" stroke="white" stroke-opacity="0.05"/>
<mask id="mask0_215_49208" style="mask-type:alpha" maskUnits="userSpaceOnUse" x="14" y="14" width="16" height="16">
<rect x="14" y="30" width="16" height="16" transform="rotate(-90 14 30)" fill="#D9D9D9"/>
</mask>
<g mask="url(#mask0_215_49208)">
<path d="M22 23.6333L26.9 18.7333C27.0667 18.5666 27.2611 18.4861 27.4833 18.4916C27.7056 18.4972 27.9 18.5833 28.0667 18.75C28.2333 18.9166 28.3167 19.1111 28.3167 19.3333C28.3167 19.5555 28.2333 19.75 28.0667 19.9166L22.95 25.05C22.8167 25.1833 22.6667 25.2833 22.5 25.35C22.3333 25.4166 22.1667 25.45 22 25.45C21.8333 25.45 21.6667 25.4166 21.5 25.35C21.3333 25.2833 21.1833 25.1833 21.05 25.05L15.9167 19.9166C15.75 19.75 15.6695 19.5527 15.675 19.325C15.6806 19.0972 15.7667 18.9 15.9333 18.7333C16.1 18.5666 16.2945 18.4833 16.5167 18.4833C16.7389 18.4833 16.9333 18.5666 17.1 18.7333L22 23.6333Z" fill="white"/>
</g>
</svg>
