<svg viewBox="0 0 20 20" fill="none" xmlns="http://www.w3.org/2000/svg">
<mask id="mask0_776_20794" style="mask-type:alpha" maskUnits="userSpaceOnUse" x="0" y="0" width="20" height="20">
<rect width="20" height="20" fill="#D9D9D9"/>
</mask>
<g mask="url(#mask0_776_20794)">
<path d="M9.99996 18.3332C8.84718 18.3332 7.76385 18.1144 6.74996 17.6769C5.73607 17.2394 4.85413 16.6457 4.10413 15.8957C3.35413 15.1457 2.76038 14.2637 2.32288 13.2498C1.88538 12.2359 1.66663 11.1526 1.66663 9.99984C1.66663 8.84706 1.88538 7.76373 2.32288 6.74984C2.76038 5.73595 3.35413 4.854 4.10413 4.104C4.85413 3.354 5.73607 2.76025 6.74996 2.32275C7.76385 1.88525 8.84718 1.6665 9.99996 1.6665C11.1527 1.6665 12.2361 1.88525 13.25 2.32275C14.2638 2.76025 15.1458 3.354 15.8958 4.104C16.6458 4.854 17.2395 5.73595 17.677 6.74984C18.1145 7.76373 18.3333 8.84706 18.3333 9.99984C18.3333 11.1526 18.1145 12.2359 17.677 13.2498C17.2395 14.2637 16.6458 15.1457 15.8958 15.8957C15.1458 16.6457 14.2638 17.2394 13.25 17.6769C12.2361 18.1144 11.1527 18.3332 9.99996 18.3332ZM10.1666 10.8332L9.41663 11.5832C9.26385 11.7359 9.18746 11.9304 9.18746 12.1665C9.18746 12.4026 9.26385 12.5971 9.41663 12.7498C9.5694 12.9026 9.76385 12.979 9.99996 12.979C10.2361 12.979 10.4305 12.9026 10.5833 12.7498L12.75 10.5832C12.9166 10.4165 13 10.2221 13 9.99984C13 9.77761 12.9166 9.58317 12.75 9.4165L10.5833 7.24984C10.4305 7.09706 10.2361 7.02067 9.99996 7.02067C9.76385 7.02067 9.5694 7.09706 9.41663 7.24984C9.26385 7.40262 9.18746 7.59706 9.18746 7.83317C9.18746 8.06928 9.26385 8.26373 9.41663 8.4165L10.1666 9.1665H7.49996C7.26385 9.1665 7.06593 9.24637 6.90621 9.40609C6.74649 9.56581 6.66663 9.76373 6.66663 9.99984C6.66663 10.2359 6.74649 10.4339 6.90621 10.5936C7.06593 10.7533 7.26385 10.8332 7.49996 10.8332H10.1666Z" fill="#426EFF"/>
</g>
</svg>
