<svg width="24" height="24" viewBox="0 0 24 24" fill="none" xmlns="http://www.w3.org/2000/svg">
<g clip-path="url(#clip0_99_310)">
<path d="M11.0594 17.4094C11.1459 17.4095 11.2316 17.4267 11.3115 17.4599C11.3914 17.4931 11.464 17.5418 11.5251 17.6031C11.5862 17.6643 11.6347 17.7371 11.6677 17.8171C11.7007 17.8971 11.7176 17.9828 11.7175 18.0694C11.7174 18.1559 11.7002 18.2416 11.667 18.3215C11.6337 18.4014 11.5851 18.474 11.5238 18.5351C11.4625 18.5962 11.3898 18.6447 11.3098 18.6777C11.2298 18.7107 11.144 18.7276 11.0575 18.7275C10.8827 18.7272 10.7152 18.6576 10.5917 18.5338C10.4683 18.41 10.3991 18.2423 10.3994 18.0675C10.3996 17.8927 10.4693 17.7252 10.5931 17.6017C10.7168 17.4783 10.8846 17.4091 11.0594 17.4094ZM21.3944 13.334C21.3078 13.334 21.2221 13.3169 21.1422 13.2837C21.0623 13.2505 20.9896 13.2019 20.9285 13.1407C20.8673 13.0794 20.8188 13.0067 20.7858 12.9268C20.7527 12.8468 20.7357 12.7611 20.7358 12.6745C20.7358 12.588 20.753 12.5023 20.7861 12.4223C20.8193 12.3424 20.8679 12.2698 20.9291 12.2086C20.9904 12.1475 21.0631 12.099 21.1431 12.0659C21.223 12.0328 21.3088 12.0159 21.3953 12.0159C21.5701 12.016 21.7377 12.0856 21.8612 12.2093C21.9847 12.333 22.054 12.5007 22.0539 12.6755C22.0538 12.8502 21.9842 13.0178 21.8605 13.1413C21.7369 13.2649 21.5692 13.3342 21.3944 13.334ZM21.3944 10.6378C20.854 10.6383 20.3359 10.8532 19.9538 11.2353C19.5716 11.6174 19.3567 12.1355 19.3562 12.6759C19.3562 12.8944 19.3928 13.1119 19.4641 13.3237L12.7319 16.9078C12.5452 16.6368 12.2954 16.4152 12.0041 16.2621C11.7127 16.1091 11.3885 16.0292 11.0594 16.0294C10.2822 16.0294 9.57438 16.4747 9.23125 17.1694L3.18344 13.98C2.54406 13.6444 2.06594 12.5925 2.11656 11.6344C2.14281 11.1347 2.31531 10.7465 2.57875 10.5965C2.74563 10.5028 2.94625 10.5103 3.16 10.6219L3.19938 10.6434C4.8025 11.4872 10.0469 14.25 10.2681 14.3522C10.6084 14.5106 10.7978 14.5744 11.3791 14.2987L22.2203 8.66061C22.3797 8.60061 22.5653 8.4478 22.5653 8.21623C22.5653 7.89561 22.2334 7.76905 22.2325 7.76905C21.6156 7.47373 20.6678 7.0303 19.7434 6.59717C17.7672 5.67186 15.5275 4.62373 14.5441 4.10811C13.6947 3.66373 13.0112 4.03873 12.8894 4.11373L12.6531 4.23092C8.22625 6.41998 2.30125 9.35436 1.96375 9.55967C1.36094 9.92717 0.986876 10.6594 0.938126 11.5678C0.863126 13.0087 1.59719 14.5115 2.64813 15.0619L9.04375 18.36C9.1142 18.8445 9.35661 19.2874 9.72669 19.6079C10.0968 19.9284 10.5698 20.1051 11.0594 20.1056C11.5941 20.1047 12.107 19.894 12.488 19.5188C12.869 19.1437 13.0875 18.634 13.0966 18.0994L20.1409 14.2809C20.4972 14.5603 20.9406 14.7131 21.3944 14.7131C21.9348 14.7126 22.4529 14.4977 22.835 14.1156C23.2171 13.7335 23.432 13.2154 23.4325 12.675C23.432 12.1346 23.2171 11.6165 22.835 11.2344C22.4529 10.8522 21.9348 10.6374 21.3944 10.6369" fill="white"/>
</g>
<defs>
<clipPath id="clip0_99_310">
<rect width="22.5" height="22.5" fill="white" transform="translate(0.932495 0.75)"/>
</clipPath>
</defs>
</svg>
