<svg width="1240" height="41" viewBox="0 0 1240 41" fill="none" xmlns="http://www.w3.org/2000/svg">
<circle cx="1.5" cy="1.5" r="1.5" fill="white" fill-opacity="0.25"/>
<circle cx="20.5" cy="1.5" r="1.5" fill="white" fill-opacity="0.25"/>
<circle cx="39.5" cy="1.5" r="1.5" fill="white" fill-opacity="0.25"/>
<circle cx="58.5" cy="1.5" r="1.5" fill="white" fill-opacity="0.25"/>
<circle cx="77.5" cy="1.5" r="1.5" fill="white" fill-opacity="0.25"/>
<circle cx="96.5" cy="1.5" r="1.5" fill="white" fill-opacity="0.25"/>
<circle cx="115.5" cy="1.5" r="1.5" fill="white" fill-opacity="0.25"/>
<circle cx="134.5" cy="1.5" r="1.5" fill="white" fill-opacity="0.25"/>
<circle cx="153.5" cy="1.5" r="1.5" fill="white" fill-opacity="0.25"/>
<circle cx="172.5" cy="1.5" r="1.5" fill="white" fill-opacity="0.25"/>
<circle cx="191.5" cy="1.5" r="1.5" fill="white" fill-opacity="0.25"/>
<circle cx="210.5" cy="1.5" r="1.5" fill="white" fill-opacity="0.25"/>
<circle cx="229.5" cy="1.5" r="1.5" fill="white" fill-opacity="0.25"/>
<circle cx="248.5" cy="1.5" r="1.5" fill="white" fill-opacity="0.25"/>
<circle cx="267.5" cy="1.5" r="1.5" fill="white" fill-opacity="0.25"/>
<circle cx="286.5" cy="1.5" r="1.5" fill="white" fill-opacity="0.25"/>
<circle cx="305.5" cy="1.5" r="1.5" fill="white" fill-opacity="0.25"/>
<circle cx="324.5" cy="1.5" r="1.5" fill="white" fill-opacity="0.25"/>
<circle cx="343.5" cy="1.5" r="1.5" fill="white" fill-opacity="0.25"/>
<circle cx="362.5" cy="1.5" r="1.5" fill="white" fill-opacity="0.25"/>
<circle cx="381.5" cy="1.5" r="1.5" fill="white" fill-opacity="0.25"/>
<circle cx="400.5" cy="1.5" r="1.5" fill="white" fill-opacity="0.25"/>
<circle cx="419.5" cy="1.5" r="1.5" fill="white" fill-opacity="0.25"/>
<circle cx="438.5" cy="1.5" r="1.5" fill="white" fill-opacity="0.25"/>
<circle cx="457.5" cy="1.5" r="1.5" fill="white" fill-opacity="0.25"/>
<circle cx="476.5" cy="1.5" r="1.5" fill="white" fill-opacity="0.25"/>
<circle cx="495.5" cy="1.5" r="1.5" fill="white" fill-opacity="0.25"/>
<circle cx="514.5" cy="1.5" r="1.5" fill="white" fill-opacity="0.25"/>
<circle cx="533.5" cy="1.5" r="1.5" fill="white" fill-opacity="0.25"/>
<circle cx="552.5" cy="1.5" r="1.5" fill="white" fill-opacity="0.25"/>
<circle cx="571.5" cy="1.5" r="1.5" fill="white" fill-opacity="0.25"/>
<circle cx="590.5" cy="1.5" r="1.5" fill="white" fill-opacity="0.25"/>
<circle cx="609.5" cy="1.5" r="1.5" fill="white" fill-opacity="0.25"/>
<circle cx="628.5" cy="1.5" r="1.5" fill="white" fill-opacity="0.25"/>
<circle cx="647.5" cy="1.5" r="1.5" fill="white" fill-opacity="0.25"/>
<circle cx="666.5" cy="1.5" r="1.5" fill="white" fill-opacity="0.25"/>
<circle cx="685.5" cy="1.5" r="1.5" fill="white" fill-opacity="0.25"/>
<circle cx="704.5" cy="1.5" r="1.5" fill="white" fill-opacity="0.25"/>
<circle cx="723.5" cy="1.5" r="1.5" fill="white" fill-opacity="0.25"/>
<circle cx="742.5" cy="1.5" r="1.5" fill="white" fill-opacity="0.25"/>
<circle cx="761.5" cy="1.5" r="1.5" fill="white" fill-opacity="0.25"/>
<circle cx="780.5" cy="1.5" r="1.5" fill="white" fill-opacity="0.25"/>
<circle cx="799.5" cy="1.5" r="1.5" fill="white" fill-opacity="0.25"/>
<circle cx="818.5" cy="1.5" r="1.5" fill="white" fill-opacity="0.25"/>
<circle cx="837.5" cy="1.5" r="1.5" fill="white" fill-opacity="0.25"/>
<circle cx="856.5" cy="1.5" r="1.5" fill="white" fill-opacity="0.25"/>
<circle cx="875.5" cy="1.5" r="1.5" fill="white" fill-opacity="0.25"/>
<circle cx="894.5" cy="1.5" r="1.5" fill="white" fill-opacity="0.25"/>
<circle cx="913.5" cy="1.5" r="1.5" fill="white" fill-opacity="0.25"/>
<circle cx="932.5" cy="1.5" r="1.5" fill="white" fill-opacity="0.25"/>
<circle cx="951.5" cy="1.5" r="1.5" fill="white" fill-opacity="0.25"/>
<circle cx="970.5" cy="1.5" r="1.5" fill="white" fill-opacity="0.25"/>
<circle cx="989.5" cy="1.5" r="1.5" fill="white" fill-opacity="0.25"/>
<circle cx="1008.5" cy="1.5" r="1.5" fill="white" fill-opacity="0.25"/>
<circle cx="1027.5" cy="1.5" r="1.5" fill="white" fill-opacity="0.25"/>
<circle cx="1046.5" cy="1.5" r="1.5" fill="white" fill-opacity="0.25"/>
<circle cx="1065.5" cy="1.5" r="1.5" fill="white" fill-opacity="0.25"/>
<circle cx="1084.5" cy="1.5" r="1.5" fill="white" fill-opacity="0.25"/>
<circle cx="1103.5" cy="1.5" r="1.5" fill="white" fill-opacity="0.25"/>
<circle cx="1122.5" cy="1.5" r="1.5" fill="white" fill-opacity="0.25"/>
<circle cx="1141.5" cy="1.5" r="1.5" fill="white" fill-opacity="0.25"/>
<circle cx="1160.5" cy="1.5" r="1.5" fill="white" fill-opacity="0.25"/>
<circle cx="1179.5" cy="1.5" r="1.5" fill="white" fill-opacity="0.25"/>
<circle cx="1198.5" cy="1.5" r="1.5" fill="white" fill-opacity="0.25"/>
<circle cx="1217.5" cy="1.5" r="1.5" fill="white" fill-opacity="0.25"/>
<circle cx="1236.5" cy="1.5" r="1.5" fill="white" fill-opacity="0.25"/>
<circle cx="1.5" cy="20.5" r="1.5" fill="white" fill-opacity="0.25"/>
<circle cx="20.5" cy="20.5" r="1.5" fill="white" fill-opacity="0.25"/>
<circle cx="39.5" cy="20.5" r="1.5" fill="white" fill-opacity="0.25"/>
<circle cx="58.5" cy="20.5" r="1.5" fill="white" fill-opacity="0.25"/>
<circle cx="77.5" cy="20.5" r="1.5" fill="white" fill-opacity="0.25"/>
<circle cx="96.5" cy="20.5" r="1.5" fill="white" fill-opacity="0.25"/>
<circle cx="115.5" cy="20.5" r="1.5" fill="white" fill-opacity="0.25"/>
<circle cx="134.5" cy="20.5" r="1.5" fill="white" fill-opacity="0.25"/>
<circle cx="153.5" cy="20.5" r="1.5" fill="white" fill-opacity="0.25"/>
<circle cx="172.5" cy="20.5" r="1.5" fill="white" fill-opacity="0.25"/>
<circle cx="191.5" cy="20.5" r="1.5" fill="white" fill-opacity="0.25"/>
<circle cx="210.5" cy="20.5" r="1.5" fill="white" fill-opacity="0.25"/>
<circle cx="229.5" cy="20.5" r="1.5" fill="white" fill-opacity="0.25"/>
<circle cx="248.5" cy="20.5" r="1.5" fill="white" fill-opacity="0.25"/>
<circle cx="267.5" cy="20.5" r="1.5" fill="white" fill-opacity="0.25"/>
<circle cx="286.5" cy="20.5" r="1.5" fill="white" fill-opacity="0.25"/>
<circle cx="305.5" cy="20.5" r="1.5" fill="white" fill-opacity="0.25"/>
<circle cx="324.5" cy="20.5" r="1.5" fill="white" fill-opacity="0.25"/>
<circle cx="343.5" cy="20.5" r="1.5" fill="white" fill-opacity="0.25"/>
<circle cx="362.5" cy="20.5" r="1.5" fill="white" fill-opacity="0.25"/>
<circle cx="381.5" cy="20.5" r="1.5" fill="white" fill-opacity="0.25"/>
<circle cx="400.5" cy="20.5" r="1.5" fill="white" fill-opacity="0.25"/>
<circle cx="419.5" cy="20.5" r="1.5" fill="white" fill-opacity="0.25"/>
<circle cx="438.5" cy="20.5" r="1.5" fill="white" fill-opacity="0.25"/>
<circle cx="457.5" cy="20.5" r="1.5" fill="white" fill-opacity="0.25"/>
<circle cx="476.5" cy="20.5" r="1.5" fill="white" fill-opacity="0.25"/>
<circle cx="495.5" cy="20.5" r="1.5" fill="white" fill-opacity="0.25"/>
<circle cx="514.5" cy="20.5" r="1.5" fill="white" fill-opacity="0.25"/>
<circle cx="533.5" cy="20.5" r="1.5" fill="white" fill-opacity="0.25"/>
<circle cx="552.5" cy="20.5" r="1.5" fill="white" fill-opacity="0.25"/>
<circle cx="571.5" cy="20.5" r="1.5" fill="white" fill-opacity="0.25"/>
<circle cx="590.5" cy="20.5" r="1.5" fill="white" fill-opacity="0.25"/>
<circle cx="609.5" cy="20.5" r="1.5" fill="white" fill-opacity="0.25"/>
<circle cx="628.5" cy="20.5" r="1.5" fill="white" fill-opacity="0.25"/>
<circle cx="647.5" cy="20.5" r="1.5" fill="white" fill-opacity="0.25"/>
<circle cx="666.5" cy="20.5" r="1.5" fill="white" fill-opacity="0.25"/>
<circle cx="685.5" cy="20.5" r="1.5" fill="white" fill-opacity="0.25"/>
<circle cx="704.5" cy="20.5" r="1.5" fill="white" fill-opacity="0.25"/>
<circle cx="723.5" cy="20.5" r="1.5" fill="white" fill-opacity="0.25"/>
<circle cx="742.5" cy="20.5" r="1.5" fill="white" fill-opacity="0.25"/>
<circle cx="761.5" cy="20.5" r="1.5" fill="white" fill-opacity="0.25"/>
<circle cx="780.5" cy="20.5" r="1.5" fill="white" fill-opacity="0.25"/>
<circle cx="799.5" cy="20.5" r="1.5" fill="white" fill-opacity="0.25"/>
<circle cx="818.5" cy="20.5" r="1.5" fill="white" fill-opacity="0.25"/>
<circle cx="837.5" cy="20.5" r="1.5" fill="white" fill-opacity="0.25"/>
<circle cx="856.5" cy="20.5" r="1.5" fill="white" fill-opacity="0.25"/>
<circle cx="875.5" cy="20.5" r="1.5" fill="white" fill-opacity="0.25"/>
<circle cx="894.5" cy="20.5" r="1.5" fill="white" fill-opacity="0.25"/>
<circle cx="913.5" cy="20.5" r="1.5" fill="white" fill-opacity="0.25"/>
<circle cx="932.5" cy="20.5" r="1.5" fill="white" fill-opacity="0.25"/>
<circle cx="951.5" cy="20.5" r="1.5" fill="white" fill-opacity="0.25"/>
<circle cx="970.5" cy="20.5" r="1.5" fill="white" fill-opacity="0.25"/>
<circle cx="989.5" cy="20.5" r="1.5" fill="white" fill-opacity="0.25"/>
<circle cx="1008.5" cy="20.5" r="1.5" fill="white" fill-opacity="0.25"/>
<circle cx="1027.5" cy="20.5" r="1.5" fill="white" fill-opacity="0.25"/>
<circle cx="1046.5" cy="20.5" r="1.5" fill="white" fill-opacity="0.25"/>
<circle cx="1065.5" cy="20.5" r="1.5" fill="white" fill-opacity="0.25"/>
<circle cx="1084.5" cy="20.5" r="1.5" fill="white" fill-opacity="0.25"/>
<circle cx="1103.5" cy="20.5" r="1.5" fill="white" fill-opacity="0.25"/>
<circle cx="1122.5" cy="20.5" r="1.5" fill="white" fill-opacity="0.25"/>
<circle cx="1141.5" cy="20.5" r="1.5" fill="white" fill-opacity="0.25"/>
<circle cx="1160.5" cy="20.5" r="1.5" fill="white" fill-opacity="0.25"/>
<circle cx="1179.5" cy="20.5" r="1.5" fill="white" fill-opacity="0.25"/>
<circle cx="1198.5" cy="20.5" r="1.5" fill="white" fill-opacity="0.25"/>
<circle cx="1217.5" cy="20.5" r="1.5" fill="white" fill-opacity="0.25"/>
<circle cx="1236.5" cy="20.5" r="1.5" fill="white" fill-opacity="0.25"/>
<circle cx="1.5" cy="39.5" r="1.5" fill="white" fill-opacity="0.25"/>
<circle cx="20.5" cy="39.5" r="1.5" fill="white" fill-opacity="0.25"/>
<circle cx="39.5" cy="39.5" r="1.5" fill="white" fill-opacity="0.25"/>
<circle cx="58.5" cy="39.5" r="1.5" fill="white" fill-opacity="0.25"/>
<circle cx="77.5" cy="39.5" r="1.5" fill="white" fill-opacity="0.25"/>
<circle cx="96.5" cy="39.5" r="1.5" fill="white" fill-opacity="0.25"/>
<circle cx="115.5" cy="39.5" r="1.5" fill="white" fill-opacity="0.25"/>
<circle cx="134.5" cy="39.5" r="1.5" fill="white" fill-opacity="0.25"/>
<circle cx="153.5" cy="39.5" r="1.5" fill="white" fill-opacity="0.25"/>
<circle cx="172.5" cy="39.5" r="1.5" fill="white" fill-opacity="0.25"/>
<circle cx="191.5" cy="39.5" r="1.5" fill="white" fill-opacity="0.25"/>
<circle cx="210.5" cy="39.5" r="1.5" fill="white" fill-opacity="0.25"/>
<circle cx="229.5" cy="39.5" r="1.5" fill="white" fill-opacity="0.25"/>
<circle cx="248.5" cy="39.5" r="1.5" fill="white" fill-opacity="0.25"/>
<circle cx="267.5" cy="39.5" r="1.5" fill="white" fill-opacity="0.25"/>
<circle cx="286.5" cy="39.5" r="1.5" fill="white" fill-opacity="0.25"/>
<circle cx="305.5" cy="39.5" r="1.5" fill="white" fill-opacity="0.25"/>
<circle cx="324.5" cy="39.5" r="1.5" fill="white" fill-opacity="0.25"/>
<circle cx="343.5" cy="39.5" r="1.5" fill="white" fill-opacity="0.25"/>
<circle cx="362.5" cy="39.5" r="1.5" fill="white" fill-opacity="0.25"/>
<circle cx="381.5" cy="39.5" r="1.5" fill="white" fill-opacity="0.25"/>
<circle cx="400.5" cy="39.5" r="1.5" fill="white" fill-opacity="0.25"/>
<circle cx="419.5" cy="39.5" r="1.5" fill="white" fill-opacity="0.25"/>
<circle cx="438.5" cy="39.5" r="1.5" fill="white" fill-opacity="0.25"/>
<circle cx="457.5" cy="39.5" r="1.5" fill="white" fill-opacity="0.25"/>
<circle cx="476.5" cy="39.5" r="1.5" fill="white" fill-opacity="0.25"/>
<circle cx="495.5" cy="39.5" r="1.5" fill="white" fill-opacity="0.25"/>
<circle cx="514.5" cy="39.5" r="1.5" fill="white" fill-opacity="0.25"/>
<circle cx="533.5" cy="39.5" r="1.5" fill="white" fill-opacity="0.25"/>
<circle cx="552.5" cy="39.5" r="1.5" fill="white" fill-opacity="0.25"/>
<circle cx="571.5" cy="39.5" r="1.5" fill="white" fill-opacity="0.25"/>
<circle cx="590.5" cy="39.5" r="1.5" fill="white" fill-opacity="0.25"/>
<circle cx="609.5" cy="39.5" r="1.5" fill="white" fill-opacity="0.25"/>
<circle cx="628.5" cy="39.5" r="1.5" fill="white" fill-opacity="0.25"/>
<circle cx="647.5" cy="39.5" r="1.5" fill="white" fill-opacity="0.25"/>
<circle cx="666.5" cy="39.5" r="1.5" fill="white" fill-opacity="0.25"/>
<circle cx="685.5" cy="39.5" r="1.5" fill="white" fill-opacity="0.25"/>
<circle cx="704.5" cy="39.5" r="1.5" fill="white" fill-opacity="0.25"/>
<circle cx="723.5" cy="39.5" r="1.5" fill="white" fill-opacity="0.25"/>
<circle cx="742.5" cy="39.5" r="1.5" fill="white" fill-opacity="0.25"/>
<circle cx="761.5" cy="39.5" r="1.5" fill="white" fill-opacity="0.25"/>
<circle cx="780.5" cy="39.5" r="1.5" fill="white" fill-opacity="0.25"/>
<circle cx="799.5" cy="39.5" r="1.5" fill="white" fill-opacity="0.25"/>
<circle cx="818.5" cy="39.5" r="1.5" fill="white" fill-opacity="0.25"/>
<circle cx="837.5" cy="39.5" r="1.5" fill="white" fill-opacity="0.25"/>
<circle cx="856.5" cy="39.5" r="1.5" fill="white" fill-opacity="0.25"/>
<circle cx="875.5" cy="39.5" r="1.5" fill="white" fill-opacity="0.25"/>
<circle cx="894.5" cy="39.5" r="1.5" fill="white" fill-opacity="0.25"/>
<circle cx="913.5" cy="39.5" r="1.5" fill="white" fill-opacity="0.25"/>
<circle cx="932.5" cy="39.5" r="1.5" fill="white" fill-opacity="0.25"/>
<circle cx="951.5" cy="39.5" r="1.5" fill="white" fill-opacity="0.25"/>
<circle cx="970.5" cy="39.5" r="1.5" fill="white" fill-opacity="0.25"/>
<circle cx="989.5" cy="39.5" r="1.5" fill="white" fill-opacity="0.25"/>
<circle cx="1008.5" cy="39.5" r="1.5" fill="white" fill-opacity="0.25"/>
<circle cx="1027.5" cy="39.5" r="1.5" fill="white" fill-opacity="0.25"/>
<circle cx="1046.5" cy="39.5" r="1.5" fill="white" fill-opacity="0.25"/>
<circle cx="1065.5" cy="39.5" r="1.5" fill="white" fill-opacity="0.25"/>
<circle cx="1084.5" cy="39.5" r="1.5" fill="white" fill-opacity="0.25"/>
<circle cx="1103.5" cy="39.5" r="1.5" fill="white" fill-opacity="0.25"/>
<circle cx="1122.5" cy="39.5" r="1.5" fill="white" fill-opacity="0.25"/>
<circle cx="1141.5" cy="39.5" r="1.5" fill="white" fill-opacity="0.25"/>
<circle cx="1160.5" cy="39.5" r="1.5" fill="white" fill-opacity="0.25"/>
<circle cx="1179.5" cy="39.5" r="1.5" fill="white" fill-opacity="0.25"/>
<circle cx="1198.5" cy="39.5" r="1.5" fill="white" fill-opacity="0.25"/>
<circle cx="1217.5" cy="39.5" r="1.5" fill="white" fill-opacity="0.25"/>
<circle cx="1236.5" cy="39.5" r="1.5" fill="white" fill-opacity="0.25"/>
</svg>
