<svg width="38" height="38" viewBox="0 0 38 38" fill="none" xmlns="http://www.w3.org/2000/svg">
<mask id="mask0_214_37277" style="mask-type:alpha" maskUnits="userSpaceOnUse" x="0" y="0" width="38" height="38">
<rect width="38" height="38" fill="#D9D9D9"/>
</mask>
<g mask="url(#mask0_214_37277)">
<path d="M16.7832 21.8501L13.379 18.4459C13.0887 18.1556 12.7193 18.0105 12.2707 18.0105C11.8221 18.0105 11.4526 18.1556 11.1623 18.4459C10.8721 18.7362 10.7269 19.1056 10.7269 19.5542C10.7269 20.0029 10.8721 20.3723 11.1623 20.6626L15.6748 25.1751C15.9915 25.4917 16.3609 25.6501 16.7832 25.6501C17.2054 25.6501 17.5748 25.4917 17.8915 25.1751L26.8373 16.2292C27.1276 15.939 27.2728 15.5695 27.2728 15.1209C27.2728 14.6723 27.1276 14.3029 26.8373 14.0126C26.5471 13.7223 26.1776 13.5772 25.729 13.5772C25.2804 13.5772 24.9109 13.7223 24.6207 14.0126L16.7832 21.8501ZM18.9998 34.8334C16.8096 34.8334 14.7512 34.4178 12.8248 33.5865C10.8984 32.7553 9.22275 31.6272 7.79775 30.2022C6.37275 28.7772 5.24463 27.1015 4.41338 25.1751C3.58213 23.2487 3.1665 21.1904 3.1665 19.0001C3.1665 16.8098 3.58213 14.7515 4.41338 12.8251C5.24463 10.8987 6.37275 9.223 7.79775 7.798C9.22275 6.373 10.8984 5.24487 12.8248 4.41362C14.7512 3.58237 16.8096 3.16675 18.9998 3.16675C21.1901 3.16675 23.2484 3.58237 25.1748 4.41362C27.1012 5.24487 28.7769 6.373 30.2019 7.798C31.6269 9.223 32.755 10.8987 33.5863 12.8251C34.4175 14.7515 34.8332 16.8098 34.8332 19.0001C34.8332 21.1904 34.4175 23.2487 33.5863 25.1751C32.755 27.1015 31.6269 28.7772 30.2019 30.2022C28.7769 31.6272 27.1012 32.7553 25.1748 33.5865C23.2484 34.4178 21.1901 34.8334 18.9998 34.8334ZM18.9998 31.6667C22.5359 31.6667 25.5311 30.4397 27.9853 27.9855C30.4394 25.5313 31.6665 22.5362 31.6665 19.0001C31.6665 15.464 30.4394 12.4688 27.9853 10.0147C25.5311 7.5605 22.5359 6.33341 18.9998 6.33341C15.4637 6.33341 12.4686 7.5605 10.0144 10.0147C7.56025 12.4688 6.33317 15.464 6.33317 19.0001C6.33317 22.5362 7.56025 25.5313 10.0144 27.9855C12.4686 30.4397 15.4637 31.6667 18.9998 31.6667Z" fill="#37A343"/>
</g>
</svg>
