<svg width="22" height="16" viewBox="0 0 22 16" fill="none" xmlns="http://www.w3.org/2000/svg">
<path d="M3.72499 15.75C2.78265 15.75 1.9814 15.4173 1.32124 14.752C0.660904 14.0865 0.320488 13.2762 0.299988 12.321C0.299988 12.18 0.306738 12.0409 0.320238 11.9038C0.333738 11.7666 0.357154 11.6263 0.390488 11.4827L2.49049 3.08275C2.70932 2.23992 3.15482 1.55708 3.82699 1.03425C4.49916 0.511417 5.26515 0.25 6.12499 0.25H15.875C16.7348 0.25 17.5008 0.511417 18.173 1.03425C18.8452 1.55708 19.2907 2.23992 19.5095 3.08275L21.6095 11.4827C21.6428 11.6263 21.6704 11.7708 21.6922 11.9163C21.7141 12.0618 21.725 12.205 21.725 12.346C21.725 13.3012 21.3882 14.1073 20.7145 14.7645C20.0407 15.4215 19.2277 15.75 18.2757 15.75C17.6201 15.75 17.0147 15.5779 16.4597 15.2337C15.9046 14.8894 15.4834 14.423 15.1962 13.8345L14.4865 12.375C14.384 12.1667 14.2302 12.0104 14.025 11.9062C13.8198 11.8021 13.6032 11.75 13.375 11.75H8.62499C8.39849 11.75 8.18224 11.8013 7.97624 11.9038C7.77024 12.0064 7.61599 12.1635 7.51349 12.375L6.80374 13.8345C6.52307 14.4295 6.10299 14.8975 5.54349 15.2385C4.98399 15.5795 4.37782 15.75 3.72499 15.75ZM12.5 6.8845C12.7448 6.8845 12.9535 6.79833 13.126 6.626C13.2983 6.4535 13.3845 6.24483 13.3845 6C13.3845 5.75517 13.2983 5.5465 13.126 5.374C12.9535 5.20167 12.7448 5.1155 12.5 5.1155C12.2552 5.1155 12.0465 5.20167 11.874 5.374C11.7017 5.5465 11.6155 5.75517 11.6155 6C11.6155 6.24483 11.7017 6.4535 11.874 6.626C12.0465 6.79833 12.2552 6.8845 12.5 6.8845ZM14.5 4.8845C14.7448 4.8845 14.9535 4.79833 15.126 4.626C15.2983 4.4535 15.3845 4.24483 15.3845 4C15.3845 3.75517 15.2983 3.5465 15.126 3.374C14.9535 3.20167 14.7448 3.1155 14.5 3.1155C14.2552 3.1155 14.0465 3.20167 13.874 3.374C13.7017 3.5465 13.6155 3.75517 13.6155 4C13.6155 4.24483 13.7017 4.4535 13.874 4.626C14.0465 4.79833 14.2552 4.8845 14.5 4.8845ZM14.5 8.8845C14.7448 8.8845 14.9535 8.79833 15.126 8.626C15.2983 8.4535 15.3845 8.24483 15.3845 8C15.3845 7.75517 15.2983 7.5465 15.126 7.374C14.9535 7.20167 14.7448 7.1155 14.5 7.1155C14.2552 7.1155 14.0465 7.20167 13.874 7.374C13.7017 7.5465 13.6155 7.75517 13.6155 8C13.6155 8.24483 13.7017 8.4535 13.874 8.626C14.0465 8.79833 14.2552 8.8845 14.5 8.8845ZM16.5 6.8845C16.7448 6.8845 16.9535 6.79833 17.126 6.626C17.2983 6.4535 17.3845 6.24483 17.3845 6C17.3845 5.75517 17.2983 5.5465 17.126 5.374C16.9535 5.20167 16.7448 5.1155 16.5 5.1155C16.2552 5.1155 16.0465 5.20167 15.874 5.374C15.7017 5.5465 15.6155 5.75517 15.6155 6C15.6155 6.24483 15.7017 6.4535 15.874 6.626C16.0465 6.79833 16.2552 6.8845 16.5 6.8845ZM7.49949 8.34625C7.67166 8.34625 7.81415 8.28992 7.92699 8.17725C8.03982 8.06458 8.09624 7.92217 8.09624 7.75V6.59625H9.24999C9.42216 6.59625 9.56457 6.53992 9.67724 6.42725C9.78991 6.31475 9.84624 6.1725 9.84624 6.0005C9.84624 5.82833 9.78991 5.68583 9.67724 5.573C9.56457 5.46017 9.42216 5.40375 9.24999 5.40375H8.09624V4.25C8.09624 4.07783 8.03991 3.93542 7.92724 3.82275C7.81474 3.71008 7.67249 3.65375 7.50049 3.65375C7.32832 3.65375 7.18582 3.71008 7.07299 3.82275C6.96016 3.93542 6.90374 4.07783 6.90374 4.25V5.40375H5.74999C5.57782 5.40375 5.4354 5.46008 5.32274 5.57275C5.21007 5.68525 5.15374 5.8275 5.15374 5.9995C5.15374 6.17167 5.21007 6.31417 5.32274 6.427C5.4354 6.53983 5.57782 6.59625 5.74999 6.59625H6.90374V7.75C6.90374 7.92217 6.96007 8.06458 7.07274 8.17725C7.18524 8.28992 7.32749 8.34625 7.49949 8.34625Z" fill="white"/>
</svg>
