<svg width="24" height="24" viewBox="0 0 24 24" fill="none" xmlns="http://www.w3.org/2000/svg">
<mask id="mask0_59_5340" style="mask-type:alpha" maskUnits="userSpaceOnUse" x="0" y="0" width="24" height="24">
<rect width="24" height="24" fill="#D9D9D9"/>
</mask>
<g mask="url(#mask0_59_5340)">
<path d="M12.15 16.3422C12.7192 16.3422 13.2301 16.2003 13.6828 15.9163C14.1353 15.6324 14.3615 15.177 14.3615 14.55C14.3615 14.0282 14.167 13.6125 13.778 13.303C13.3889 12.9933 12.6629 12.6436 11.6 12.2537C10.5719 11.8846 9.83019 11.4712 9.37503 11.0135C8.91986 10.5558 8.69228 9.95133 8.69228 9.2C8.69228 8.55517 8.92503 7.96475 9.39053 7.42875C9.85586 6.89292 10.5064 6.55125 11.3423 6.40375V5.875C11.3423 5.693 11.4106 5.53375 11.5473 5.39725C11.6838 5.26058 11.843 5.19225 12.025 5.19225C12.207 5.19225 12.3663 5.26058 12.5028 5.39725C12.6394 5.53375 12.7078 5.693 12.7078 5.875V6.40375C13.1783 6.43708 13.6161 6.59 14.0213 6.8625C14.4263 7.135 14.757 7.47317 15.0135 7.877C15.1045 8.01533 15.1129 8.16308 15.0385 8.32025C14.9642 8.47725 14.8392 8.58783 14.6635 8.652C14.4982 8.716 14.3312 8.72433 14.1625 8.677C13.994 8.6295 13.8559 8.53333 13.748 8.3885C13.5559 8.15633 13.3203 7.96817 13.0413 7.824C12.7624 7.67983 12.432 7.60775 12.05 7.60775C11.4282 7.60775 10.9407 7.75517 10.5875 8.05C10.2344 8.34483 10.0578 8.72817 10.0578 9.2C10.0578 9.67183 10.2302 10.0392 10.575 10.302C10.9199 10.5648 11.6179 10.8758 12.6693 11.2348C13.8693 11.6681 14.6757 12.1539 15.0885 12.6923C15.5014 13.2308 15.7078 13.85 15.7078 14.55C15.7078 15.027 15.6196 15.4456 15.4433 15.8057C15.2669 16.1661 15.0365 16.469 14.752 16.7145C14.4674 16.96 14.1433 17.1539 13.7798 17.2962C13.4163 17.4384 13.0423 17.5384 12.6578 17.5963V18.125C12.6578 18.307 12.5894 18.4663 12.4528 18.6028C12.3163 18.7394 12.157 18.8078 11.975 18.8078C11.793 18.8078 11.6338 18.7394 11.4973 18.6028C11.3606 18.4663 11.2923 18.307 11.2923 18.125V17.5462C10.6783 17.4129 10.1463 17.1741 9.69628 16.8298C9.24628 16.4856 8.88153 16.0366 8.60203 15.4827C8.52119 15.3071 8.52053 15.1333 8.60003 14.9615C8.67953 14.7897 8.80711 14.6718 8.98278 14.6077C9.14811 14.5436 9.31669 14.5445 9.48853 14.6105C9.66036 14.6767 9.79178 14.7873 9.88278 14.9423C10.1418 15.4012 10.4664 15.7493 10.8568 15.9865C11.2471 16.2237 11.6782 16.3422 12.15 16.3422ZM12 22.5C10.05 22.5 8.28044 22.0173 6.69128 21.0518C5.10228 20.0864 3.85586 18.7928 2.95203 17.171V19.4038C2.95203 19.6166 2.88019 19.7948 2.73653 19.9385C2.59303 20.082 2.41486 20.1538 2.20203 20.1538C1.98919 20.1538 1.81094 20.082 1.66728 19.9385C1.52378 19.7948 1.45203 19.6166 1.45203 19.4038V15.5577C1.45203 15.2999 1.53819 15.0848 1.71053 14.9125C1.88303 14.74 2.09811 14.6538 2.35578 14.6538H6.20203C6.41486 14.6538 6.59303 14.7256 6.73653 14.8693C6.88019 15.0128 6.95203 15.1909 6.95203 15.4038C6.95203 15.6166 6.88019 15.7948 6.73653 15.9385C6.59303 16.082 6.41486 16.1538 6.20203 16.1538H4.11153C4.83453 17.6103 5.90311 18.7821 7.31728 19.6693C8.73144 20.5564 10.2924 21 12 21C14.3244 21 16.3308 20.2327 18.0193 18.698C19.7078 17.1635 20.6815 15.2482 20.9405 12.952C20.9674 12.743 21.0551 12.5738 21.2038 12.4443C21.3526 12.3147 21.5314 12.25 21.7403 12.25C21.9531 12.25 22.1323 12.3215 22.2778 12.4645C22.4233 12.6073 22.4826 12.7782 22.4558 12.977C22.3326 14.3167 21.9755 15.5637 21.3845 16.7182C20.7935 17.8727 20.0304 18.8785 19.0953 19.7355C18.1599 20.5925 17.0869 21.2675 15.876 21.7605C14.665 22.2535 13.373 22.5 12 22.5ZM12 3C9.71419 3 7.71903 3.75608 6.01453 5.26825C4.31003 6.78042 3.32503 8.70383 3.05953 11.0385C3.03269 11.2475 2.94494 11.4183 2.79628 11.551C2.64744 11.6837 2.46861 11.75 2.25978 11.75C2.04044 11.75 1.85961 11.6785 1.71728 11.5355C1.57511 11.3927 1.51744 11.2187 1.54428 11.0135C1.68011 9.64817 2.04836 8.38658 2.64903 7.22875C3.24969 6.07108 4.01769 5.06858 4.95303 4.22125C5.88819 3.37375 6.95803 2.70833 8.16253 2.225C9.36703 1.74167 10.6462 1.5 12 1.5C13.9309 1.5 15.7004 1.98433 17.3088 2.953C18.9171 3.9215 20.1635 5.22633 21.048 6.8675V4.59625C21.048 4.38342 21.1199 4.20517 21.2635 4.0615C21.407 3.918 21.5852 3.84625 21.798 3.84625C22.0109 3.84625 22.1891 3.918 22.3328 4.0615C22.4763 4.20517 22.548 4.38342 22.548 4.59625V8.44225C22.548 8.70008 22.4619 8.91517 22.2895 9.0875C22.117 9.26 21.9019 9.34625 21.6443 9.34625H17.798C17.5852 9.34625 17.407 9.27442 17.2635 9.13075C17.1199 8.98725 17.048 8.80908 17.048 8.59625C17.048 8.38342 17.1199 8.20517 17.2635 8.0615C17.407 7.918 17.5852 7.84625 17.798 7.84625H19.8885C19.1847 6.41542 18.1241 5.25 16.7068 4.35C15.2894 3.45 13.7205 3 12 3Z" fill="white"/>
</g>
</svg>
