<svg width="48" height="48" viewBox="0 0 48 48" fill="none" xmlns="http://www.w3.org/2000/svg">
<path d="M24 0.5C36.9787 0.5 47.5 11.0213 47.5 24C47.5 36.9787 36.9787 47.5 24 47.5C11.0213 47.5 0.5 36.9787 0.5 24C0.5 11.0213 11.0213 0.5 24 0.5Z" stroke="url(#paint0_linear_99_174)"/>
<mask id="mask0_99_174" style="mask-type:alpha" maskUnits="userSpaceOnUse" x="14" y="14" width="20" height="20">
<rect x="14" y="14" width="20" height="20" fill="#D9D9D9"/>
</mask>
<g mask="url(#mask0_99_174)">
<path d="M17.3334 30.6668C16.875 30.6668 16.4827 30.5036 16.1563 30.1772C15.8299 29.8509 15.6667 29.4585 15.6667 29.0002V19.0002C15.6667 18.5418 15.8299 18.1495 16.1563 17.8231C16.4827 17.4967 16.875 17.3335 17.3334 17.3335H30.6667C31.125 17.3335 31.5174 17.4967 31.8438 17.8231C32.1702 18.1495 32.3334 18.5418 32.3334 19.0002V29.0002C32.3334 29.4585 32.1702 29.8509 31.8438 30.1772C31.5174 30.5036 31.125 30.6668 30.6667 30.6668H17.3334ZM24 24.6877C24.0695 24.6877 24.1424 24.6772 24.2188 24.6564C24.2952 24.6356 24.3681 24.6043 24.4375 24.5627L30.3334 20.8752C30.4445 20.8057 30.5278 20.7189 30.5834 20.6147C30.6389 20.5106 30.6667 20.396 30.6667 20.271C30.6667 19.9932 30.5486 19.7849 30.3125 19.646C30.0764 19.5071 29.8334 19.5141 29.5834 19.6668L24 23.1668L18.4167 19.6668C18.1667 19.5141 17.9236 19.5106 17.6875 19.6564C17.4514 19.8022 17.3334 20.0071 17.3334 20.271C17.3334 20.4099 17.3611 20.5314 17.4167 20.6356C17.4722 20.7397 17.5556 20.8196 17.6667 20.8752L23.5625 24.5627C23.632 24.6043 23.7049 24.6356 23.7813 24.6564C23.8577 24.6772 23.9306 24.6877 24 24.6877Z" fill="white"/>
</g>
<defs>
<linearGradient id="paint0_linear_99_174" x1="24" y1="0" x2="24" y2="48" gradientUnits="userSpaceOnUse">
<stop stop-color="#426EFF"/>
<stop offset="1" stop-color="#426EFF" stop-opacity="0.05"/>
</linearGradient>
</defs>
</svg>
