<svg width="48" height="48" viewBox="0 0 48 48" fill="none" xmlns="http://www.w3.org/2000/svg">
<path d="M24 0.5C36.9787 0.5 47.5 11.0213 47.5 24C47.5 36.9787 36.9787 47.5 24 47.5C11.0213 47.5 0.5 36.9787 0.5 24C0.5 11.0213 11.0213 0.5 24 0.5Z" stroke="url(#paint0_linear_99_211)" stroke-opacity="0.12"/>
<mask id="mask0_99_211" style="mask-type:alpha" maskUnits="userSpaceOnUse" x="14" y="14" width="20" height="20">
<rect x="14" y="14" width="20" height="20" fill="#D9D9D9"/>
</mask>
<g mask="url(#mask0_99_211)">
<path d="M23.9583 28.9998C24.25 28.9998 24.4965 28.8991 24.6979 28.6978C24.8993 28.4964 25 28.2498 25 27.9582C25 27.6665 24.8993 27.42 24.6979 27.2186C24.4965 27.0172 24.25 26.9165 23.9583 26.9165C23.6667 26.9165 23.4201 27.0172 23.2187 27.2186C23.0174 27.42 22.9167 27.6665 22.9167 27.9582C22.9167 28.2498 23.0174 28.4964 23.2187 28.6978C23.4201 28.8991 23.6667 28.9998 23.9583 28.9998ZM24 32.3332C22.8472 32.3332 21.7639 32.1144 20.75 31.6769C19.7361 31.2394 18.8542 30.6457 18.1042 29.8957C17.3542 29.1457 16.7604 28.2637 16.3229 27.2498C15.8854 26.2359 15.6667 25.1526 15.6667 23.9998C15.6667 22.8471 15.8854 21.7637 16.3229 20.7498C16.7604 19.7359 17.3542 18.854 18.1042 18.104C18.8542 17.354 19.7361 16.7603 20.75 16.3228C21.7639 15.8853 22.8472 15.6665 24 15.6665C25.1528 15.6665 26.2361 15.8853 27.25 16.3228C28.2639 16.7603 29.1458 17.354 29.8958 18.104C30.6458 18.854 31.2396 19.7359 31.6771 20.7498C32.1146 21.7637 32.3333 22.8471 32.3333 23.9998C32.3333 25.1526 32.1146 26.2359 31.6771 27.2498C31.2396 28.2637 30.6458 29.1457 29.8958 29.8957C29.1458 30.6457 28.2639 31.2394 27.25 31.6769C26.2361 32.1144 25.1528 32.3332 24 32.3332ZM24.0833 20.4165C24.4305 20.4165 24.7326 20.5276 24.9896 20.7498C25.2465 20.9721 25.375 21.2498 25.375 21.5832C25.375 21.8887 25.2812 22.1596 25.0937 22.3957C24.9062 22.6318 24.6944 22.854 24.4583 23.0623C24.1389 23.3401 23.8576 23.6457 23.6146 23.979C23.3715 24.3123 23.25 24.6873 23.25 25.104C23.25 25.2984 23.3229 25.4616 23.4687 25.5936C23.6146 25.7255 23.7847 25.7915 23.9792 25.7915C24.1875 25.7915 24.3646 25.7221 24.5104 25.5832C24.6562 25.4443 24.75 25.2707 24.7917 25.0623C24.8472 24.7707 24.9722 24.5103 25.1667 24.2811C25.3611 24.0519 25.5694 23.8332 25.7917 23.6248C26.1111 23.3193 26.3854 22.9859 26.6146 22.6248C26.8437 22.2637 26.9583 21.8609 26.9583 21.4165C26.9583 20.7082 26.6701 20.1283 26.0937 19.6769C25.5174 19.2255 24.8472 18.9998 24.0833 18.9998C23.5555 18.9998 23.0521 19.1109 22.5729 19.3332C22.0937 19.5554 21.7292 19.8957 21.4792 20.354C21.3819 20.5207 21.3507 20.6978 21.3854 20.8853C21.4201 21.0728 21.5139 21.2151 21.6667 21.3123C21.8611 21.4234 22.0625 21.4582 22.2708 21.4165C22.4792 21.3748 22.6528 21.2568 22.7917 21.0623C22.9444 20.854 23.1354 20.6943 23.3646 20.5832C23.5937 20.4721 23.8333 20.4165 24.0833 20.4165Z" fill="white"/>
</g>
<defs>
<linearGradient id="paint0_linear_99_211" x1="24" y1="0" x2="24" y2="48" gradientUnits="userSpaceOnUse">
<stop stop-color="white"/>
<stop offset="1" stop-color="white" stop-opacity="0.05"/>
</linearGradient>
</defs>
</svg>
