<svg viewBox="0 0 48 48" fill="none" xmlns="http://www.w3.org/2000/svg">
<path d="M24 0.5C36.9787 0.5 47.5 11.0213 47.5 24C47.5 36.9787 36.9787 47.5 24 47.5C11.0213 47.5 0.5 36.9787 0.5 24C0.5 11.0213 11.0213 0.5 24 0.5Z" stroke="url(#paint0_linear_776_18526)"/>
<mask id="mask0_776_18526" style="mask-type:alpha" maskUnits="userSpaceOnUse" x="14" y="14" width="20" height="20">
<rect x="14" y="14" width="20" height="20" fill="#D9D9D9"/>
</mask>
<g mask="url(#mask0_776_18526)">
<path d="M17.3333 30.6668C16.875 30.6668 16.4826 30.5036 16.1562 30.1772C15.8298 29.8509 15.6666 29.4585 15.6666 29.0002V19.0002C15.6666 18.5418 15.8298 18.1495 16.1562 17.8231C16.4826 17.4967 16.875 17.3335 17.3333 17.3335H30.6666C31.125 17.3335 31.5173 17.4967 31.8437 17.8231C32.1701 18.1495 32.3333 18.5418 32.3333 19.0002V29.0002C32.3333 29.4585 32.1701 29.8509 31.8437 30.1772C31.5173 30.5036 31.125 30.6668 30.6666 30.6668H17.3333ZM24 24.6877C24.0694 24.6877 24.1423 24.6772 24.2187 24.6564C24.2951 24.6356 24.368 24.6043 24.4375 24.5627L30.3333 20.8752C30.4444 20.8057 30.5277 20.7189 30.5833 20.6147C30.6388 20.5106 30.6666 20.396 30.6666 20.271C30.6666 19.9932 30.5486 19.7849 30.3125 19.646C30.0763 19.5071 29.8333 19.5141 29.5833 19.6668L24 23.1668L18.4166 19.6668C18.1666 19.5141 17.9236 19.5106 17.6875 19.6564C17.4513 19.8022 17.3333 20.0071 17.3333 20.271C17.3333 20.4099 17.3611 20.5314 17.4166 20.6356C17.4722 20.7397 17.5555 20.8196 17.6666 20.8752L23.5625 24.5627C23.6319 24.6043 23.7048 24.6356 23.7812 24.6564C23.8576 24.6772 23.9305 24.6877 24 24.6877Z" fill="white"/>
</g>
<defs>
<linearGradient id="paint0_linear_776_18526" x1="24" y1="0" x2="24" y2="48" gradientUnits="userSpaceOnUse">
<stop stop-color="#FF4242"/>
<stop offset="1" stop-color="#FF4242" stop-opacity="0.05"/>
</linearGradient>
</defs>
</svg>
