<svg width="48" height="48" viewBox="0 0 48 48" fill="none" xmlns="http://www.w3.org/2000/svg">
<path d="M24 0.5C36.9787 0.5 47.5 11.0213 47.5 24C47.5 36.9787 36.9787 47.5 24 47.5C11.0213 47.5 0.5 36.9787 0.5 24C0.5 11.0213 11.0213 0.5 24 0.5Z" stroke="url(#paint0_linear_99_186)" stroke-opacity="0.12"/>
<mask id="mask0_99_186" style="mask-type:alpha" maskUnits="userSpaceOnUse" x="14" y="14" width="20" height="20">
<rect x="14" y="14" width="20" height="20" fill="#D9D9D9"/>
</mask>
<g mask="url(#mask0_99_186)">
<path d="M21.5 25.8748C21.2084 25.8748 20.9618 25.7741 20.7604 25.5728C20.559 25.3714 20.4584 25.1248 20.4584 24.8332C20.4584 24.5415 20.559 24.295 20.7604 24.0936C20.9618 23.8922 21.2084 23.7915 21.5 23.7915C21.7917 23.7915 22.0382 23.8922 22.2396 24.0936C22.441 24.295 22.5417 24.5415 22.5417 24.8332C22.5417 25.1248 22.441 25.3714 22.2396 25.5728C22.0382 25.7741 21.7917 25.8748 21.5 25.8748ZM26.5 25.8748C26.2084 25.8748 25.9618 25.7741 25.7604 25.5728C25.559 25.3714 25.4584 25.1248 25.4584 24.8332C25.4584 24.5415 25.559 24.295 25.7604 24.0936C25.9618 23.8922 26.2084 23.7915 26.5 23.7915C26.7917 23.7915 27.0382 23.8922 27.2396 24.0936C27.441 24.295 27.5417 24.5415 27.5417 24.8332C27.5417 25.1248 27.441 25.3714 27.2396 25.5728C27.0382 25.7741 26.7917 25.8748 26.5 25.8748ZM24 30.6665C25.8611 30.6665 27.4375 30.0207 28.7292 28.729C30.0209 27.4373 30.6667 25.8609 30.6667 23.9998C30.6667 23.6665 30.6459 23.3436 30.6042 23.0311C30.5625 22.7186 30.4861 22.4165 30.375 22.1248C30.0834 22.1943 29.7917 22.2464 29.5 22.2811C29.2084 22.3158 28.9028 22.3332 28.5834 22.3332C27.3195 22.3332 26.125 22.0623 25 21.5207C23.875 20.979 22.9167 20.2221 22.125 19.2498C21.6806 20.3332 21.0452 21.2741 20.2188 22.0728C19.3924 22.8714 18.4306 23.4721 17.3334 23.8748V23.9998C17.3334 25.8609 17.9792 27.4373 19.2709 28.729C20.5625 30.0207 22.1389 30.6665 24 30.6665ZM24 32.3332C22.8472 32.3332 21.7639 32.1144 20.75 31.6769C19.7361 31.2394 18.8542 30.6457 18.1042 29.8957C17.3542 29.1457 16.7604 28.2637 16.3229 27.2498C15.8854 26.2359 15.6667 25.1526 15.6667 23.9998C15.6667 22.8471 15.8854 21.7637 16.3229 20.7498C16.7604 19.7359 17.3542 18.854 18.1042 18.104C18.8542 17.354 19.7361 16.7603 20.75 16.3228C21.7639 15.8853 22.8472 15.6665 24 15.6665C25.1528 15.6665 26.2361 15.8853 27.25 16.3228C28.2639 16.7603 29.1459 17.354 29.8959 18.104C30.6459 18.854 31.2396 19.7359 31.6771 20.7498C32.1146 21.7637 32.3334 22.8471 32.3334 23.9998C32.3334 25.1526 32.1146 26.2359 31.6771 27.2498C31.2396 28.2637 30.6459 29.1457 29.8959 29.8957C29.1459 30.6457 28.2639 31.2394 27.25 31.6769C26.2361 32.1144 25.1528 32.3332 24 32.3332Z" fill="white"/>
</g>
<defs>
<linearGradient id="paint0_linear_99_186" x1="24" y1="0" x2="24" y2="48" gradientUnits="userSpaceOnUse">
<stop stop-color="white"/>
<stop offset="1" stop-color="white" stop-opacity="0.05"/>
</linearGradient>
</defs>
</svg>
