<svg width="12" height="10" viewBox="0 0 12 10" fill="none" xmlns="http://www.w3.org/2000/svg">
<path d="M1.33333 2.08333C1.16806 2.08333 1.02951 2.02743 0.917708 1.91563C0.805903 1.80382 0.75 1.66528 0.75 1.5C0.75 1.33472 0.805903 1.19618 0.917708 1.08438C1.02951 0.972571 1.16806 0.916668 1.33333 0.916668H10.6667C10.8319 0.916668 10.9705 0.972571 11.0823 1.08438C11.1941 1.19618 11.25 1.33472 11.25 1.5C11.25 1.66528 11.1941 1.80382 11.0823 1.91563C10.9705 2.02743 10.8319 2.08333 10.6667 2.08333H1.33333ZM1.33333 9.08333C1.16806 9.08333 1.02951 9.02743 0.917708 8.91563C0.805903 8.80382 0.75 8.66528 0.75 8.5C0.75 8.33472 0.805903 8.19618 0.917708 8.08438C1.02951 7.97257 1.16806 7.91667 1.33333 7.91667H10.6667C10.8319 7.91667 10.9705 7.97257 11.0823 8.08438C11.1941 8.19618 11.25 8.33472 11.25 8.5C11.25 8.66528 11.1941 8.80382 11.0823 8.91563C10.9705 9.02743 10.8319 9.08333 10.6667 9.08333H1.33333ZM1.33333 5.58333C1.16806 5.58333 1.02951 5.52743 0.917708 5.41563C0.805903 5.30382 0.75 5.16528 0.75 5C0.75 4.83472 0.805903 4.69618 0.917708 4.58438C1.02951 4.47257 1.16806 4.41667 1.33333 4.41667H10.6667C10.8319 4.41667 10.9705 4.47257 11.0823 4.58438C11.1941 4.69618 11.25 4.83472 11.25 5C11.25 5.16528 11.1941 5.30382 11.0823 5.41563C10.9705 5.52743 10.8319 5.58333 10.6667 5.58333H1.33333Z" fill="white"/>
</svg>
