<svg width="21" height="16" viewBox="0 0 21 16" fill="none" xmlns="http://www.w3.org/2000/svg">
<path d="M17.6457 1.43028C16.3187 0.825815 14.8968 0.380736 13.4093 0.126119C13.382 0.121107 13.3547 0.133136 13.3416 0.158197C13.1588 0.480979 12.9558 0.903 12.8144 1.2338C11.2148 0.996226 9.62323 0.996226 8.0559 1.2338C7.9135 0.89498 7.70344 0.480979 7.51965 0.158197C7.50551 0.134139 7.47825 0.122109 7.45199 0.126119C5.96545 0.380736 4.54254 0.825815 3.21557 1.43028C3.20446 1.43529 3.19436 1.44331 3.18729 1.45434C0.488898 5.45603 -0.250352 9.35949 0.112194 13.2148C0.114214 13.2339 0.124314 13.2519 0.139463 13.2629C1.91987 14.5611 3.64476 15.349 5.33732 15.8713C5.36458 15.8793 5.39286 15.8693 5.41003 15.8472C5.80994 15.3049 6.16744 14.7325 6.47343 14.13C6.49161 14.095 6.47342 14.0529 6.43706 14.0388C5.87052 13.8253 5.33225 13.5657 4.81317 13.271C4.77177 13.2469 4.76876 13.1888 4.80612 13.1607C4.91519 13.0795 5.02425 12.9953 5.12827 12.9101C5.14745 12.894 5.1737 12.891 5.19592 12.9011C8.60223 14.4448 12.2903 14.4448 15.6562 12.9011C15.6784 12.89 15.7047 12.8941 15.7239 12.9091C15.8279 12.9943 15.937 13.0795 16.047 13.1607C16.0844 13.1888 16.0824 13.2469 16.041 13.271C15.5229 13.5717 14.9836 13.8263 14.4161 14.0388C14.3787 14.0529 14.3626 14.095 14.3807 14.1311C14.6938 14.7315 15.0503 15.3039 15.4431 15.8472C15.4593 15.8703 15.4886 15.8803 15.5158 15.8723C17.2165 15.35 18.9413 14.5621 20.7218 13.2639C20.7369 13.2529 20.747 13.2349 20.749 13.2168C21.1833 8.76003 20.0219 4.88866 17.6719 1.45634C17.6659 1.44532 17.6568 1.43629 17.6447 1.43128L17.6457 1.43028ZM6.98036 10.8671C5.95433 10.8671 5.1101 9.93288 5.1101 8.7851C5.1101 7.63732 5.93918 6.70305 6.98036 6.70305C8.02155 6.70305 8.86782 7.64634 8.85066 8.7851C8.85066 9.93288 8.02155 10.8671 6.98036 10.8671ZM13.897 10.8671C12.871 10.8671 12.0267 9.93288 12.0267 8.7851C12.0267 7.63732 12.8558 6.70305 13.897 6.70305C14.9382 6.70305 15.7845 7.64634 15.7673 8.7851C15.7673 9.93288 14.9473 10.8671 13.897 10.8671Z" fill="white"/>
</svg>
