<svg viewBox="0 0 48 48" fill="none" xmlns="http://www.w3.org/2000/svg">
<path d="M24 0.5C36.9787 0.5 47.5 11.0213 47.5 24C47.5 36.9787 36.9787 47.5 24 47.5C11.0213 47.5 0.5 36.9787 0.5 24C0.5 11.0213 11.0213 0.5 24 0.5Z" stroke="url(#paint0_linear_776_20763)"/>
<mask id="mask0_776_20763" style="mask-type:alpha" maskUnits="userSpaceOnUse" x="14" y="14" width="20" height="20">
<rect x="14" y="14" width="20" height="20" fill="#D9D9D9"/>
</mask>
<g mask="url(#mask0_776_20763)">
<path d="M22.8333 25.4998L21.0416 23.7082C20.8888 23.5554 20.6944 23.479 20.4583 23.479C20.2222 23.479 20.0277 23.5554 19.875 23.7082C19.7222 23.8609 19.6458 24.0554 19.6458 24.2915C19.6458 24.5276 19.7222 24.7221 19.875 24.8748L22.25 27.2498C22.4166 27.4165 22.6111 27.4998 22.8333 27.4998C23.0555 27.4998 23.25 27.4165 23.4166 27.2498L28.125 22.5415C28.2777 22.3887 28.3541 22.1943 28.3541 21.9582C28.3541 21.7221 28.2777 21.5276 28.125 21.3748C27.9722 21.2221 27.7777 21.1457 27.5416 21.1457C27.3055 21.1457 27.1111 21.2221 26.9583 21.3748L22.8333 25.4998ZM24 32.3332C22.8472 32.3332 21.7638 32.1144 20.75 31.6769C19.7361 31.2394 18.8541 30.6457 18.1041 29.8957C17.3541 29.1457 16.7604 28.2637 16.3229 27.2498C15.8854 26.2359 15.6666 25.1526 15.6666 23.9998C15.6666 22.8471 15.8854 21.7637 16.3229 20.7498C16.7604 19.7359 17.3541 18.854 18.1041 18.104C18.8541 17.354 19.7361 16.7603 20.75 16.3228C21.7638 15.8853 22.8472 15.6665 24 15.6665C25.1527 15.6665 26.2361 15.8853 27.25 16.3228C28.2638 16.7603 29.1458 17.354 29.8958 18.104C30.6458 18.854 31.2395 19.7359 31.677 20.7498C32.1145 21.7637 32.3333 22.8471 32.3333 23.9998C32.3333 25.1526 32.1145 26.2359 31.677 27.2498C31.2395 28.2637 30.6458 29.1457 29.8958 29.8957C29.1458 30.6457 28.2638 31.2394 27.25 31.6769C26.2361 32.1144 25.1527 32.3332 24 32.3332Z" fill="white"/>
</g>
<defs>
<linearGradient id="paint0_linear_776_20763" x1="24" y1="0" x2="24" y2="48" gradientUnits="userSpaceOnUse">
<stop stop-color="#426EFF"/>
<stop offset="1" stop-color="#426EFF" stop-opacity="0.05"/>
</linearGradient>
</defs>
</svg>
