<svg width="38" height="38" viewBox="0 0 38 38" fill="none" xmlns="http://www.w3.org/2000/svg">
<mask id="mask0_214_37268" style="mask-type:alpha" maskUnits="userSpaceOnUse" x="0" y="0" width="38" height="38">
<rect width="38" height="38" fill="#D9D9D9"/>
</mask>
<g mask="url(#mask0_214_37268)">
<path d="M18.9998 26.9167C19.4484 26.9167 19.8245 26.765 20.128 26.4615C20.4314 26.1581 20.5832 25.782 20.5832 25.3334C20.5832 24.8848 20.4314 24.5088 20.128 24.2053C19.8245 23.9018 19.4484 23.7501 18.9998 23.7501C18.5512 23.7501 18.1752 23.9018 17.8717 24.2053C17.5682 24.5088 17.4165 24.8848 17.4165 25.3334C17.4165 25.782 17.5682 26.1581 17.8717 26.4615C18.1752 26.765 18.5512 26.9167 18.9998 26.9167ZM18.9998 20.5834C19.4484 20.5834 19.8245 20.4317 20.128 20.1282C20.4314 19.8247 20.5832 19.4487 20.5832 19.0001V12.6667C20.5832 12.2181 20.4314 11.8421 20.128 11.5386C19.8245 11.2352 19.4484 11.0834 18.9998 11.0834C18.5512 11.0834 18.1752 11.2352 17.8717 11.5386C17.5682 11.8421 17.4165 12.2181 17.4165 12.6667V19.0001C17.4165 19.4487 17.5682 19.8247 17.8717 20.1282C18.1752 20.4317 18.5512 20.5834 18.9998 20.5834ZM18.9998 34.8334C16.8096 34.8334 14.7512 34.4178 12.8248 33.5865C10.8984 32.7553 9.22275 31.6272 7.79775 30.2022C6.37275 28.7772 5.24463 27.1015 4.41338 25.1751C3.58213 23.2487 3.1665 21.1904 3.1665 19.0001C3.1665 16.8098 3.58213 14.7515 4.41338 12.8251C5.24463 10.8987 6.37275 9.223 7.79775 7.798C9.22275 6.373 10.8984 5.24487 12.8248 4.41362C14.7512 3.58237 16.8096 3.16675 18.9998 3.16675C21.1901 3.16675 23.2484 3.58237 25.1748 4.41362C27.1012 5.24487 28.7769 6.373 30.2019 7.798C31.6269 9.223 32.755 10.8987 33.5863 12.8251C34.4175 14.7515 34.8332 16.8098 34.8332 19.0001C34.8332 21.1904 34.4175 23.2487 33.5863 25.1751C32.755 27.1015 31.6269 28.7772 30.2019 30.2022C28.7769 31.6272 27.1012 32.7553 25.1748 33.5865C23.2484 34.4178 21.1901 34.8334 18.9998 34.8334ZM18.9998 31.6667C22.5359 31.6667 25.5311 30.4397 27.9853 27.9855C30.4394 25.5313 31.6665 22.5362 31.6665 19.0001C31.6665 15.464 30.4394 12.4688 27.9853 10.0147C25.5311 7.5605 22.5359 6.33341 18.9998 6.33341C15.4637 6.33341 12.4686 7.5605 10.0144 10.0147C7.56025 12.4688 6.33317 15.464 6.33317 19.0001C6.33317 22.5362 7.56025 25.5313 10.0144 27.9855C12.4686 30.4397 15.4637 31.6667 18.9998 31.6667Z" fill="#FF6E69"/>
</g>
</svg>
