<svg width="20" height="20" viewBox="0 0 20 20" fill="none" xmlns="http://www.w3.org/2000/svg">
<mask id="mask0_99_203" style="mask-type:alpha" maskUnits="userSpaceOnUse" x="0" y="0" width="20" height="20">
<rect width="20" height="20" fill="#D9D9D9"/>
</mask>
<g mask="url(#mask0_99_203)">
<path d="M7.50002 11.8748C7.20835 11.8748 6.96183 11.7741 6.76044 11.5728C6.55905 11.3714 6.45835 11.1248 6.45835 10.8332C6.45835 10.5415 6.55905 10.295 6.76044 10.0936C6.96183 9.8922 7.20835 9.7915 7.50002 9.7915C7.79169 9.7915 8.03821 9.8922 8.2396 10.0936C8.44099 10.295 8.54169 10.5415 8.54169 10.8332C8.54169 11.1248 8.44099 11.3714 8.2396 11.5728C8.03821 11.7741 7.79169 11.8748 7.50002 11.8748ZM12.5 11.8748C12.2084 11.8748 11.9618 11.7741 11.7604 11.5728C11.559 11.3714 11.4584 11.1248 11.4584 10.8332C11.4584 10.5415 11.559 10.295 11.7604 10.0936C11.9618 9.8922 12.2084 9.7915 12.5 9.7915C12.7917 9.7915 13.0382 9.8922 13.2396 10.0936C13.441 10.295 13.5417 10.5415 13.5417 10.8332C13.5417 11.1248 13.441 11.3714 13.2396 11.5728C13.0382 11.7741 12.7917 11.8748 12.5 11.8748ZM10 16.6665C11.8611 16.6665 13.4375 16.0207 14.7292 14.729C16.0209 13.4373 16.6667 11.8609 16.6667 9.99984C16.6667 9.6665 16.6459 9.34359 16.6042 9.03109C16.5625 8.71859 16.4861 8.4165 16.375 8.12484C16.0834 8.19428 15.7917 8.24637 15.5 8.28109C15.2084 8.31581 14.9028 8.33317 14.5834 8.33317C13.3195 8.33317 12.125 8.06234 11 7.52067C9.87502 6.979 8.91669 6.22206 8.12502 5.24984C7.68058 6.33317 7.04516 7.27414 6.21877 8.07275C5.39238 8.87136 4.43058 9.47206 3.33335 9.87484V9.99984C3.33335 11.8609 3.97919 13.4373 5.27085 14.729C6.56252 16.0207 8.13891 16.6665 10 16.6665ZM10 18.3332C8.84724 18.3332 7.76391 18.1144 6.75002 17.6769C5.73613 17.2394 4.85419 16.6457 4.10419 15.8957C3.35419 15.1457 2.76044 14.2637 2.32294 13.2498C1.88544 12.2359 1.66669 11.1526 1.66669 9.99984C1.66669 8.84706 1.88544 7.76373 2.32294 6.74984C2.76044 5.73595 3.35419 4.854 4.10419 4.104C4.85419 3.354 5.73613 2.76025 6.75002 2.32275C7.76391 1.88525 8.84724 1.6665 10 1.6665C11.1528 1.6665 12.2361 1.88525 13.25 2.32275C14.2639 2.76025 15.1459 3.354 15.8959 4.104C16.6459 4.854 17.2396 5.73595 17.6771 6.74984C18.1146 7.76373 18.3334 8.84706 18.3334 9.99984C18.3334 11.1526 18.1146 12.2359 17.6771 13.2498C17.2396 14.2637 16.6459 15.1457 15.8959 15.8957C15.1459 16.6457 14.2639 17.2394 13.25 17.6769C12.2361 18.1144 11.1528 18.3332 10 18.3332Z" fill="white"/>
</g>
</svg>
