<svg width="60" height="60" viewBox="0 0 60 60" fill="none" xmlns="http://www.w3.org/2000/svg">
<path d="M30 0.5C46.2924 0.5 59.5 13.7076 59.5 30C59.5 46.2924 46.2924 59.5 30 59.5C13.7076 59.5 0.5 46.2924 0.5 30C0.5 13.7076 13.7076 0.5 30 0.5Z" stroke="url(#paint0_linear_112_13694)"/>
<mask id="mask0_112_13694" style="mask-type:alpha" maskUnits="userSpaceOnUse" x="17" y="17" width="26" height="26">
<rect x="17" y="17" width="26" height="26" fill="#D9D9D9"/>
</mask>
<g mask="url(#mask0_112_13694)">
<path d="M41.9166 30C41.9166 32.1125 41.1808 33.9045 39.7093 35.376C38.2378 36.8475 36.4458 37.5833 34.3333 37.5833C33.8458 37.5833 33.3718 37.5382 32.9114 37.4479C32.451 37.3576 32.0041 37.2312 31.5708 37.0687C32.618 36.184 33.4305 35.1278 34.0083 33.9C34.586 32.6722 34.8749 31.3722 34.8749 30C34.8749 28.6278 34.586 27.3278 34.0083 26.1C33.4305 24.8722 32.618 23.8159 31.5708 22.9312C32.0041 22.7687 32.451 22.6423 32.9114 22.5521C33.3718 22.4618 33.8458 22.4166 34.3333 22.4166C36.4458 22.4166 38.2378 23.1524 39.7093 24.6239C41.1808 26.0955 41.9166 27.8875 41.9166 30ZM29.9999 35.9041C29.8735 35.9041 29.7471 35.8816 29.6208 35.8364C29.4944 35.7913 29.386 35.7236 29.2958 35.6333C28.4652 34.9472 27.8333 34.1076 27.3999 33.1146C26.9666 32.1215 26.7499 31.0833 26.7499 30C26.7499 28.9166 26.9666 27.8784 27.3999 26.8854C27.8333 25.8923 28.4652 25.0528 29.2958 24.3666C29.386 24.2764 29.4944 24.2087 29.6208 24.1635C29.7471 24.1184 29.8735 24.0958 29.9999 24.0958C30.1263 24.0958 30.2527 24.1184 30.3791 24.1635C30.5055 24.2087 30.6138 24.2764 30.7041 24.3666C31.5346 25.0528 32.1666 25.8923 32.5999 26.8854C33.0333 27.8784 33.2499 28.9166 33.2499 30C33.2499 31.0833 33.0333 32.1215 32.5999 33.1146C32.1666 34.1076 31.5346 34.9472 30.7041 35.6333C30.6138 35.7236 30.5055 35.7913 30.3791 35.8364C30.2527 35.8816 30.1263 35.9041 29.9999 35.9041ZM18.0833 30C18.0833 28.9889 18.2728 28.0229 18.652 27.1021C19.0312 26.1812 19.5819 25.3597 20.3041 24.6375C21.1166 23.825 22.069 23.2246 23.1614 22.8364C24.2537 22.4482 25.3777 22.3264 26.5333 22.4708C26.8402 22.5069 27.0839 22.6378 27.2645 22.8635C27.4451 23.0892 27.5173 23.3555 27.4812 23.6625C27.4451 23.9694 27.3096 24.2132 27.0749 24.3937C26.8402 24.5743 26.5694 24.6465 26.2624 24.6104C25.4499 24.5201 24.6555 24.6149 23.8791 24.8948C23.1027 25.1746 22.4256 25.6034 21.8478 26.1812C21.3423 26.6868 20.9496 27.2691 20.6697 27.9281C20.3898 28.5871 20.2499 29.2778 20.2499 30C20.2499 30.7222 20.3898 31.4128 20.6697 32.0718C20.9496 32.7309 21.3423 33.3132 21.8478 33.8187C22.4256 34.3965 23.1027 34.8253 23.8791 35.1052C24.6555 35.385 25.4499 35.4798 26.2624 35.3896C26.5694 35.3534 26.8357 35.4257 27.0614 35.6062C27.2871 35.7868 27.418 36.0305 27.4541 36.3375C27.4902 36.6264 27.4225 36.8882 27.251 37.1229C27.0794 37.3576 26.8402 37.493 26.5333 37.5291C25.3777 37.6736 24.2537 37.5517 23.1614 37.1635C22.069 36.7753 21.1166 36.175 20.3041 35.3625C19.5819 34.6403 19.0312 33.8187 18.652 32.8979C18.2728 31.9771 18.0833 31.0111 18.0833 30Z" fill="white"/>
</g>
<defs>
<linearGradient id="paint0_linear_112_13694" x1="30" y1="0" x2="30" y2="60" gradientUnits="userSpaceOnUse">
<stop stop-color="#426EFF"/>
<stop offset="1" stop-color="#426EFF" stop-opacity="0.05"/>
</linearGradient>
</defs>
</svg>
