<svg width="60" height="60" viewBox="0 0 60 60" fill="none" xmlns="http://www.w3.org/2000/svg">
<path d="M30 0.5C46.2924 0.5 59.5 13.7076 59.5 30C59.5 46.2924 46.2924 59.5 30 59.5C13.7076 59.5 0.5 46.2924 0.5 30C0.5 13.7076 13.7076 0.5 30 0.5Z" stroke="url(#paint0_linear_112_13687)"/>
<mask id="mask0_112_13687" style="mask-type:alpha" maskUnits="userSpaceOnUse" x="17" y="17" width="26" height="26">
<rect x="17" y="17" width="26" height="26" fill="#D9D9D9"/>
</mask>
<g mask="url(#mask0_112_13687)">
<path d="M35.4167 39.7771C35.2723 39.7771 35.1279 39.759 34.9834 39.7229C34.839 39.6868 34.7036 39.6236 34.5772 39.5333L31.3272 37.6375C31.0744 37.493 30.8803 37.2989 30.7449 37.0552C30.6095 36.8114 30.5417 36.5451 30.5417 36.2562V32.4375C30.5417 32.1486 30.6095 31.8823 30.7449 31.6385C30.8803 31.3948 31.0744 31.2007 31.3272 31.0562L34.5772 29.1604C34.7036 29.0701 34.839 29.0069 34.9834 28.9708C35.1279 28.9347 35.2723 28.9166 35.4167 28.9166C35.5612 28.9166 35.7011 28.9392 35.8365 28.9844C35.972 29.0295 36.1029 29.0882 36.2292 29.1604L39.4792 31.0562C39.732 31.2007 39.9306 31.3948 40.0751 31.6385C40.2195 31.8823 40.2917 32.1486 40.2917 32.4375V36.2562C40.2917 36.5451 40.2195 36.8114 40.0751 37.0552C39.9306 37.2989 39.732 37.493 39.4792 37.6375L36.2292 39.5333C36.1029 39.6055 35.972 39.6642 35.8365 39.7094C35.7011 39.7545 35.5612 39.7771 35.4167 39.7771ZM21.3334 38.6666C20.7376 38.6666 20.2275 38.4545 19.8032 38.0302C19.3789 37.6059 19.1667 37.0958 19.1667 36.5V35.6333C19.1667 35.0375 19.3202 34.4778 19.6272 33.9541C19.9341 33.4305 20.3584 33.0333 20.9001 32.7625C21.9112 32.2569 22.9674 31.8552 24.0688 31.5573C25.1702 31.2594 26.2897 31.0923 27.4272 31.0562C27.5716 31.0562 27.698 31.0878 27.8063 31.151C27.9147 31.2142 28.0049 31.3 28.0772 31.4083C28.1494 31.5166 28.1945 31.6385 28.2126 31.7739C28.2306 31.9094 28.2216 32.0493 28.1855 32.1937C28.0772 32.5548 27.9959 32.9205 27.9417 33.2906C27.8876 33.6607 27.8605 34.0264 27.8605 34.3875C27.8605 34.9291 27.9192 35.4663 28.0365 35.9989C28.1539 36.5316 28.3299 37.0507 28.5647 37.5562C28.6188 37.7007 28.6459 37.8361 28.6459 37.9625C28.6459 38.0889 28.6098 38.2062 28.5376 38.3146C28.4654 38.4229 28.3796 38.5087 28.2803 38.5719C28.181 38.635 28.0591 38.6666 27.9147 38.6666H21.3334ZM27.8334 30C26.6417 30 25.6216 29.5757 24.773 28.7271C23.9244 27.8785 23.5001 26.8583 23.5001 25.6666C23.5001 24.475 23.9244 23.4548 24.773 22.6062C25.6216 21.7576 26.6417 21.3333 27.8334 21.3333C29.0251 21.3333 30.0452 21.7576 30.8938 22.6062C31.7424 23.4548 32.1667 24.475 32.1667 25.6666C32.1667 26.8583 31.7424 27.8785 30.8938 28.7271C30.0452 29.5757 29.0251 30 27.8334 30ZM32.8709 32.0041L35.4167 33.4937L37.9626 32.0041L35.4167 30.5416L32.8709 32.0041ZM36.2292 37.6375L38.6667 36.2291V33.25L36.2292 34.6854V37.6375ZM32.1667 36.2291L34.6042 37.6646V34.7125L32.1667 33.2771V36.2291Z" fill="white"/>
</g>
<defs>
<linearGradient id="paint0_linear_112_13687" x1="30" y1="0" x2="30" y2="60" gradientUnits="userSpaceOnUse">
<stop stop-color="#426EFF"/>
<stop offset="1" stop-color="#426EFF" stop-opacity="0.05"/>
</linearGradient>
</defs>
</svg>
