<svg width="60" height="60" viewBox="0 0 60 60" fill="none" xmlns="http://www.w3.org/2000/svg">
<path d="M30 0.5C46.2924 0.5 59.5 13.7076 59.5 30C59.5 46.2924 46.2924 59.5 30 59.5C13.7076 59.5 0.5 46.2924 0.5 30C0.5 13.7076 13.7076 0.5 30 0.5Z" stroke="url(#paint0_linear_112_13703)"/>
<mask id="mask0_112_13703" style="mask-type:alpha" maskUnits="userSpaceOnUse" x="17" y="17" width="26" height="26">
<rect x="17" y="17" width="26" height="26" fill="#D9D9D9"/>
</mask>
<g mask="url(#mask0_112_13703)">
<path d="M26.6959 28.5916L25.1522 27.075C24.9355 26.8583 24.6827 26.75 24.3938 26.75C24.1049 26.75 23.8522 26.8583 23.6355 27.075C23.4188 27.2916 23.306 27.5444 23.297 27.8333C23.2879 28.1222 23.3917 28.375 23.6084 28.5916L25.9105 30.8937C26.1272 31.1104 26.3845 31.2187 26.6824 31.2187C26.9803 31.2187 27.2376 31.1104 27.4542 30.8937L32.0584 26.3166C32.2751 26.1 32.3834 25.8427 32.3834 25.5448C32.3834 25.2468 32.2751 24.9895 32.0584 24.7729C31.8417 24.5562 31.5845 24.4479 31.2865 24.4479C30.9886 24.4479 30.7313 24.5562 30.5147 24.7729L26.6959 28.5916ZM27.8334 36.5C25.414 36.5 23.3647 35.6604 21.6855 33.9812C20.0063 32.302 19.1667 30.2527 19.1667 27.8333C19.1667 25.4138 20.0063 23.3645 21.6855 21.6854C23.3647 20.0062 25.414 19.1666 27.8334 19.1666C30.2529 19.1666 32.3022 20.0062 33.9813 21.6854C35.6605 23.3645 36.5001 25.4138 36.5001 27.8333C36.5001 28.8444 36.3421 29.7968 36.0261 30.6906C35.7102 31.5843 35.2633 32.4013 34.6855 33.1416L40.0751 38.5312C40.2917 38.7479 40.4001 39.0052 40.4001 39.3031C40.4001 39.601 40.2917 39.8583 40.0751 40.075C39.8584 40.2916 39.6011 40.4 39.3032 40.4C39.0053 40.4 38.748 40.2916 38.5313 40.075L33.1417 34.6854C32.4015 35.2632 31.5845 35.71 30.6907 36.026C29.797 36.342 28.8445 36.5 27.8334 36.5Z" fill="white"/>
</g>
<defs>
<linearGradient id="paint0_linear_112_13703" x1="30" y1="0" x2="30" y2="60" gradientUnits="userSpaceOnUse">
<stop stop-color="#426EFF"/>
<stop offset="1" stop-color="#426EFF" stop-opacity="0.05"/>
</linearGradient>
</defs>
</svg>
