<svg width="20" height="20" viewBox="0 0 20 20" fill="none" xmlns="http://www.w3.org/2000/svg">
<mask id="mask0_112_22970" style="mask-type:alpha" maskUnits="userSpaceOnUse" x="0" y="0" width="20" height="20">
<rect width="20" height="20" fill="#D9D9D9"/>
</mask>
<g mask="url(#mask0_112_22970)">
<path d="M9.95841 15.0001C10.2501 15.0001 10.4966 14.8994 10.698 14.698C10.8994 14.4966 11.0001 14.2501 11.0001 13.9584C11.0001 13.6667 10.8994 13.4202 10.698 13.2188C10.4966 13.0174 10.2501 12.9167 9.95841 12.9167C9.66675 12.9167 9.42022 13.0174 9.21883 13.2188C9.01744 13.4202 8.91675 13.6667 8.91675 13.9584C8.91675 14.2501 9.01744 14.4966 9.21883 14.698C9.42022 14.8994 9.66675 15.0001 9.95841 15.0001ZM10.0001 18.3334C8.8473 18.3334 7.76397 18.1147 6.75008 17.6772C5.73619 17.2397 4.85425 16.6459 4.10425 15.8959C3.35425 15.1459 2.7605 14.264 2.323 13.2501C1.8855 12.2362 1.66675 11.1529 1.66675 10.0001C1.66675 8.8473 1.8855 7.76397 2.323 6.75008C2.7605 5.73619 3.35425 4.85425 4.10425 4.10425C4.85425 3.35425 5.73619 2.7605 6.75008 2.323C7.76397 1.8855 8.8473 1.66675 10.0001 1.66675C11.1529 1.66675 12.2362 1.8855 13.2501 2.323C14.264 2.7605 15.1459 3.35425 15.8959 4.10425C16.6459 4.85425 17.2397 5.73619 17.6772 6.75008C18.1147 7.76397 18.3334 8.8473 18.3334 10.0001C18.3334 11.1529 18.1147 12.2362 17.6772 13.2501C17.2397 14.264 16.6459 15.1459 15.8959 15.8959C15.1459 16.6459 14.264 17.2397 13.2501 17.6772C12.2362 18.1147 11.1529 18.3334 10.0001 18.3334ZM10.0834 6.41675C10.4306 6.41675 10.7327 6.52786 10.9897 6.75008C11.2466 6.9723 11.3751 7.25008 11.3751 7.58341C11.3751 7.88897 11.2813 8.1598 11.0938 8.39591C10.9063 8.63203 10.6945 8.85425 10.4584 9.06258C10.139 9.34036 9.85772 9.64592 9.61467 9.97925C9.37161 10.3126 9.25008 10.6876 9.25008 11.1042C9.25008 11.2987 9.323 11.4619 9.46883 11.5938C9.61466 11.7258 9.7848 11.7917 9.97925 11.7917C10.1876 11.7917 10.3647 11.7223 10.5105 11.5834C10.6563 11.4445 10.7501 11.2709 10.7917 11.0626C10.8473 10.7709 10.9723 10.5105 11.1667 10.2813C11.3612 10.0522 11.5695 9.83342 11.7917 9.62508C12.1112 9.31953 12.3855 8.98619 12.6147 8.62508C12.8438 8.26397 12.9584 7.86119 12.9584 7.41675C12.9584 6.70841 12.6702 6.12855 12.0938 5.67716C11.5174 5.22578 10.8473 5.00008 10.0834 5.00008C9.55564 5.00008 9.05217 5.11119 8.573 5.33341C8.09383 5.55564 7.72925 5.89591 7.47925 6.35425C7.38203 6.52091 7.35078 6.698 7.3855 6.8855C7.42022 7.073 7.51397 7.21536 7.66675 7.31258C7.86119 7.42369 8.06258 7.45841 8.27091 7.41675C8.47925 7.37508 8.65286 7.25703 8.79175 7.06258C8.94453 6.85425 9.1355 6.69453 9.36466 6.58341C9.59383 6.4723 9.83342 6.41675 10.0834 6.41675Z" fill="white"/>
</g>
</svg>
