<svg width="24" height="24" viewBox="0 0 24 24" fill="none" xmlns="http://www.w3.org/2000/svg">
<path fill-rule="evenodd" clip-rule="evenodd" d="M24 24H19.0688V15.601C19.0688 13.2982 18.1938 12.0113 16.3711 12.0113C14.3883 12.0113 13.3523 13.3505 13.3523 15.601V24H8.6V8H13.3523V10.1552C13.3523 10.1552 14.7813 7.51118 18.1766 7.51118C21.5703 7.51118 24 9.5836 24 13.8698V24ZM2.93047 5.90493C1.31172 5.90493 0 4.58292 0 2.95246C0 1.32201 1.31172 0 2.93047 0C4.54922 0 5.86016 1.32201 5.86016 2.95246C5.86016 4.58292 4.54922 5.90493 2.93047 5.90493ZM0.476562 24H5.43203V8H0.476562V24Z" fill="white"/>
</svg>
