<svg width="131" height="40" viewBox="0 0 131 40" fill="none" xmlns="http://www.w3.org/2000/svg">
<path d="M29.1484 15.6318L22.5523 5.39217C22.2717 4.95639 21.8925 4.60817 21.4546 4.36959C21.0161 4.13032 20.5182 4 19.9997 4C18.9633 4 18.009 4.5206 17.447 5.39217L10.8516 15.6318C9.14224 18.2851 9.14224 21.7149 10.8516 24.3682L17.447 34.6078C18.009 35.4794 18.9633 36 19.9997 36C21.0361 36 21.9911 35.4794 22.5523 34.6078L29.1484 24.3682C30.8578 21.7149 30.8578 18.2851 29.1484 15.6318ZM20.5237 33.3005C20.3575 33.5584 20.1024 33.5866 19.9997 33.5866C19.8969 33.5866 19.6425 33.5584 19.4763 33.3005L12.8802 23.0609C11.6825 21.2019 11.6825 18.7981 12.8802 16.9385L19.4763 6.69953C19.6425 6.44165 19.8976 6.41338 19.9997 6.41338C20.1017 6.41338 20.3575 6.44165 20.5237 6.69953L27.1198 16.9385C27.1267 16.9495 27.1336 16.9605 27.1405 16.9716C28.1286 18.5292 26.9909 20.5654 25.1464 20.5654H18.2696C17.0319 20.5654 16.2851 21.9355 16.9554 22.9754L21.0891 29.3915C21.6842 30.3148 21.6835 31.5001 21.0891 32.4234L20.5244 33.2998L20.5237 33.3005Z" fill="white"/>
<path d="M54.6914 27.2347V30.5274H40V9.14H54.6914V12.4179H43.7651V17.8367H53.333V21.1293H43.7651V27.2347H54.6914Z" fill="white"/>
<path d="M60.6934 30.0623C59.9403 29.6341 59.3793 29.0508 59.0175 28.3052C58.6558 27.5669 58.4786 26.7106 58.4786 25.7508V18.4051H55.6289V15.1125H58.4786V10.491H61.941V15.1125H65.4182V18.4051H61.941V25.7508C61.941 26.4153 62.0813 26.9025 62.3544 27.2126C62.6276 27.5226 63.1222 27.6777 63.8384 27.6777C64.0746 27.6777 64.333 27.6555 64.6135 27.6186C64.8941 27.5817 65.0712 27.5596 65.1451 27.5448L65.4699 27.5005V30.4831L65.241 30.5274C64.6061 30.6381 64.0303 30.6972 63.5135 30.6972C62.3914 30.7045 61.4464 30.4904 60.6934 30.0623Z" fill="white"/>
<path d="M71.5089 30.5274H68.0465V9.28026H71.5089V15.4669C72.4318 15.0165 73.4284 14.7951 74.5063 14.7951C75.7613 14.7951 76.8835 15.0461 77.8727 15.5407C78.862 16.0427 79.6298 16.7293 80.1835 17.6078C80.7372 18.4864 81.0103 19.4756 81.0103 20.5682V30.52H77.5184V21.277C77.5184 20.3468 77.2674 19.579 76.758 18.9736C76.2486 18.3682 75.5103 18.0655 74.5432 18.0655C73.8861 18.0655 73.3324 18.2058 72.8747 18.4937C72.417 18.7817 72.0774 19.1656 71.8559 19.6454C71.6344 20.1327 71.5237 20.6716 71.5237 21.2696V30.5274H71.5089Z" fill="white"/>
<path d="M86.4955 29.7079C85.2552 28.9327 84.3176 27.8918 83.6754 26.5777C83.1217 25.4186 82.8485 24.1636 82.8485 22.8126C82.8485 21.4542 83.1217 20.1917 83.6754 19.0327C84.3103 17.7186 85.2479 16.6776 86.4955 15.8951C87.7358 15.1125 89.1532 14.7286 90.7553 14.7286C92.3499 14.7286 93.7748 15.1199 95.0224 15.8951C96.2701 16.6776 97.2077 17.7186 97.8426 19.0327C98.3963 20.1917 98.6694 21.4542 98.6694 22.8126L98.6546 23.8535V24.1119H86.6727C86.9089 25.1085 87.3814 25.9354 88.0902 26.5851C88.7989 27.2347 89.6848 27.5596 90.7479 27.5596C91.5969 27.5596 92.3499 27.3307 93.007 26.8804C93.664 26.43 94.1808 25.8394 94.5425 25.1012L94.6828 24.8132L97.8056 26.681L97.5473 27.0797C97.2446 27.5669 96.9566 27.9656 96.6761 28.2757C95.9452 29.1025 95.0667 29.7374 94.0479 30.1878C93.0291 30.6381 91.9217 30.8596 90.7479 30.8596C89.1532 30.8744 87.7358 30.4831 86.4955 29.7079ZM94.705 20.9595C94.4097 20.0884 93.9224 19.3796 93.2358 18.8407C92.5492 18.3018 91.7224 18.036 90.7553 18.036C89.7955 18.036 88.9687 18.3092 88.2821 18.8481C87.5955 19.387 87.1009 20.0958 86.8056 20.9595H94.705Z" fill="white"/>
<path d="M104.192 30.5274H100.729V15.1125H104.192V15.4669C104.642 15.2454 105.122 15.083 105.639 14.9649C106.155 14.8541 106.672 14.7951 107.189 14.7951C107.757 14.7951 108.311 14.8541 108.843 14.9649L109.072 15.0092V18.3756L108.732 18.3018C108.555 18.2723 108.289 18.2206 107.949 18.1468C107.691 18.0877 107.447 18.0582 107.219 18.0582C106.562 18.0582 106.008 18.1985 105.55 18.4864C105.092 18.7743 104.753 19.1582 104.531 19.6381C104.31 20.1253 104.199 20.6642 104.199 21.2622V30.5274H104.192Z" fill="white"/>
<path d="M115.103 9.28026V13.6138H111.641V9.28026H115.103ZM115.103 15.1125V30.5274H111.641V15.1125H115.103Z" fill="white"/>
<path d="M130.082 27.2495V30.5274H117.672V27.9878L125.202 18.4052H118.115V15.1125H130.053V17.6374L122.523 27.2495H130.082Z" fill="white"/>
</svg>
