<svg width="20" height="20" viewBox="0 0 20 20" fill="none" xmlns="http://www.w3.org/2000/svg">
<mask id="mask0_99_184" style="mask-type:alpha" maskUnits="userSpaceOnUse" x="0" y="0" width="20" height="20">
<rect width="20" height="20" fill="#D9D9D9"/>
</mask>
<g mask="url(#mask0_99_184)">
<path d="M3.33335 16.6668C2.87502 16.6668 2.48266 16.5036 2.15627 16.1772C1.82988 15.8509 1.66669 15.4585 1.66669 15.0002V5.00016C1.66669 4.54183 1.82988 4.14947 2.15627 3.82308C2.48266 3.49669 2.87502 3.3335 3.33335 3.3335H16.6667C17.125 3.3335 17.5174 3.49669 17.8438 3.82308C18.1702 4.14947 18.3334 4.54183 18.3334 5.00016V15.0002C18.3334 15.4585 18.1702 15.8509 17.8438 16.1772C17.5174 16.5036 17.125 16.6668 16.6667 16.6668H3.33335ZM10 10.6877C10.0695 10.6877 10.1424 10.6772 10.2188 10.6564C10.2952 10.6356 10.3681 10.6043 10.4375 10.5627L16.3334 6.87516C16.4445 6.80572 16.5278 6.71891 16.5834 6.61475C16.6389 6.51058 16.6667 6.396 16.6667 6.271C16.6667 5.99322 16.5486 5.78488 16.3125 5.646C16.0764 5.50711 15.8334 5.51405 15.5834 5.66683L10 9.16683L4.41669 5.66683C4.16669 5.51405 3.92363 5.51058 3.68752 5.65641C3.45141 5.80225 3.33335 6.00711 3.33335 6.271C3.33335 6.40988 3.36113 6.53141 3.41669 6.63558C3.47224 6.73975 3.55558 6.81961 3.66669 6.87516L9.56252 10.5627C9.63196 10.6043 9.70488 10.6356 9.78127 10.6564C9.85766 10.6772 9.93058 10.6877 10 10.6877Z" fill="white"/>
</g>
</svg>
