<svg width="21" height="22" viewBox="0 0 21 22" fill="none" xmlns="http://www.w3.org/2000/svg">
<g clip-path="url(#clip0_99_294)">
<path d="M5.76867 5.22559C8.92289 5.22559 11.4797 7.80023 11.4797 10.976C11.4797 14.1517 8.9227 16.7262 5.76867 16.7262C2.61464 16.7262 0.0574646 14.1517 0.0574646 10.976C0.0574646 7.80023 2.61445 5.22559 5.76867 5.22559ZM14.8891 5.56243C16.4662 5.56243 17.7447 7.98592 17.7447 10.976H17.7449C17.7449 13.9653 16.4664 16.3895 14.8893 16.3895C13.3121 16.3895 12.0336 13.9653 12.0336 10.976C12.0336 7.98669 13.3119 5.56243 14.8891 5.56243ZM19.3031 6.12629C19.8577 6.12629 20.3075 8.29754 20.3075 10.976C20.3075 13.6537 19.8579 15.8257 19.3031 15.8257C18.7484 15.8257 18.299 13.6542 18.299 10.976C18.299 8.29773 18.7486 6.12629 19.3031 6.12629Z" fill="white"/>
</g>
<defs>
<clipPath id="clip0_99_294">
<rect width="20.25" height="20.25" fill="white" transform="translate(0.0574646 0.875)"/>
</clipPath>
</defs>
</svg>
