<svg width="293" height="801" viewBox="0 0 293 801" fill="none" xmlns="http://www.w3.org/2000/svg">
<g style="mix-blend-mode:overlay">
<circle cx="5" cy="1.5" r="1.5" fill="white" fill-opacity="0.25"/>
<circle cx="24" cy="1.5" r="1.5" fill="white" fill-opacity="0.25"/>
<circle cx="43" cy="1.5" r="1.5" fill="white" fill-opacity="0.25"/>
<circle cx="62" cy="1.5" r="1.5" fill="white" fill-opacity="0.25"/>
<circle cx="81" cy="1.5" r="1.5" fill="white" fill-opacity="0.25"/>
<circle cx="100" cy="1.5" r="1.5" fill="white" fill-opacity="0.25"/>
<circle cx="119" cy="1.5" r="1.5" fill="white" fill-opacity="0.25"/>
<circle cx="138" cy="1.5" r="1.5" fill="white" fill-opacity="0.25"/>
<circle cx="157" cy="1.5" r="1.5" fill="white" fill-opacity="0.25"/>
<circle cx="176" cy="1.5" r="1.5" fill="white" fill-opacity="0.25"/>
<circle cx="195" cy="1.5" r="1.5" fill="white" fill-opacity="0.25"/>
<circle cx="214" cy="1.5" r="1.5" fill="white" fill-opacity="0.25"/>
<circle cx="233" cy="1.5" r="1.5" fill="white" fill-opacity="0.25"/>
<circle cx="252" cy="1.5" r="1.5" fill="white" fill-opacity="0.25"/>
<circle cx="271" cy="1.5" r="1.5" fill="white" fill-opacity="0.25"/>
<circle cx="290" cy="1.5" r="1.5" fill="white" fill-opacity="0.25"/>
<circle cx="5" cy="20.5" r="1.5" fill="white" fill-opacity="0.25"/>
<circle cx="24" cy="20.5" r="1.5" fill="white" fill-opacity="0.25"/>
<circle cx="43" cy="20.5" r="1.5" fill="white" fill-opacity="0.25"/>
<circle cx="62" cy="20.5" r="1.5" fill="white" fill-opacity="0.25"/>
<circle cx="81" cy="20.5" r="1.5" fill="white" fill-opacity="0.25"/>
<circle cx="100" cy="20.5" r="1.5" fill="white" fill-opacity="0.25"/>
<circle cx="119" cy="20.5" r="1.5" fill="white" fill-opacity="0.25"/>
<circle cx="138" cy="20.5" r="1.5" fill="white" fill-opacity="0.25"/>
<circle cx="157" cy="20.5" r="1.5" fill="white" fill-opacity="0.25"/>
<circle cx="176" cy="20.5" r="1.5" fill="white" fill-opacity="0.25"/>
<circle cx="195" cy="20.5" r="1.5" fill="white"/>
<circle cx="214" cy="20.5" r="1.5" fill="white"/>
<circle cx="233" cy="20.5" r="1.5" fill="white" fill-opacity="0.25"/>
<circle cx="252" cy="20.5" r="1.5" fill="white" fill-opacity="0.25"/>
<circle cx="271" cy="20.5" r="1.5" fill="white" fill-opacity="0.25"/>
<circle cx="290" cy="20.5" r="1.5" fill="white" fill-opacity="0.25"/>
<circle cx="5" cy="39.5" r="1.5" fill="white" fill-opacity="0.25"/>
<circle cx="24" cy="39.5" r="1.5" fill="white" fill-opacity="0.25"/>
<circle cx="43" cy="39.5" r="1.5" fill="white" fill-opacity="0.25"/>
<circle cx="62" cy="39.5" r="1.5" fill="white" fill-opacity="0.25"/>
<circle cx="81" cy="39.5" r="1.5" fill="white" fill-opacity="0.25"/>
<circle cx="100" cy="39.5" r="1.5" fill="white" fill-opacity="0.25"/>
<circle cx="119" cy="39.5" r="1.5" fill="white" fill-opacity="0.25"/>
<circle cx="138" cy="39.5" r="1.5" fill="white" fill-opacity="0.25"/>
<circle cx="157" cy="39.5" r="1.5" fill="white" fill-opacity="0.25"/>
<circle cx="176" cy="39.5" r="1.5" fill="white" fill-opacity="0.25"/>
<circle cx="195" cy="39.5" r="1.5" fill="white" fill-opacity="0.25"/>
<circle cx="214" cy="39.5" r="1.5" fill="white" fill-opacity="0.25"/>
<circle cx="233" cy="39.5" r="1.5" fill="white" fill-opacity="0.25"/>
<circle cx="252" cy="39.5" r="1.5" fill="white" fill-opacity="0.25"/>
<circle cx="271" cy="39.5" r="1.5" fill="white" fill-opacity="0.25"/>
<circle cx="290" cy="39.5" r="1.5" fill="white" fill-opacity="0.25"/>
<circle cx="5" cy="58.5" r="1.5" fill="white" fill-opacity="0.25"/>
<circle cx="24" cy="58.5" r="1.5" fill="white" fill-opacity="0.25"/>
<circle cx="43" cy="58.5" r="1.5" fill="white" fill-opacity="0.25"/>
<circle cx="62" cy="58.5" r="1.5" fill="white" fill-opacity="0.25"/>
<circle cx="81" cy="58.5" r="1.5" fill="white" fill-opacity="0.25"/>
<circle cx="100" cy="58.5" r="1.5" fill="white" fill-opacity="0.25"/>
<circle cx="119" cy="58.5" r="1.5" fill="white" fill-opacity="0.25"/>
<circle cx="138" cy="58.5" r="1.5" fill="white" fill-opacity="0.25"/>
<circle cx="157" cy="58.5" r="1.5" fill="white" fill-opacity="0.25"/>
<circle cx="176" cy="58.5" r="1.5" fill="white" fill-opacity="0.25"/>
<circle cx="195" cy="58.5" r="1.5" fill="white" fill-opacity="0.25"/>
<circle cx="214" cy="58.5" r="1.5" fill="white" fill-opacity="0.25"/>
<circle cx="233" cy="58.5" r="1.5" fill="white" fill-opacity="0.25"/>
<circle cx="252" cy="58.5" r="1.5" fill="white" fill-opacity="0.25"/>
<circle cx="271" cy="58.5" r="1.5" fill="white" fill-opacity="0.25"/>
<circle cx="290" cy="58.5" r="1.5" fill="white" fill-opacity="0.25"/>
<circle cx="5" cy="77.5" r="1.5" fill="white" fill-opacity="0.25"/>
<circle cx="24" cy="77.5" r="1.5" fill="white" fill-opacity="0.25"/>
<circle cx="43" cy="77.5" r="1.5" fill="white" fill-opacity="0.25"/>
<circle cx="62" cy="77.5" r="1.5" fill="white" fill-opacity="0.25"/>
<circle cx="81" cy="77.5" r="1.5" fill="white" fill-opacity="0.25"/>
<circle cx="100" cy="77.5" r="1.5" fill="white" fill-opacity="0.25"/>
<circle cx="119" cy="77.5" r="1.5" fill="white" fill-opacity="0.25"/>
<circle cx="138" cy="77.5" r="1.5" fill="white" fill-opacity="0.25"/>
<circle cx="157" cy="77.5" r="1.5" fill="white" fill-opacity="0.25"/>
<circle cx="176" cy="77.5" r="1.5" fill="white" fill-opacity="0.25"/>
<circle cx="195" cy="77.5" r="1.5" fill="white" fill-opacity="0.25"/>
<circle cx="214" cy="77.5" r="1.5" fill="white" fill-opacity="0.25"/>
<circle cx="233" cy="77.5" r="1.5" fill="white" fill-opacity="0.25"/>
<circle cx="252" cy="77.5" r="1.5" fill="white" fill-opacity="0.25"/>
<circle cx="271" cy="77.5" r="1.5" fill="white" fill-opacity="0.25"/>
<circle cx="290" cy="77.5" r="1.5" fill="white" fill-opacity="0.25"/>
<circle cx="5" cy="96.5" r="1.5" fill="white" fill-opacity="0.25"/>
<circle cx="24" cy="96.5" r="1.5" fill="white" fill-opacity="0.25"/>
<circle cx="43" cy="96.5" r="1.5" fill="white" fill-opacity="0.25"/>
<circle cx="62" cy="96.5" r="1.5" fill="white" fill-opacity="0.25"/>
<circle cx="81" cy="96.5" r="1.5" fill="white" fill-opacity="0.25"/>
<circle cx="100" cy="96.5" r="1.5" fill="white" fill-opacity="0.25"/>
<circle cx="119" cy="96.5" r="1.5" fill="white" fill-opacity="0.25"/>
<circle cx="138" cy="96.5" r="1.5" fill="white" fill-opacity="0.25"/>
<circle cx="157" cy="96.5" r="1.5" fill="white" fill-opacity="0.25"/>
<circle cx="176" cy="96.5" r="1.5" fill="white" fill-opacity="0.25"/>
<circle cx="195" cy="96.5" r="1.5" fill="white" fill-opacity="0.25"/>
<circle cx="214" cy="96.5" r="1.5" fill="white" fill-opacity="0.25"/>
<circle cx="233" cy="96.5" r="1.5" fill="white" fill-opacity="0.25"/>
<circle cx="252" cy="96.5" r="1.5" fill="white" fill-opacity="0.25"/>
<circle cx="271" cy="96.5" r="1.5" fill="white" fill-opacity="0.25"/>
<circle cx="290" cy="96.5" r="1.5" fill="white" fill-opacity="0.25"/>
<circle cx="5" cy="115.5" r="1.5" fill="white" fill-opacity="0.25"/>
<circle cx="24" cy="115.5" r="1.5" fill="white" fill-opacity="0.25"/>
<circle cx="43" cy="115.5" r="1.5" fill="white" fill-opacity="0.25"/>
<circle cx="62" cy="115.5" r="1.5" fill="white" fill-opacity="0.25"/>
<circle cx="81" cy="115.5" r="1.5" fill="white" fill-opacity="0.25"/>
<circle cx="100" cy="115.5" r="1.5" fill="white" fill-opacity="0.25"/>
<circle cx="119" cy="115.5" r="1.5" fill="white" fill-opacity="0.25"/>
<circle cx="138" cy="115.5" r="1.5" fill="white" fill-opacity="0.25"/>
<circle cx="157" cy="115.5" r="1.5" fill="white" fill-opacity="0.25"/>
<circle cx="176" cy="115.5" r="1.5" fill="white" fill-opacity="0.25"/>
<circle cx="195" cy="115.5" r="1.5" fill="white" fill-opacity="0.25"/>
<circle cx="214" cy="115.5" r="1.5" fill="white" fill-opacity="0.25"/>
<circle cx="233" cy="115.5" r="1.5" fill="white"/>
<circle cx="252" cy="115.5" r="1.5" fill="white"/>
<circle cx="271" cy="115.5" r="1.5" fill="white" fill-opacity="0.25"/>
<circle cx="290" cy="115.5" r="1.5" fill="white" fill-opacity="0.25"/>
<circle cx="5" cy="134.5" r="1.5" fill="white" fill-opacity="0.25"/>
<circle cx="24" cy="134.5" r="1.5" fill="white" fill-opacity="0.25"/>
<circle cx="43" cy="134.5" r="1.5" fill="white" fill-opacity="0.25"/>
<circle cx="62" cy="134.5" r="1.5" fill="white" fill-opacity="0.25"/>
<circle cx="81" cy="134.5" r="1.5" fill="white" fill-opacity="0.25"/>
<circle cx="100" cy="134.5" r="1.5" fill="white" fill-opacity="0.25"/>
<circle cx="119" cy="134.5" r="1.5" fill="white" fill-opacity="0.25"/>
<circle cx="138" cy="134.5" r="1.5" fill="white" fill-opacity="0.25"/>
<circle cx="157" cy="134.5" r="1.5" fill="white" fill-opacity="0.25"/>
<circle cx="176" cy="134.5" r="1.5" fill="white" fill-opacity="0.25"/>
<circle cx="195" cy="134.5" r="1.5" fill="white" fill-opacity="0.25"/>
<circle cx="214" cy="134.5" r="1.5" fill="white" fill-opacity="0.25"/>
<circle cx="233" cy="134.5" r="1.5" fill="white" fill-opacity="0.25"/>
<circle cx="252" cy="134.5" r="1.5" fill="white" fill-opacity="0.25"/>
<circle cx="271" cy="134.5" r="1.5" fill="white" fill-opacity="0.25"/>
<circle cx="290" cy="134.5" r="1.5" fill="white" fill-opacity="0.25"/>
<circle cx="5" cy="153.5" r="1.5" fill="white" fill-opacity="0.25"/>
<circle cx="24" cy="153.5" r="1.5" fill="white"/>
<circle cx="43" cy="153.5" r="1.5" fill="white" fill-opacity="0.25"/>
<circle cx="62" cy="153.5" r="1.5" fill="white" fill-opacity="0.25"/>
<circle cx="81" cy="153.5" r="1.5" fill="white"/>
<circle cx="100" cy="153.5" r="1.5" fill="white" fill-opacity="0.25"/>
<circle cx="119" cy="153.5" r="1.5" fill="white" fill-opacity="0.25"/>
<circle cx="138" cy="153.5" r="1.5" fill="white" fill-opacity="0.25"/>
<circle cx="157" cy="153.5" r="1.5" fill="white" fill-opacity="0.25"/>
<circle cx="176" cy="153.5" r="1.5" fill="white" fill-opacity="0.25"/>
<circle cx="195" cy="153.5" r="1.5" fill="white" fill-opacity="0.25"/>
<circle cx="214" cy="153.5" r="1.5" fill="white" fill-opacity="0.25"/>
<circle cx="233" cy="153.5" r="1.5" fill="white" fill-opacity="0.25"/>
<circle cx="252" cy="153.5" r="1.5" fill="white" fill-opacity="0.25"/>
<circle cx="271" cy="153.5" r="1.5" fill="white" fill-opacity="0.25"/>
<circle cx="290" cy="153.5" r="1.5" fill="white" fill-opacity="0.25"/>
<circle cx="5" cy="172.5" r="1.5" fill="white" fill-opacity="0.25"/>
<circle cx="24" cy="172.5" r="1.5" fill="white" fill-opacity="0.25"/>
<circle cx="43" cy="172.5" r="1.5" fill="white" fill-opacity="0.25"/>
<circle cx="62" cy="172.5" r="1.5" fill="white" fill-opacity="0.25"/>
<circle cx="81" cy="172.5" r="1.5" fill="white" fill-opacity="0.25"/>
<circle cx="100" cy="172.5" r="1.5" fill="white" fill-opacity="0.25"/>
<circle cx="119" cy="172.5" r="1.5" fill="white" fill-opacity="0.25"/>
<circle cx="138" cy="172.5" r="1.5" fill="white" fill-opacity="0.25"/>
<circle cx="157" cy="172.5" r="1.5" fill="white" fill-opacity="0.25"/>
<circle cx="176" cy="172.5" r="1.5" fill="white" fill-opacity="0.25"/>
<circle cx="195" cy="172.5" r="1.5" fill="white" fill-opacity="0.25"/>
<circle cx="214" cy="172.5" r="1.5" fill="white" fill-opacity="0.25"/>
<circle cx="233" cy="172.5" r="1.5" fill="white" fill-opacity="0.25"/>
<circle cx="252" cy="172.5" r="1.5" fill="white"/>
<circle cx="271" cy="172.5" r="1.5" fill="white" fill-opacity="0.25"/>
<circle cx="290" cy="172.5" r="1.5" fill="white" fill-opacity="0.25"/>
<circle cx="5" cy="191.5" r="1.5" fill="white" fill-opacity="0.25"/>
<circle cx="24" cy="191.5" r="1.5" fill="white" fill-opacity="0.25"/>
<circle cx="43" cy="191.5" r="1.5" fill="white" fill-opacity="0.25"/>
<circle cx="62" cy="191.5" r="1.5" fill="white" fill-opacity="0.25"/>
<circle cx="81" cy="191.5" r="1.5" fill="white" fill-opacity="0.25"/>
<circle cx="100" cy="191.5" r="1.5" fill="white" fill-opacity="0.25"/>
<circle cx="119" cy="191.5" r="1.5" fill="white" fill-opacity="0.25"/>
<circle cx="138" cy="191.5" r="1.5" fill="white" fill-opacity="0.25"/>
<circle cx="157" cy="191.5" r="1.5" fill="white" fill-opacity="0.25"/>
<circle cx="176" cy="191.5" r="1.5" fill="white" fill-opacity="0.25"/>
<circle cx="195" cy="191.5" r="1.5" fill="white" fill-opacity="0.25"/>
<circle cx="214" cy="191.5" r="1.5" fill="white" fill-opacity="0.25"/>
<circle cx="233" cy="191.5" r="1.5" fill="white" fill-opacity="0.25"/>
<circle cx="252" cy="191.5" r="1.5" fill="white" fill-opacity="0.25"/>
<circle cx="271" cy="191.5" r="1.5" fill="white" fill-opacity="0.25"/>
<circle cx="290" cy="191.5" r="1.5" fill="white" fill-opacity="0.25"/>
<circle cx="5" cy="210.5" r="1.5" fill="white" fill-opacity="0.25"/>
<circle cx="24" cy="210.5" r="1.5" fill="white" fill-opacity="0.25"/>
<circle cx="43" cy="210.5" r="1.5" fill="white" fill-opacity="0.25"/>
<circle cx="62" cy="210.5" r="1.5" fill="white"/>
<circle cx="81" cy="210.5" r="1.5" fill="white"/>
<circle cx="100" cy="210.5" r="1.5" fill="white" fill-opacity="0.25"/>
<circle cx="119" cy="210.5" r="1.5" fill="white" fill-opacity="0.25"/>
<circle cx="138" cy="210.5" r="1.5" fill="white" fill-opacity="0.25"/>
<circle cx="157" cy="210.5" r="1.5" fill="white" fill-opacity="0.25"/>
<circle cx="176" cy="210.5" r="1.5" fill="white" fill-opacity="0.25"/>
<circle cx="195" cy="210.5" r="1.5" fill="white" fill-opacity="0.25"/>
<circle cx="214" cy="210.5" r="1.5" fill="white" fill-opacity="0.25"/>
<circle cx="233" cy="210.5" r="1.5" fill="white" fill-opacity="0.25"/>
<circle cx="252" cy="210.5" r="1.5" fill="white" fill-opacity="0.25"/>
<circle cx="271" cy="210.5" r="1.5" fill="white" fill-opacity="0.25"/>
<circle cx="290" cy="210.5" r="1.5" fill="white"/>
<circle cx="5" cy="229.5" r="1.5" fill="white" fill-opacity="0.25"/>
<circle cx="24" cy="229.5" r="1.5" fill="white" fill-opacity="0.25"/>
<circle cx="43" cy="229.5" r="1.5" fill="white" fill-opacity="0.25"/>
<circle cx="62" cy="229.5" r="1.5" fill="white" fill-opacity="0.25"/>
<circle cx="81" cy="229.5" r="1.5" fill="white" fill-opacity="0.25"/>
<circle cx="100" cy="229.5" r="1.5" fill="white" fill-opacity="0.25"/>
<circle cx="119" cy="229.5" r="1.5" fill="white" fill-opacity="0.25"/>
<circle cx="138" cy="229.5" r="1.5" fill="white" fill-opacity="0.25"/>
<circle cx="157" cy="229.5" r="1.5" fill="white" fill-opacity="0.25"/>
<circle cx="176" cy="229.5" r="1.5" fill="white" fill-opacity="0.25"/>
<circle cx="195" cy="229.5" r="1.5" fill="white" fill-opacity="0.25"/>
<circle cx="214" cy="229.5" r="1.5" fill="white" fill-opacity="0.25"/>
<circle cx="233" cy="229.5" r="1.5" fill="white" fill-opacity="0.25"/>
<circle cx="252" cy="229.5" r="1.5" fill="white" fill-opacity="0.25"/>
<circle cx="271" cy="229.5" r="1.5" fill="white" fill-opacity="0.25"/>
<circle cx="290" cy="229.5" r="1.5" fill="white" fill-opacity="0.25"/>
<circle cx="5" cy="248.5" r="1.5" fill="white" fill-opacity="0.25"/>
<circle cx="24" cy="248.5" r="1.5" fill="white"/>
<circle cx="43" cy="248.5" r="1.5" fill="white" fill-opacity="0.25"/>
<circle cx="62" cy="248.5" r="1.5" fill="white" fill-opacity="0.25"/>
<circle cx="81" cy="248.5" r="1.5" fill="white"/>
<circle cx="100" cy="248.5" r="1.5" fill="white" fill-opacity="0.25"/>
<circle cx="119" cy="248.5" r="1.5" fill="white" fill-opacity="0.25"/>
<circle cx="138" cy="248.5" r="1.5" fill="white" fill-opacity="0.25"/>
<circle cx="157" cy="248.5" r="1.5" fill="white" fill-opacity="0.25"/>
<circle cx="176" cy="248.5" r="1.5" fill="white" fill-opacity="0.25"/>
<circle cx="195" cy="248.5" r="1.5" fill="white" fill-opacity="0.25"/>
<circle cx="214" cy="248.5" r="1.5" fill="white" fill-opacity="0.25"/>
<circle cx="233" cy="248.5" r="1.5" fill="white" fill-opacity="0.25"/>
<circle cx="252" cy="248.5" r="1.5" fill="white" fill-opacity="0.25"/>
<circle cx="271" cy="248.5" r="1.5" fill="white" fill-opacity="0.25"/>
<circle cx="290" cy="248.5" r="1.5" fill="white" fill-opacity="0.25"/>
<circle cx="5" cy="267.5" r="1.5" fill="white" fill-opacity="0.25"/>
<circle cx="24" cy="267.5" r="1.5" fill="white" fill-opacity="0.25"/>
<circle cx="43" cy="267.5" r="1.5" fill="white" fill-opacity="0.25"/>
<circle cx="62" cy="267.5" r="1.5" fill="white" fill-opacity="0.25"/>
<circle cx="81" cy="267.5" r="1.5" fill="white" fill-opacity="0.25"/>
<circle cx="100" cy="267.5" r="1.5" fill="white" fill-opacity="0.25"/>
<circle cx="119" cy="267.5" r="1.5" fill="white" fill-opacity="0.25"/>
<circle cx="138" cy="267.5" r="1.5" fill="white" fill-opacity="0.25"/>
<circle cx="157" cy="267.5" r="1.5" fill="white" fill-opacity="0.25"/>
<circle cx="176" cy="267.5" r="1.5" fill="white" fill-opacity="0.25"/>
<circle cx="195" cy="267.5" r="1.5" fill="white" fill-opacity="0.25"/>
<circle cx="214" cy="267.5" r="1.5" fill="white" fill-opacity="0.25"/>
<circle cx="233" cy="267.5" r="1.5" fill="white" fill-opacity="0.25"/>
<circle cx="252" cy="267.5" r="1.5" fill="white" fill-opacity="0.25"/>
<circle cx="271" cy="267.5" r="1.5" fill="white" fill-opacity="0.25"/>
<circle cx="290" cy="267.5" r="1.5" fill="white" fill-opacity="0.25"/>
<circle cx="5" cy="286.5" r="1.5" fill="white" fill-opacity="0.25"/>
<circle cx="24" cy="286.5" r="1.5" fill="white" fill-opacity="0.25"/>
<circle cx="43" cy="286.5" r="1.5" fill="white" fill-opacity="0.25"/>
<circle cx="62" cy="286.5" r="1.5" fill="white" fill-opacity="0.25"/>
<circle cx="81" cy="286.5" r="1.5" fill="white" fill-opacity="0.25"/>
<circle cx="100" cy="286.5" r="1.5" fill="white" fill-opacity="0.25"/>
<circle cx="119" cy="286.5" r="1.5" fill="white" fill-opacity="0.25"/>
<circle cx="138" cy="286.5" r="1.5" fill="white" fill-opacity="0.25"/>
<circle cx="157" cy="286.5" r="1.5" fill="white" fill-opacity="0.25"/>
<circle cx="176" cy="286.5" r="1.5" fill="white" fill-opacity="0.25"/>
<circle cx="195" cy="286.5" r="1.5" fill="white" fill-opacity="0.25"/>
<circle cx="214" cy="286.5" r="1.5" fill="white" fill-opacity="0.25"/>
<circle cx="233" cy="286.5" r="1.5" fill="white" fill-opacity="0.25"/>
<circle cx="252" cy="286.5" r="1.5" fill="white" fill-opacity="0.25"/>
<circle cx="271" cy="286.5" r="1.5" fill="white" fill-opacity="0.25"/>
<circle cx="290" cy="286.5" r="1.5" fill="white" fill-opacity="0.25"/>
<circle cx="5" cy="305.5" r="1.5" fill="white" fill-opacity="0.25"/>
<circle cx="24" cy="305.5" r="1.5" fill="white" fill-opacity="0.25"/>
<circle cx="43" cy="305.5" r="1.5" fill="white" fill-opacity="0.25"/>
<circle cx="62" cy="305.5" r="1.5" fill="white" fill-opacity="0.25"/>
<circle cx="81" cy="305.5" r="1.5" fill="white" fill-opacity="0.25"/>
<circle cx="100" cy="305.5" r="1.5" fill="white" fill-opacity="0.25"/>
<circle cx="119" cy="305.5" r="1.5" fill="white" fill-opacity="0.25"/>
<circle cx="138" cy="305.5" r="1.5" fill="white" fill-opacity="0.25"/>
<circle cx="157" cy="305.5" r="1.5" fill="white" fill-opacity="0.25"/>
<circle cx="176" cy="305.5" r="1.5" fill="white" fill-opacity="0.25"/>
<circle cx="195" cy="305.5" r="1.5" fill="white" fill-opacity="0.25"/>
<circle cx="214" cy="305.5" r="1.5" fill="white" fill-opacity="0.25"/>
<circle cx="233" cy="305.5" r="1.5" fill="white" fill-opacity="0.25"/>
<circle cx="252" cy="305.5" r="1.5" fill="white" fill-opacity="0.25"/>
<circle cx="271" cy="305.5" r="1.5" fill="white" fill-opacity="0.25"/>
<circle cx="290" cy="305.5" r="1.5" fill="white" fill-opacity="0.25"/>
<circle cx="5" cy="324.5" r="1.5" fill="white" fill-opacity="0.25"/>
<circle cx="24" cy="324.5" r="1.5" fill="white" fill-opacity="0.25"/>
<circle cx="43" cy="324.5" r="1.5" fill="white" fill-opacity="0.25"/>
<circle cx="62" cy="324.5" r="1.5" fill="white" fill-opacity="0.25"/>
<circle cx="81" cy="324.5" r="1.5" fill="white" fill-opacity="0.25"/>
<circle cx="100" cy="324.5" r="1.5" fill="white" fill-opacity="0.25"/>
<circle cx="119" cy="324.5" r="1.5" fill="white" fill-opacity="0.25"/>
<circle cx="138" cy="324.5" r="1.5" fill="white" fill-opacity="0.25"/>
<circle cx="157" cy="324.5" r="1.5" fill="white" fill-opacity="0.25"/>
<circle cx="176" cy="324.5" r="1.5" fill="white" fill-opacity="0.25"/>
<circle cx="195" cy="324.5" r="1.5" fill="white" fill-opacity="0.25"/>
<circle cx="214" cy="324.5" r="1.5" fill="white" fill-opacity="0.25"/>
<circle cx="233" cy="324.5" r="1.5" fill="white" fill-opacity="0.25"/>
<circle cx="252" cy="324.5" r="1.5" fill="white" fill-opacity="0.25"/>
<circle cx="271" cy="324.5" r="1.5" fill="white" fill-opacity="0.25"/>
<circle cx="290" cy="324.5" r="1.5" fill="white" fill-opacity="0.25"/>
<circle cx="5" cy="343.5" r="1.5" fill="white" fill-opacity="0.25"/>
<circle cx="24" cy="343.5" r="1.5" fill="white" fill-opacity="0.25"/>
<circle cx="43" cy="343.5" r="1.5" fill="white" fill-opacity="0.25"/>
<circle cx="62" cy="343.5" r="1.5" fill="white" fill-opacity="0.25"/>
<circle cx="81" cy="343.5" r="1.5" fill="white" fill-opacity="0.25"/>
<circle cx="100" cy="343.5" r="1.5" fill="white" fill-opacity="0.25"/>
<circle cx="119" cy="343.5" r="1.5" fill="white" fill-opacity="0.25"/>
<circle cx="138" cy="343.5" r="1.5" fill="white" fill-opacity="0.25"/>
<circle cx="157" cy="343.5" r="1.5" fill="white"/>
<circle cx="176" cy="343.5" r="1.5" fill="white" fill-opacity="0.25"/>
<circle cx="195" cy="343.5" r="1.5" fill="white" fill-opacity="0.25"/>
<circle cx="214" cy="343.5" r="1.5" fill="white" fill-opacity="0.25"/>
<circle cx="233" cy="343.5" r="1.5" fill="white" fill-opacity="0.25"/>
<circle cx="252" cy="343.5" r="1.5" fill="white" fill-opacity="0.25"/>
<circle cx="271" cy="343.5" r="1.5" fill="white" fill-opacity="0.25"/>
<circle cx="290" cy="343.5" r="1.5" fill="white" fill-opacity="0.25"/>
<circle cx="5" cy="362.5" r="1.5" fill="white" fill-opacity="0.25"/>
<circle cx="24" cy="362.5" r="1.5" fill="white" fill-opacity="0.25"/>
<circle cx="43" cy="362.5" r="1.5" fill="white" fill-opacity="0.25"/>
<circle cx="62" cy="362.5" r="1.5" fill="white" fill-opacity="0.25"/>
<circle cx="81" cy="362.5" r="1.5" fill="white" fill-opacity="0.25"/>
<circle cx="100" cy="362.5" r="1.5" fill="white" fill-opacity="0.25"/>
<circle cx="119" cy="362.5" r="1.5" fill="white" fill-opacity="0.25"/>
<circle cx="138" cy="362.5" r="1.5" fill="white" fill-opacity="0.25"/>
<circle cx="157" cy="362.5" r="1.5" fill="white" fill-opacity="0.25"/>
<circle cx="176" cy="362.5" r="1.5" fill="white" fill-opacity="0.25"/>
<circle cx="195" cy="362.5" r="1.5" fill="white" fill-opacity="0.25"/>
<circle cx="214" cy="362.5" r="1.5" fill="white" fill-opacity="0.25"/>
<circle cx="233" cy="362.5" r="1.5" fill="white" fill-opacity="0.25"/>
<circle cx="252" cy="362.5" r="1.5" fill="white" fill-opacity="0.25"/>
<circle cx="271" cy="362.5" r="1.5" fill="white" fill-opacity="0.25"/>
<circle cx="290" cy="362.5" r="1.5" fill="white" fill-opacity="0.25"/>
<circle cx="5" cy="381.5" r="1.5" fill="white" fill-opacity="0.25"/>
<circle cx="24" cy="381.5" r="1.5" fill="white" fill-opacity="0.25"/>
<circle cx="43" cy="381.5" r="1.5" fill="white" fill-opacity="0.25"/>
<circle cx="62" cy="381.5" r="1.5" fill="white" fill-opacity="0.25"/>
<circle cx="81" cy="381.5" r="1.5" fill="white" fill-opacity="0.25"/>
<circle cx="100" cy="381.5" r="1.5" fill="white" fill-opacity="0.25"/>
<circle cx="119" cy="381.5" r="1.5" fill="white" fill-opacity="0.25"/>
<circle cx="138" cy="381.5" r="1.5" fill="white" fill-opacity="0.25"/>
<circle cx="157" cy="381.5" r="1.5" fill="white" fill-opacity="0.25"/>
<circle cx="176" cy="381.5" r="1.5" fill="white" fill-opacity="0.25"/>
<circle cx="195" cy="381.5" r="1.5" fill="white" fill-opacity="0.25"/>
<circle cx="214" cy="381.5" r="1.5" fill="white" fill-opacity="0.25"/>
<circle cx="233" cy="381.5" r="1.5" fill="white" fill-opacity="0.25"/>
<circle cx="252" cy="381.5" r="1.5" fill="white" fill-opacity="0.25"/>
<circle cx="271" cy="381.5" r="1.5" fill="white" fill-opacity="0.25"/>
<circle cx="290" cy="381.5" r="1.5" fill="white" fill-opacity="0.25"/>
<circle cx="5" cy="400.5" r="1.5" fill="white" fill-opacity="0.25"/>
<circle cx="24" cy="400.5" r="1.5" fill="white" fill-opacity="0.25"/>
<circle cx="43" cy="400.5" r="1.5" fill="white" fill-opacity="0.25"/>
<circle cx="62" cy="400.5" r="1.5" fill="white" fill-opacity="0.25"/>
<circle cx="81" cy="400.5" r="1.5" fill="white" fill-opacity="0.25"/>
<circle cx="100" cy="400.5" r="1.5" fill="white" fill-opacity="0.25"/>
<circle cx="119" cy="400.5" r="1.5" fill="white" fill-opacity="0.25"/>
<circle cx="138" cy="400.5" r="1.5" fill="white" fill-opacity="0.25"/>
<circle cx="157" cy="400.5" r="1.5" fill="white" fill-opacity="0.25"/>
<circle cx="176" cy="400.5" r="1.5" fill="white" fill-opacity="0.25"/>
<circle cx="195" cy="400.5" r="1.5" fill="white" fill-opacity="0.25"/>
<circle cx="214" cy="400.5" r="1.5" fill="white" fill-opacity="0.25"/>
<circle cx="233" cy="400.5" r="1.5" fill="white" fill-opacity="0.25"/>
<circle cx="252" cy="400.5" r="1.5" fill="white" fill-opacity="0.25"/>
<circle cx="271" cy="400.5" r="1.5" fill="white" fill-opacity="0.25"/>
<circle cx="290" cy="400.5" r="1.5" fill="white" fill-opacity="0.25"/>
<circle cx="5" cy="419.5" r="1.5" fill="white" fill-opacity="0.25"/>
<circle cx="24" cy="419.5" r="1.5" fill="white" fill-opacity="0.25"/>
<circle cx="43" cy="419.5" r="1.5" fill="white" fill-opacity="0.25"/>
<circle cx="62" cy="419.5" r="1.5" fill="white" fill-opacity="0.25"/>
<circle cx="81" cy="419.5" r="1.5" fill="white" fill-opacity="0.25"/>
<circle cx="100" cy="419.5" r="1.5" fill="white" fill-opacity="0.25"/>
<circle cx="119" cy="419.5" r="1.5" fill="white" fill-opacity="0.25"/>
<circle cx="138" cy="419.5" r="1.5" fill="white" fill-opacity="0.25"/>
<circle cx="157" cy="419.5" r="1.5" fill="white" fill-opacity="0.25"/>
<circle cx="176" cy="419.5" r="1.5" fill="white" fill-opacity="0.25"/>
<circle cx="195" cy="419.5" r="1.5" fill="white" fill-opacity="0.25"/>
<circle cx="214" cy="419.5" r="1.5" fill="white" fill-opacity="0.25"/>
<circle cx="233" cy="419.5" r="1.5" fill="white" fill-opacity="0.25"/>
<circle cx="252" cy="419.5" r="1.5" fill="white" fill-opacity="0.25"/>
<circle cx="271" cy="419.5" r="1.5" fill="white" fill-opacity="0.25"/>
<circle cx="290" cy="419.5" r="1.5" fill="white" fill-opacity="0.25"/>
<circle cx="5" cy="438.5" r="1.5" fill="white" fill-opacity="0.25"/>
<circle cx="24" cy="438.5" r="1.5" fill="white" fill-opacity="0.25"/>
<circle cx="43" cy="438.5" r="1.5" fill="white" fill-opacity="0.25"/>
<circle cx="62" cy="438.5" r="1.5" fill="white" fill-opacity="0.25"/>
<circle cx="81" cy="438.5" r="1.5" fill="white" fill-opacity="0.25"/>
<circle cx="100" cy="438.5" r="1.5" fill="white" fill-opacity="0.25"/>
<circle cx="119" cy="438.5" r="1.5" fill="white" fill-opacity="0.25"/>
<circle cx="138" cy="438.5" r="1.5" fill="white" fill-opacity="0.25"/>
<circle cx="157" cy="438.5" r="1.5" fill="white" fill-opacity="0.25"/>
<circle cx="176" cy="438.5" r="1.5" fill="white" fill-opacity="0.25"/>
<circle cx="195" cy="438.5" r="1.5" fill="white" fill-opacity="0.25"/>
<circle cx="214" cy="438.5" r="1.5" fill="white" fill-opacity="0.25"/>
<circle cx="233" cy="438.5" r="1.5" fill="white" fill-opacity="0.25"/>
<circle cx="252" cy="438.5" r="1.5" fill="white" fill-opacity="0.25"/>
<circle cx="271" cy="438.5" r="1.5" fill="white" fill-opacity="0.25"/>
<circle cx="290" cy="438.5" r="1.5" fill="white" fill-opacity="0.25"/>
<circle cx="5" cy="457.5" r="1.5" fill="white" fill-opacity="0.25"/>
<circle cx="24" cy="457.5" r="1.5" fill="white" fill-opacity="0.25"/>
<circle cx="43" cy="457.5" r="1.5" fill="white" fill-opacity="0.25"/>
<circle cx="62" cy="457.5" r="1.5" fill="white" fill-opacity="0.25"/>
<circle cx="81" cy="457.5" r="1.5" fill="white" fill-opacity="0.25"/>
<circle cx="100" cy="457.5" r="1.5" fill="white" fill-opacity="0.25"/>
<circle cx="119" cy="457.5" r="1.5" fill="white" fill-opacity="0.25"/>
<circle cx="138" cy="457.5" r="1.5" fill="white" fill-opacity="0.25"/>
<circle cx="157" cy="457.5" r="1.5" fill="white" fill-opacity="0.25"/>
<circle cx="176" cy="457.5" r="1.5" fill="white" fill-opacity="0.25"/>
<circle cx="195" cy="457.5" r="1.5" fill="white" fill-opacity="0.25"/>
<circle cx="214" cy="457.5" r="1.5" fill="white" fill-opacity="0.25"/>
<circle cx="233" cy="457.5" r="1.5" fill="white" fill-opacity="0.25"/>
<circle cx="252" cy="457.5" r="1.5" fill="white" fill-opacity="0.25"/>
<circle cx="271" cy="457.5" r="1.5" fill="white" fill-opacity="0.25"/>
<circle cx="290" cy="457.5" r="1.5" fill="white" fill-opacity="0.25"/>
<circle cx="5" cy="476.5" r="1.5" fill="white" fill-opacity="0.25"/>
<circle cx="24" cy="476.5" r="1.5" fill="white" fill-opacity="0.25"/>
<circle cx="43" cy="476.5" r="1.5" fill="white" fill-opacity="0.25"/>
<circle cx="62" cy="476.5" r="1.5" fill="white" fill-opacity="0.25"/>
<circle cx="81" cy="476.5" r="1.5" fill="white" fill-opacity="0.25"/>
<circle cx="100" cy="476.5" r="1.5" fill="white" fill-opacity="0.25"/>
<circle cx="119" cy="476.5" r="1.5" fill="white" fill-opacity="0.25"/>
<circle cx="138" cy="476.5" r="1.5" fill="white" fill-opacity="0.25"/>
<circle cx="157" cy="476.5" r="1.5" fill="white" fill-opacity="0.25"/>
<circle cx="176" cy="476.5" r="1.5" fill="white" fill-opacity="0.25"/>
<circle cx="195" cy="476.5" r="1.5" fill="white" fill-opacity="0.25"/>
<circle cx="214" cy="476.5" r="1.5" fill="white" fill-opacity="0.25"/>
<circle cx="233" cy="476.5" r="1.5" fill="white" fill-opacity="0.25"/>
<circle cx="252" cy="476.5" r="1.5" fill="white" fill-opacity="0.25"/>
<circle cx="271" cy="476.5" r="1.5" fill="white" fill-opacity="0.25"/>
<circle cx="290" cy="476.5" r="1.5" fill="white" fill-opacity="0.25"/>
<circle cx="5" cy="495.5" r="1.5" fill="white" fill-opacity="0.25"/>
<circle cx="24" cy="495.5" r="1.5" fill="white" fill-opacity="0.25"/>
<circle cx="43" cy="495.5" r="1.5" fill="white" fill-opacity="0.25"/>
<circle cx="62" cy="495.5" r="1.5" fill="white" fill-opacity="0.25"/>
<circle cx="81" cy="495.5" r="1.5" fill="white" fill-opacity="0.25"/>
<circle cx="100" cy="495.5" r="1.5" fill="white" fill-opacity="0.25"/>
<circle cx="119" cy="495.5" r="1.5" fill="white" fill-opacity="0.25"/>
<circle cx="138" cy="495.5" r="1.5" fill="white" fill-opacity="0.25"/>
<circle cx="157" cy="495.5" r="1.5" fill="white" fill-opacity="0.25"/>
<circle cx="176" cy="495.5" r="1.5" fill="white"/>
<circle cx="195" cy="495.5" r="1.5" fill="white"/>
<circle cx="214" cy="495.5" r="1.5" fill="white" fill-opacity="0.25"/>
<circle cx="233" cy="495.5" r="1.5" fill="white" fill-opacity="0.25"/>
<circle cx="252" cy="495.5" r="1.5" fill="white" fill-opacity="0.25"/>
<circle cx="271" cy="495.5" r="1.5" fill="white" fill-opacity="0.25"/>
<circle cx="290" cy="495.5" r="1.5" fill="white" fill-opacity="0.25"/>
<circle cx="5" cy="514.5" r="1.5" fill="white" fill-opacity="0.25"/>
<circle cx="24" cy="514.5" r="1.5" fill="white" fill-opacity="0.25"/>
<circle cx="43" cy="514.5" r="1.5" fill="white" fill-opacity="0.25"/>
<circle cx="62" cy="514.5" r="1.5" fill="white" fill-opacity="0.25"/>
<circle cx="81" cy="514.5" r="1.5" fill="white" fill-opacity="0.25"/>
<circle cx="100" cy="514.5" r="1.5" fill="white" fill-opacity="0.25"/>
<circle cx="119" cy="514.5" r="1.5" fill="white" fill-opacity="0.25"/>
<circle cx="138" cy="514.5" r="1.5" fill="white" fill-opacity="0.25"/>
<circle cx="157" cy="514.5" r="1.5" fill="white" fill-opacity="0.25"/>
<circle cx="176" cy="514.5" r="1.5" fill="white" fill-opacity="0.25"/>
<circle cx="195" cy="514.5" r="1.5" fill="white" fill-opacity="0.25"/>
<circle cx="214" cy="514.5" r="1.5" fill="white" fill-opacity="0.25"/>
<circle cx="233" cy="514.5" r="1.5" fill="white" fill-opacity="0.25"/>
<circle cx="252" cy="514.5" r="1.5" fill="white" fill-opacity="0.25"/>
<circle cx="271" cy="514.5" r="1.5" fill="white" fill-opacity="0.25"/>
<circle cx="290" cy="514.5" r="1.5" fill="white" fill-opacity="0.25"/>
<circle cx="5" cy="533.5" r="1.5" fill="white" fill-opacity="0.25"/>
<circle cx="24" cy="533.5" r="1.5" fill="white" fill-opacity="0.25"/>
<circle cx="43" cy="533.5" r="1.5" fill="white" fill-opacity="0.25"/>
<circle cx="62" cy="533.5" r="1.5" fill="white" fill-opacity="0.25"/>
<circle cx="81" cy="533.5" r="1.5" fill="white" fill-opacity="0.25"/>
<circle cx="100" cy="533.5" r="1.5" fill="white"/>
<circle cx="119" cy="533.5" r="1.5" fill="white" fill-opacity="0.25"/>
<circle cx="138" cy="533.5" r="1.5" fill="white" fill-opacity="0.25"/>
<circle cx="157" cy="533.5" r="1.5" fill="white" fill-opacity="0.25"/>
<circle cx="176" cy="533.5" r="1.5" fill="white" fill-opacity="0.25"/>
<circle cx="195" cy="533.5" r="1.5" fill="white" fill-opacity="0.25"/>
<circle cx="214" cy="533.5" r="1.5" fill="white" fill-opacity="0.25"/>
<circle cx="233" cy="533.5" r="1.5" fill="white" fill-opacity="0.25"/>
<circle cx="252" cy="533.5" r="1.5" fill="white" fill-opacity="0.25"/>
<circle cx="271" cy="533.5" r="1.5" fill="white" fill-opacity="0.25"/>
<circle cx="290" cy="533.5" r="1.5" fill="white" fill-opacity="0.25"/>
<circle cx="5" cy="552.5" r="1.5" fill="white" fill-opacity="0.25"/>
<circle cx="24" cy="552.5" r="1.5" fill="white" fill-opacity="0.25"/>
<circle cx="43" cy="552.5" r="1.5" fill="white" fill-opacity="0.25"/>
<circle cx="62" cy="552.5" r="1.5" fill="white" fill-opacity="0.25"/>
<circle cx="81" cy="552.5" r="1.5" fill="white" fill-opacity="0.25"/>
<circle cx="100" cy="552.5" r="1.5" fill="white" fill-opacity="0.25"/>
<circle cx="119" cy="552.5" r="1.5" fill="white" fill-opacity="0.25"/>
<circle cx="138" cy="552.5" r="1.5" fill="white" fill-opacity="0.25"/>
<circle cx="157" cy="552.5" r="1.5" fill="white" fill-opacity="0.25"/>
<circle cx="176" cy="552.5" r="1.5" fill="white" fill-opacity="0.25"/>
<circle cx="195" cy="552.5" r="1.5" fill="white" fill-opacity="0.25"/>
<circle cx="214" cy="552.5" r="1.5" fill="white" fill-opacity="0.25"/>
<circle cx="233" cy="552.5" r="1.5" fill="white" fill-opacity="0.25"/>
<circle cx="252" cy="552.5" r="1.5" fill="white" fill-opacity="0.25"/>
<circle cx="271" cy="552.5" r="1.5" fill="white" fill-opacity="0.25"/>
<circle cx="290" cy="552.5" r="1.5" fill="white" fill-opacity="0.25"/>
<circle cx="5" cy="571.5" r="1.5" fill="white" fill-opacity="0.25"/>
<circle cx="24" cy="571.5" r="1.5" fill="white" fill-opacity="0.25"/>
<circle cx="43" cy="571.5" r="1.5" fill="white" fill-opacity="0.25"/>
<circle cx="62" cy="571.5" r="1.5" fill="white" fill-opacity="0.25"/>
<circle cx="81" cy="571.5" r="1.5" fill="white" fill-opacity="0.25"/>
<circle cx="100" cy="571.5" r="1.5" fill="white" fill-opacity="0.25"/>
<circle cx="119" cy="571.5" r="1.5" fill="white" fill-opacity="0.25"/>
<circle cx="138" cy="571.5" r="1.5" fill="white" fill-opacity="0.25"/>
<circle cx="157" cy="571.5" r="1.5" fill="white" fill-opacity="0.25"/>
<circle cx="176" cy="571.5" r="1.5" fill="white" fill-opacity="0.25"/>
<circle cx="195" cy="571.5" r="1.5" fill="white" fill-opacity="0.25"/>
<circle cx="214" cy="571.5" r="1.5" fill="white" fill-opacity="0.25"/>
<circle cx="233" cy="571.5" r="1.5" fill="white" fill-opacity="0.25"/>
<circle cx="252" cy="571.5" r="1.5" fill="white" fill-opacity="0.25"/>
<circle cx="271" cy="571.5" r="1.5" fill="white" fill-opacity="0.25"/>
<circle cx="290" cy="571.5" r="1.5" fill="white" fill-opacity="0.25"/>
<circle cx="5" cy="590.5" r="1.5" fill="white" fill-opacity="0.25"/>
<circle cx="24" cy="590.5" r="1.5" fill="white" fill-opacity="0.25"/>
<circle cx="43" cy="590.5" r="1.5" fill="white" fill-opacity="0.25"/>
<circle cx="62" cy="590.5" r="1.5" fill="white" fill-opacity="0.25"/>
<circle cx="81" cy="590.5" r="1.5" fill="white" fill-opacity="0.25"/>
<circle cx="100" cy="590.5" r="1.5" fill="white" fill-opacity="0.25"/>
<circle cx="119" cy="590.5" r="1.5" fill="white" fill-opacity="0.25"/>
<circle cx="138" cy="590.5" r="1.5" fill="white" fill-opacity="0.25"/>
<circle cx="157" cy="590.5" r="1.5" fill="white" fill-opacity="0.25"/>
<circle cx="176" cy="590.5" r="1.5" fill="white" fill-opacity="0.25"/>
<circle cx="195" cy="590.5" r="1.5" fill="white" fill-opacity="0.25"/>
<circle cx="214" cy="590.5" r="1.5" fill="white" fill-opacity="0.25"/>
<circle cx="233" cy="590.5" r="1.5" fill="white" fill-opacity="0.25"/>
<circle cx="252" cy="590.5" r="1.5" fill="white" fill-opacity="0.25"/>
<circle cx="271" cy="590.5" r="1.5" fill="white" fill-opacity="0.25"/>
<circle cx="290" cy="590.5" r="1.5" fill="white" fill-opacity="0.25"/>
<circle cx="5" cy="609.5" r="1.5" fill="white" fill-opacity="0.25"/>
<circle cx="24" cy="609.5" r="1.5" fill="white" fill-opacity="0.25"/>
<circle cx="43" cy="609.5" r="1.5" fill="white" fill-opacity="0.25"/>
<circle cx="62" cy="609.5" r="1.5" fill="white" fill-opacity="0.25"/>
<circle cx="81" cy="609.5" r="1.5" fill="white" fill-opacity="0.25"/>
<circle cx="100" cy="609.5" r="1.5" fill="white" fill-opacity="0.25"/>
<circle cx="119" cy="609.5" r="1.5" fill="white" fill-opacity="0.25"/>
<circle cx="138" cy="609.5" r="1.5" fill="white" fill-opacity="0.25"/>
<circle cx="157" cy="609.5" r="1.5" fill="white" fill-opacity="0.25"/>
<circle cx="176" cy="609.5" r="1.5" fill="white" fill-opacity="0.25"/>
<circle cx="195" cy="609.5" r="1.5" fill="white" fill-opacity="0.25"/>
<circle cx="214" cy="609.5" r="1.5" fill="white" fill-opacity="0.25"/>
<circle cx="233" cy="609.5" r="1.5" fill="white" fill-opacity="0.25"/>
<circle cx="252" cy="609.5" r="1.5" fill="white" fill-opacity="0.25"/>
<circle cx="271" cy="609.5" r="1.5" fill="white" fill-opacity="0.25"/>
<circle cx="290" cy="609.5" r="1.5" fill="white" fill-opacity="0.25"/>
<circle cx="5" cy="628.5" r="1.5" fill="white" fill-opacity="0.25"/>
<circle cx="24" cy="628.5" r="1.5" fill="white" fill-opacity="0.25"/>
<circle cx="43" cy="628.5" r="1.5" fill="white" fill-opacity="0.25"/>
<circle cx="62" cy="628.5" r="1.5" fill="white" fill-opacity="0.25"/>
<circle cx="81" cy="628.5" r="1.5" fill="white" fill-opacity="0.25"/>
<circle cx="100" cy="628.5" r="1.5" fill="white" fill-opacity="0.25"/>
<circle cx="119" cy="628.5" r="1.5" fill="white"/>
<circle cx="138" cy="628.5" r="1.5" fill="white" fill-opacity="0.25"/>
<circle cx="157" cy="628.5" r="1.5" fill="white" fill-opacity="0.25"/>
<circle cx="176" cy="628.5" r="1.5" fill="white" fill-opacity="0.25"/>
<circle cx="195" cy="628.5" r="1.5" fill="white" fill-opacity="0.25"/>
<circle cx="214" cy="628.5" r="1.5" fill="white" fill-opacity="0.25"/>
<circle cx="233" cy="628.5" r="1.5" fill="white" fill-opacity="0.25"/>
<circle cx="252" cy="628.5" r="1.5" fill="white" fill-opacity="0.25"/>
<circle cx="271" cy="628.5" r="1.5" fill="white" fill-opacity="0.25"/>
<circle cx="290" cy="628.5" r="1.5" fill="white" fill-opacity="0.25"/>
<circle cx="5" cy="647.5" r="1.5" fill="white" fill-opacity="0.25"/>
<circle cx="24" cy="647.5" r="1.5" fill="white" fill-opacity="0.25"/>
<circle cx="43" cy="647.5" r="1.5" fill="white" fill-opacity="0.25"/>
<circle cx="62" cy="647.5" r="1.5" fill="white" fill-opacity="0.25"/>
<circle cx="81" cy="647.5" r="1.5" fill="white" fill-opacity="0.25"/>
<circle cx="100" cy="647.5" r="1.5" fill="white" fill-opacity="0.25"/>
<circle cx="119" cy="647.5" r="1.5" fill="white" fill-opacity="0.25"/>
<circle cx="138" cy="647.5" r="1.5" fill="white" fill-opacity="0.25"/>
<circle cx="157" cy="647.5" r="1.5" fill="white" fill-opacity="0.25"/>
<circle cx="176" cy="647.5" r="1.5" fill="white" fill-opacity="0.25"/>
<circle cx="195" cy="647.5" r="1.5" fill="white" fill-opacity="0.25"/>
<circle cx="214" cy="647.5" r="1.5" fill="white" fill-opacity="0.25"/>
<circle cx="233" cy="647.5" r="1.5" fill="white" fill-opacity="0.25"/>
<circle cx="252" cy="647.5" r="1.5" fill="white" fill-opacity="0.25"/>
<circle cx="271" cy="647.5" r="1.5" fill="white" fill-opacity="0.25"/>
<circle cx="290" cy="647.5" r="1.5" fill="white" fill-opacity="0.25"/>
<circle cx="5" cy="666.5" r="1.5" fill="white" fill-opacity="0.25"/>
<circle cx="24" cy="666.5" r="1.5" fill="white" fill-opacity="0.25"/>
<circle cx="43" cy="666.5" r="1.5" fill="white" fill-opacity="0.25"/>
<circle cx="62" cy="666.5" r="1.5" fill="white" fill-opacity="0.25"/>
<circle cx="81" cy="666.5" r="1.5" fill="white" fill-opacity="0.25"/>
<circle cx="100" cy="666.5" r="1.5" fill="white" fill-opacity="0.25"/>
<circle cx="119" cy="666.5" r="1.5" fill="white" fill-opacity="0.25"/>
<circle cx="138" cy="666.5" r="1.5" fill="white" fill-opacity="0.25"/>
<circle cx="157" cy="666.5" r="1.5" fill="white" fill-opacity="0.25"/>
<circle cx="176" cy="666.5" r="1.5" fill="white" fill-opacity="0.25"/>
<circle cx="195" cy="666.5" r="1.5" fill="white" fill-opacity="0.25"/>
<circle cx="214" cy="666.5" r="1.5" fill="white" fill-opacity="0.25"/>
<circle cx="233" cy="666.5" r="1.5" fill="white" fill-opacity="0.25"/>
<circle cx="252" cy="666.5" r="1.5" fill="white" fill-opacity="0.25"/>
<circle cx="271" cy="666.5" r="1.5" fill="white" fill-opacity="0.25"/>
<circle cx="290" cy="666.5" r="1.5" fill="white" fill-opacity="0.25"/>
<circle cx="5" cy="685.5" r="1.5" fill="white" fill-opacity="0.25"/>
<circle cx="24" cy="685.5" r="1.5" fill="white" fill-opacity="0.25"/>
<circle cx="43" cy="685.5" r="1.5" fill="white" fill-opacity="0.25"/>
<circle cx="62" cy="685.5" r="1.5" fill="white" fill-opacity="0.25"/>
<circle cx="81" cy="685.5" r="1.5" fill="white" fill-opacity="0.25"/>
<circle cx="100" cy="685.5" r="1.5" fill="white" fill-opacity="0.25"/>
<circle cx="119" cy="685.5" r="1.5" fill="white" fill-opacity="0.25"/>
<circle cx="138" cy="685.5" r="1.5" fill="white" fill-opacity="0.25"/>
<circle cx="157" cy="685.5" r="1.5" fill="white" fill-opacity="0.25"/>
<circle cx="176" cy="685.5" r="1.5" fill="white" fill-opacity="0.25"/>
<circle cx="195" cy="685.5" r="1.5" fill="white" fill-opacity="0.25"/>
<circle cx="214" cy="685.5" r="1.5" fill="white" fill-opacity="0.25"/>
<circle cx="233" cy="685.5" r="1.5" fill="white" fill-opacity="0.25"/>
<circle cx="252" cy="685.5" r="1.5" fill="white" fill-opacity="0.25"/>
<circle cx="271" cy="685.5" r="1.5" fill="white" fill-opacity="0.25"/>
<circle cx="290" cy="685.5" r="1.5" fill="white" fill-opacity="0.25"/>
<circle cx="5" cy="704.5" r="1.5" fill="white" fill-opacity="0.25"/>
<circle cx="24" cy="704.5" r="1.5" fill="white" fill-opacity="0.25"/>
<circle cx="43" cy="704.5" r="1.5" fill="white" fill-opacity="0.25"/>
<circle cx="62" cy="704.5" r="1.5" fill="white" fill-opacity="0.25"/>
<circle cx="81" cy="704.5" r="1.5" fill="white" fill-opacity="0.25"/>
<circle cx="100" cy="704.5" r="1.5" fill="white" fill-opacity="0.25"/>
<circle cx="119" cy="704.5" r="1.5" fill="white" fill-opacity="0.25"/>
<circle cx="138" cy="704.5" r="1.5" fill="white" fill-opacity="0.25"/>
<circle cx="157" cy="704.5" r="1.5" fill="white" fill-opacity="0.25"/>
<circle cx="176" cy="704.5" r="1.5" fill="white" fill-opacity="0.25"/>
<circle cx="195" cy="704.5" r="1.5" fill="white" fill-opacity="0.25"/>
<circle cx="214" cy="704.5" r="1.5" fill="white" fill-opacity="0.25"/>
<circle cx="233" cy="704.5" r="1.5" fill="white" fill-opacity="0.25"/>
<circle cx="252" cy="704.5" r="1.5" fill="white" fill-opacity="0.25"/>
<circle cx="271" cy="704.5" r="1.5" fill="white" fill-opacity="0.25"/>
<circle cx="290" cy="704.5" r="1.5" fill="white" fill-opacity="0.25"/>
<circle cx="5" cy="723.5" r="1.5" fill="white" fill-opacity="0.25"/>
<circle cx="24" cy="723.5" r="1.5" fill="white" fill-opacity="0.25"/>
<circle cx="43" cy="723.5" r="1.5" fill="white" fill-opacity="0.25"/>
<circle cx="62" cy="723.5" r="1.5" fill="white" fill-opacity="0.25"/>
<circle cx="81" cy="723.5" r="1.5" fill="white" fill-opacity="0.25"/>
<circle cx="100" cy="723.5" r="1.5" fill="white" fill-opacity="0.25"/>
<circle cx="119" cy="723.5" r="1.5" fill="white" fill-opacity="0.25"/>
<circle cx="138" cy="723.5" r="1.5" fill="white" fill-opacity="0.25"/>
<circle cx="157" cy="723.5" r="1.5" fill="white" fill-opacity="0.25"/>
<circle cx="176" cy="723.5" r="1.5" fill="white" fill-opacity="0.25"/>
<circle cx="195" cy="723.5" r="1.5" fill="white" fill-opacity="0.25"/>
<circle cx="214" cy="723.5" r="1.5" fill="white" fill-opacity="0.25"/>
<circle cx="233" cy="723.5" r="1.5" fill="white" fill-opacity="0.25"/>
<circle cx="252" cy="723.5" r="1.5" fill="white" fill-opacity="0.25"/>
<circle cx="271" cy="723.5" r="1.5" fill="white" fill-opacity="0.25"/>
<circle cx="290" cy="723.5" r="1.5" fill="white" fill-opacity="0.25"/>
<circle cx="5" cy="742.5" r="1.5" fill="white" fill-opacity="0.25"/>
<circle cx="24" cy="742.5" r="1.5" fill="white" fill-opacity="0.25"/>
<circle cx="43" cy="742.5" r="1.5" fill="white" fill-opacity="0.25"/>
<circle cx="62" cy="742.5" r="1.5" fill="white" fill-opacity="0.25"/>
<circle cx="81" cy="742.5" r="1.5" fill="white" fill-opacity="0.25"/>
<circle cx="100" cy="742.5" r="1.5" fill="white" fill-opacity="0.25"/>
<circle cx="119" cy="742.5" r="1.5" fill="white" fill-opacity="0.25"/>
<circle cx="138" cy="742.5" r="1.5" fill="white" fill-opacity="0.25"/>
<circle cx="157" cy="742.5" r="1.5" fill="white" fill-opacity="0.25"/>
<circle cx="176" cy="742.5" r="1.5" fill="white" fill-opacity="0.25"/>
<circle cx="195" cy="742.5" r="1.5" fill="white" fill-opacity="0.25"/>
<circle cx="214" cy="742.5" r="1.5" fill="white" fill-opacity="0.25"/>
<circle cx="233" cy="742.5" r="1.5" fill="white" fill-opacity="0.25"/>
<circle cx="252" cy="742.5" r="1.5" fill="white" fill-opacity="0.25"/>
<circle cx="271" cy="742.5" r="1.5" fill="white" fill-opacity="0.25"/>
<circle cx="290" cy="742.5" r="1.5" fill="white" fill-opacity="0.25"/>
<circle cx="5" cy="761.5" r="1.5" fill="white" fill-opacity="0.25"/>
<circle cx="24" cy="761.5" r="1.5" fill="white" fill-opacity="0.25"/>
<circle cx="43" cy="761.5" r="1.5" fill="white" fill-opacity="0.25"/>
<circle cx="62" cy="761.5" r="1.5" fill="white" fill-opacity="0.25"/>
<circle cx="81" cy="761.5" r="1.5" fill="white" fill-opacity="0.25"/>
<circle cx="100" cy="761.5" r="1.5" fill="white" fill-opacity="0.25"/>
<circle cx="119" cy="761.5" r="1.5" fill="white" fill-opacity="0.25"/>
<circle cx="138" cy="761.5" r="1.5" fill="white" fill-opacity="0.25"/>
<circle cx="157" cy="761.5" r="1.5" fill="white" fill-opacity="0.25"/>
<circle cx="176" cy="761.5" r="1.5" fill="white" fill-opacity="0.25"/>
<circle cx="195" cy="761.5" r="1.5" fill="white" fill-opacity="0.25"/>
<circle cx="214" cy="761.5" r="1.5" fill="white" fill-opacity="0.25"/>
<circle cx="233" cy="761.5" r="1.5" fill="white" fill-opacity="0.25"/>
<circle cx="252" cy="761.5" r="1.5" fill="white" fill-opacity="0.25"/>
<circle cx="271" cy="761.5" r="1.5" fill="white" fill-opacity="0.25"/>
<circle cx="290" cy="761.5" r="1.5" fill="white" fill-opacity="0.25"/>
<circle cx="5" cy="780.5" r="1.5" fill="white" fill-opacity="0.25"/>
<circle cx="24" cy="780.5" r="1.5" fill="white" fill-opacity="0.25"/>
<circle cx="43" cy="780.5" r="1.5" fill="white" fill-opacity="0.25"/>
<circle cx="62" cy="780.5" r="1.5" fill="white" fill-opacity="0.25"/>
<circle cx="81" cy="780.5" r="1.5" fill="white" fill-opacity="0.25"/>
<circle cx="100" cy="780.5" r="1.5" fill="white" fill-opacity="0.25"/>
<circle cx="119" cy="780.5" r="1.5" fill="white" fill-opacity="0.25"/>
<circle cx="138" cy="780.5" r="1.5" fill="white" fill-opacity="0.25"/>
<circle cx="157" cy="780.5" r="1.5" fill="white" fill-opacity="0.25"/>
<circle cx="176" cy="780.5" r="1.5" fill="white" fill-opacity="0.25"/>
<circle cx="195" cy="780.5" r="1.5" fill="white" fill-opacity="0.25"/>
<circle cx="214" cy="780.5" r="1.5" fill="white" fill-opacity="0.25"/>
<circle cx="233" cy="780.5" r="1.5" fill="white" fill-opacity="0.25"/>
<circle cx="252" cy="780.5" r="1.5" fill="white" fill-opacity="0.25"/>
<circle cx="271" cy="780.5" r="1.5" fill="white" fill-opacity="0.25"/>
<circle cx="290" cy="780.5" r="1.5" fill="white" fill-opacity="0.25"/>
<circle cx="166.5" cy="799.5" r="1.5" fill="white" fill-opacity="0.25"/>
<circle cx="185.5" cy="799.5" r="1.5" fill="white" fill-opacity="0.25"/>
<circle cx="204.5" cy="799.5" r="1.5" fill="white" fill-opacity="0.25"/>
<circle cx="223.5" cy="799.5" r="1.5" fill="white" fill-opacity="0.25"/>
<circle cx="242.5" cy="799.5" r="1.5" fill="white" fill-opacity="0.25"/>
<circle cx="261.5" cy="799.5" r="1.5" fill="white" fill-opacity="0.25"/>
<circle cx="280.5" cy="799.5" r="1.5" fill="white" fill-opacity="0.25"/>
</g>
</svg>
