<svg width="16" height="16" viewBox="0 0 16 16" fill="none" xmlns="http://www.w3.org/2000/svg">
<mask id="mask0_59_3103" style="mask-type:alpha" maskUnits="userSpaceOnUse" x="0" y="0" width="16" height="16">
<rect width="16" height="16" fill="#D9D9D9"/>
</mask>
<g mask="url(#mask0_59_3103)">
<path d="M7.23333 9.16667L7.3 9.7C7.31111 9.78889 7.34722 9.86111 7.40833 9.91667C7.46944 9.97222 7.54444 10 7.63333 10H8.36667C8.45556 10 8.53056 9.97222 8.59167 9.91667C8.65278 9.86111 8.68889 9.78889 8.7 9.7L8.76667 9.16667C8.85556 9.13333 8.93611 9.09444 9.00833 9.05C9.08056 9.00555 9.14444 8.95555 9.2 8.9L9.7 9.11666C9.77778 9.15 9.85556 9.15555 9.93333 9.13333C10.0111 9.11111 10.0722 9.06111 10.1167 8.98333L10.4833 8.35C10.5278 8.27222 10.5417 8.19444 10.525 8.11666C10.5083 8.03889 10.4667 7.97222 10.4 7.91667L9.96667 7.6C9.98889 7.51111 10 7.42222 10 7.33333C10 7.24444 9.98889 7.15555 9.96667 7.06667L10.4 6.75C10.4667 6.69444 10.5083 6.62778 10.525 6.55C10.5417 6.47222 10.5278 6.39444 10.4833 6.31667L10.1167 5.68333C10.0722 5.60555 10.0111 5.55555 9.93333 5.53333C9.85556 5.51111 9.77778 5.51667 9.7 5.55L9.2 5.76666C9.14444 5.71111 9.08056 5.66111 9.00833 5.61667C8.93611 5.57222 8.85556 5.53333 8.76667 5.5L8.7 4.96667C8.68889 4.87778 8.65278 4.80555 8.59167 4.75C8.53056 4.69444 8.45556 4.66667 8.36667 4.66667H7.63333C7.54444 4.66667 7.46944 4.69444 7.40833 4.75C7.34722 4.80555 7.31111 4.87778 7.3 4.96667L7.23333 5.5C7.14444 5.53333 7.06389 5.57222 6.99167 5.61667C6.91944 5.66111 6.85556 5.71111 6.8 5.76666L6.3 5.55C6.22222 5.51667 6.14444 5.51111 6.06667 5.53333C5.98889 5.55555 5.92778 5.60555 5.88333 5.68333L5.51667 6.31667C5.47222 6.39444 5.45833 6.47222 5.475 6.55C5.49167 6.62778 5.53333 6.69444 5.6 6.75L6.03333 7.06667C6.01111 7.15555 6 7.24444 6 7.33333C6 7.42222 6.01111 7.51111 6.03333 7.6L5.6 7.91667C5.53333 7.97222 5.49167 8.03889 5.475 8.11666C5.45833 8.19444 5.47222 8.27222 5.51667 8.35L5.88333 8.98333C5.92778 9.06111 5.98889 9.11111 6.06667 9.13333C6.14444 9.15555 6.22222 9.15 6.3 9.11666L6.8 8.9C6.85556 8.95555 6.91944 9.00555 6.99167 9.05C7.06389 9.09444 7.14444 9.13333 7.23333 9.16667ZM8 8.33333C7.72222 8.33333 7.48611 8.23611 7.29167 8.04167C7.09722 7.84722 7 7.61111 7 7.33333C7 7.05555 7.09722 6.81944 7.29167 6.625C7.48611 6.43055 7.72222 6.33333 8 6.33333C8.27778 6.33333 8.51389 6.43055 8.70833 6.625C8.90278 6.81944 9 7.05555 9 7.33333C9 7.61111 8.90278 7.84722 8.70833 8.04167C8.51389 8.23611 8.27778 8.33333 8 8.33333ZM4.66667 14.6667C4.47778 14.6667 4.31944 14.6028 4.19167 14.475C4.06389 14.3472 4 14.1889 4 14V11.8C3.36667 11.2222 2.875 10.5472 2.525 9.775C2.175 9.00278 2 8.18889 2 7.33333C2 5.66667 2.58333 4.25 3.75 3.08333C4.91667 1.91667 6.33333 1.33333 8 1.33333C9.38889 1.33333 10.6194 1.74167 11.6917 2.55833C12.7639 3.375 13.4611 4.43889 13.7833 5.75L14.65 9.16667C14.7056 9.37778 14.6667 9.56944 14.5333 9.74166C14.4 9.91389 14.2222 10 14 10H12.6667V12C12.6667 12.3667 12.5361 12.6806 12.275 12.9417C12.0139 13.2028 11.7 13.3333 11.3333 13.3333H10V14C10 14.1889 9.93611 14.3472 9.80833 14.475C9.68056 14.6028 9.52222 14.6667 9.33333 14.6667H4.66667Z" fill="white"/>
</g>
</svg>
