<svg width="24" height="24" viewBox="0 0 24 24" fill="none" xmlns="http://www.w3.org/2000/svg">
<mask id="mask0_59_5328" style="mask-type:alpha" maskUnits="userSpaceOnUse" x="0" y="0" width="24" height="24">
<rect width="24" height="24" fill="#D9D9D9"/>
</mask>
<g mask="url(#mask0_59_5328)">
<path d="M6.5385 12.4097C6.9655 11.3866 7.46708 10.4067 8.04325 9.47025C8.61959 8.53375 9.26225 7.64433 9.97125 6.802L8.6135 6.51725C8.31217 6.45708 8.01925 6.47058 7.73475 6.55775C7.45009 6.64491 7.20067 6.79558 6.9865 7.00975L4.01925 9.977C3.79492 10.2013 3.71033 10.4725 3.7655 10.7905C3.8205 11.1083 3.99867 11.3275 4.3 11.448L6.5385 12.4097ZM20.1518 3.1115C18.5006 3.086 16.9368 3.42766 15.4605 4.1365C13.9843 4.8455 12.6629 5.78333 11.4963 6.95C10.7474 7.69866 10.0865 8.51083 9.5135 9.3865C8.94033 10.2622 8.43517 11.1814 7.998 12.1442C7.91467 12.3417 7.873 12.5433 7.873 12.749C7.873 12.9548 7.94992 13.1347 8.10375 13.2885L10.95 16.125C11.1038 16.2788 11.282 16.3573 11.4845 16.3605C11.6872 16.3637 11.8872 16.3236 12.0845 16.2402C13.0473 15.8096 13.9666 15.3045 14.8423 14.725C15.7179 14.1455 16.5301 13.4814 17.2788 12.7327C18.4454 11.5661 19.3833 10.2446 20.0923 8.76825C20.8013 7.29208 21.1429 5.72833 21.1173 4.077C21.1173 3.9565 21.0903 3.83916 21.0365 3.725C20.9827 3.611 20.9089 3.50716 20.8153 3.4135C20.7218 3.32 20.6179 3.24625 20.5038 3.19225C20.3898 3.13841 20.2724 3.1115 20.1518 3.1115ZM14.2345 9.99425C13.8962 9.65575 13.727 9.24258 13.727 8.75475C13.727 8.26691 13.8962 7.85383 14.2345 7.5155C14.573 7.177 14.9862 7.00775 15.474 7.00775C15.9618 7.00775 16.375 7.177 16.7135 7.5155C17.0518 7.85383 17.221 8.26691 17.221 8.75475C17.221 9.24258 17.0518 9.65575 16.7135 9.99425C16.375 10.3327 15.9618 10.502 15.474 10.502C14.9862 10.502 14.573 10.3327 14.2345 9.99425ZM11.8095 17.6902L12.771 19.9287C12.8917 20.2301 13.1109 20.4108 13.4288 20.471C13.7468 20.5313 14.0179 20.4493 14.2423 20.225L17.2095 17.2577C17.4237 17.0436 17.5743 16.79 17.6615 16.497C17.7487 16.2042 17.7621 15.9071 17.7018 15.6057L17.4328 14.2577C16.5801 14.9666 15.6881 15.6092 14.7568 16.1855C13.8253 16.7618 12.8428 17.2634 11.8095 17.6902ZM4.598 16.098C5.08533 15.6108 5.67675 15.3663 6.37225 15.3645C7.06775 15.3625 7.65908 15.6051 8.14625 16.0922C8.63342 16.5794 8.877 17.1707 8.877 17.8662C8.877 18.5617 8.63342 19.1531 8.14625 19.6402C7.46792 20.3186 6.66792 20.7311 5.74625 20.8777C4.82442 21.0246 3.89683 21.1537 2.9635 21.2652C3.075 20.3256 3.20833 19.3964 3.3635 18.4777C3.51867 17.5592 3.93017 16.766 4.598 16.098Z" fill="white"/>
</g>
</svg>
