<svg width="48" height="48" viewBox="0 0 48 48" fill="none" xmlns="http://www.w3.org/2000/svg">
<path d="M24 0.5C36.9787 0.5 47.5 11.0213 47.5 24C47.5 36.9787 36.9787 47.5 24 47.5C11.0213 47.5 0.5 36.9787 0.5 24C0.5 11.0213 11.0213 0.5 24 0.5Z" stroke="url(#paint0_linear_59_5448)"/>
<mask id="mask0_59_5448" style="mask-type:alpha" maskUnits="userSpaceOnUse" x="14" y="14" width="20" height="20">
<rect x="14" y="14" width="20" height="20" fill="#D9D9D9"/>
</mask>
<g mask="url(#mask0_59_5448)">
<path d="M29.8333 26.5C30 26.3333 30.1979 26.25 30.4271 26.25C30.6562 26.25 30.8542 26.3333 31.0208 26.5L32.3333 27.8333C32.5 28 32.5833 28.1944 32.5833 28.4167C32.5833 28.6389 32.5 28.8333 32.3333 29C32.1667 29.1667 31.9722 29.25 31.75 29.25C31.5278 29.25 31.3333 29.1667 31.1667 29L29.8333 27.6875C29.6667 27.5208 29.5833 27.3229 29.5833 27.0938C29.5833 26.8646 29.6667 26.6667 29.8333 26.5ZM30.6667 16.5C30.8333 16.6667 30.9167 16.8646 30.9167 17.0938C30.9167 17.3229 30.8333 17.5208 30.6667 17.6875L29.3542 19C29.1875 19.1667 28.9896 19.25 28.7604 19.25C28.5312 19.25 28.3333 19.1667 28.1667 19C28 18.8333 27.9167 18.6354 27.9167 18.4062C27.9167 18.1771 28 17.9792 28.1667 17.8125L29.5 16.5C29.6667 16.3333 29.8611 16.25 30.0833 16.25C30.3056 16.25 30.5 16.3333 30.6667 16.5ZM17.3333 16.5C17.5 16.3333 17.6979 16.25 17.9271 16.25C18.1562 16.25 18.3542 16.3333 18.5208 16.5L19.8333 17.8333C20 18 20.0833 18.1944 20.0833 18.4167C20.0833 18.6389 20 18.8333 19.8333 19C19.6667 19.1667 19.4687 19.25 19.2396 19.25C19.0104 19.25 18.8125 19.1667 18.6458 19L17.3333 17.6875C17.1667 17.5208 17.0833 17.3229 17.0833 17.0938C17.0833 16.8646 17.1667 16.6667 17.3333 16.5ZM18.1667 26.5C18.3333 26.6667 18.4167 26.8646 18.4167 27.0938C18.4167 27.3229 18.3333 27.5208 18.1667 27.6875L16.8542 29C16.6875 29.1667 16.4896 29.25 16.2604 29.25C16.0312 29.25 15.8333 29.1667 15.6667 29C15.5 28.8333 15.4167 28.6354 15.4167 28.4062C15.4167 28.1771 15.5 27.9792 15.6667 27.8125L17 26.5C17.1667 26.3333 17.3611 26.25 17.5833 26.25C17.8056 26.25 18 26.3333 18.1667 26.5ZM24 28.3958L20.5417 30.4792C20.3889 30.5764 20.2292 30.6181 20.0625 30.6042C19.8958 30.5903 19.75 30.5347 19.625 30.4375C19.5 30.3403 19.4028 30.2187 19.3333 30.0729C19.2639 29.9271 19.25 29.7639 19.2917 29.5833L20.2083 25.6458L17.1458 23C17.0069 22.875 16.9201 22.7326 16.8854 22.5729C16.8507 22.4132 16.8611 22.2569 16.9167 22.1042C16.9722 21.9514 17.0556 21.8264 17.1667 21.7292C17.2778 21.6319 17.4306 21.5694 17.625 21.5417L21.6667 21.1875L23.2292 17.4792C23.2986 17.3125 23.4062 17.1875 23.5521 17.1042C23.6979 17.0208 23.8472 16.9792 24 16.9792C24.1528 16.9792 24.3021 17.0208 24.4479 17.1042C24.5937 17.1875 24.7014 17.3125 24.7708 17.4792L26.3333 21.1875L30.375 21.5417C30.5694 21.5694 30.7222 21.6319 30.8333 21.7292C30.9444 21.8264 31.0278 21.9514 31.0833 22.1042C31.1389 22.2569 31.1493 22.4132 31.1146 22.5729C31.0799 22.7326 30.9931 22.875 30.8542 23L27.7917 25.6458L28.7083 29.5833C28.75 29.7639 28.7361 29.9271 28.6667 30.0729C28.5972 30.2187 28.5 30.3403 28.375 30.4375C28.25 30.5347 28.1042 30.5903 27.9375 30.6042C27.7708 30.6181 27.6111 30.5764 27.4583 30.4792L24 28.3958Z" fill="white"/>
</g>
<defs>
<linearGradient id="paint0_linear_59_5448" x1="24" y1="0" x2="24" y2="48" gradientUnits="userSpaceOnUse">
<stop stop-color="#426EFF"/>
<stop offset="1" stop-color="#426EFF" stop-opacity="0.05"/>
</linearGradient>
</defs>
</svg>
