<svg width="28" height="27" viewBox="0 0 28 27" fill="none" xmlns="http://www.w3.org/2000/svg">
<path d="M12.2718 1.96718C13.0432 0.642645 14.9568 0.642643 15.7282 1.96718L18.7289 7.11908C19.0115 7.60428 19.4851 7.94834 20.0339 8.06718L25.8609 9.329C27.359 9.65341 27.9503 11.4733 26.929 12.6163L22.9565 17.0621C22.5824 17.4809 22.4015 18.0375 22.4581 18.5962L23.0587 24.5279C23.2131 26.053 21.665 27.1777 20.2623 26.5596L14.8065 24.1554C14.2927 23.929 13.7073 23.929 13.1935 24.1554L7.73766 26.5596C6.33499 27.1777 4.78693 26.053 4.94134 24.528L5.54192 18.5962C5.59848 18.0376 5.4176 17.4809 5.04348 17.0621L1.071 12.6163C0.0496898 11.4733 0.640994 9.65341 2.1391 9.329L7.96612 8.06718C8.51491 7.94834 8.98846 7.60428 9.27106 7.11908L12.2718 1.96718Z" fill="white"/>
</svg>
