<svg width="19" height="16" viewBox="0 0 19 16" fill="none" xmlns="http://www.w3.org/2000/svg">
<path d="M1.21834 7.34713C1.25937 7.32661 1.30042 7.30711 1.34043 7.28864C2.03591 6.96645 2.74062 6.66479 3.44431 6.36312C3.48227 6.36312 3.54585 6.31899 3.58175 6.30463C3.63612 6.28103 3.69049 6.25846 3.74486 6.23486C3.84949 6.18971 3.95412 6.14559 4.05773 6.10044C4.26699 6.01117 4.47521 5.92189 4.68447 5.83262L5.93695 5.29598C6.77194 4.93891 7.60797 4.5808 8.44296 4.22372C9.27795 3.86664 10.114 3.50854 10.9489 3.15146C11.7839 2.79438 12.6199 2.43628 13.4549 2.07921C14.2899 1.72213 15.1259 1.36402 15.9609 1.00694C16.1466 0.926909 16.3477 0.80788 16.5467 0.772993C16.7139 0.743236 16.8769 0.685778 17.0452 0.653969C17.3642 0.59343 17.716 0.568806 18.0217 0.701172C18.1274 0.747345 18.2248 0.811988 18.3059 0.893049C18.6936 1.27681 18.6392 1.90682 18.5572 2.44654C17.9858 6.20817 17.4145 9.97084 16.8421 13.7325C16.7641 14.2486 16.6574 14.815 16.2502 15.1413C15.9055 15.4173 15.4152 15.4481 14.9895 15.3311C14.5638 15.2131 14.1884 14.9658 13.8201 14.7226C12.2927 13.7109 10.7643 12.6992 9.23691 11.6875C8.87379 11.4474 8.46963 11.1334 8.47374 10.6973C8.47579 10.4346 8.63272 10.2007 8.79274 9.99238C10.1201 8.26035 12.0352 7.07009 13.4601 5.41809C13.6611 5.18517 13.8191 4.76447 13.5432 4.63005C13.379 4.55002 13.1903 4.65878 13.0405 4.76242C11.1572 6.07068 9.27487 7.37997 7.39153 8.68823C6.77708 9.11508 6.13289 9.55424 5.39228 9.65891C4.72962 9.75331 4.06286 9.56861 3.42175 9.37981C2.88424 9.22179 2.34773 9.05967 1.8133 8.89242C1.52916 8.80417 1.23578 8.70875 1.01626 8.50866C0.796745 8.30857 0.670591 7.97202 0.802917 7.70523C0.886005 7.53798 1.04706 7.43229 1.21631 7.3461L1.21834 7.34713Z" fill="white"/>
</svg>
