<svg width="16" height="16" viewBox="0 0 16 16" fill="none" xmlns="http://www.w3.org/2000/svg">
<mask id="mask0_59_3109" style="mask-type:alpha" maskUnits="userSpaceOnUse" x="0" y="0" width="16" height="16">
<rect width="16" height="16" fill="#D9D9D9"/>
</mask>
<g mask="url(#mask0_59_3109)">
<path d="M2.66671 14C2.30004 14 1.98615 13.8694 1.72504 13.6083C1.46393 13.3472 1.33337 13.0333 1.33337 12.6667V5.33333C1.33337 4.96667 1.46393 4.65278 1.72504 4.39167C1.98615 4.13055 2.30004 4 2.66671 4H5.33337V2.66667C5.33337 2.3 5.46393 1.98611 5.72504 1.725C5.98615 1.46389 6.30004 1.33333 6.66671 1.33333H9.33337C9.70004 1.33333 10.0139 1.46389 10.275 1.725C10.5362 1.98611 10.6667 2.3 10.6667 2.66667V4H13.3334C13.7 4 14.0139 4.13055 14.275 4.39167C14.5362 4.65278 14.6667 4.96667 14.6667 5.33333V12.6667C14.6667 13.0333 14.5362 13.3472 14.275 13.6083C14.0139 13.8694 13.7 14 13.3334 14H2.66671ZM6.66671 4H9.33337V2.66667H6.66671V4Z" fill="white"/>
</g>
</svg>
