<svg xmlns="http://www.w3.org/2000/svg" width="394" height="203" fill="none"><g clip-path="url(#a)"><path stroke="#243143" stroke-width=".801" d="M12.015.4H415.6v280.2H.4V12.015C.4 5.6 5.6.4 12.015.4Z"/><circle cx="15.218" cy="17.621" r="4.806" fill="#243143"/><circle cx="31.237" cy="17.621" r="4.806" fill="#243143"/><circle cx="47.256" cy="17.621" r="4.806" fill="#243143"/><rect width="392" height="201" x="10" y="34" fill="#AFC6FF" fill-opacity=".04" rx="8.01"/><rect width="391.199" height="200.199" x="10.4" y="34.401" stroke="#fff" stroke-opacity=".07" stroke-width=".801" rx="7.609"/><rect width="108.93" height="45.655" x="29.636" y="113.736" fill="#243143" rx="3.204"/><rect width="89.707" height="12.815" x="29.636" y="175.41" fill="#243143" rx="3.204"/><rect width="65.679" height="20.825" x="29.636" y="54.465" fill="#243143" rx="3.204"/><rect width="199" height="21" x="169" y="54" fill="#243143" rx="3.204"/><rect width="282" height="23" x="128" y="6" fill="#243143" rx="3.204"/><g clip-path="url(#b)"><path fill="#2775CA" fill-opacity=".4" d="M292.736 292.952c55.289-13.53 88.884-68.895 75.354-124.183s-68.895-88.884-124.184-75.354c-55.288 13.53-88.883 68.895-75.353 124.184 13.53 55.288 68.894 88.883 124.183 75.353"/><path fill="#fff" fill-opacity=".15" d="M299.623 202.266c-3.56-14.549-13.511-17.402-31.479-15.207-12.878 1.389-16.186-1.326-17.61-7.147s1.818-10.578 10.131-12.612c7.483-1.832 12.251-.355 15.855 5.372.721 1.146 2.172 1.671 3.419 1.366l6.65-1.627c1.663-.407 2.605-1.96 2.198-3.622l-.101-.416c-3.902-8.739-13.114-13.974-22.878-12.465l-2.441-9.977c-.407-1.663-1.96-2.605-4.14-2.513l-6.235 1.526c-1.663.407-2.605 1.959-2.512 4.14l2.339 9.561c-12.064 4.715-17.927 14.962-15.384 25.355 3.357 13.718 12.993 17.087 30.962 14.893 12.148-.77 16.5.809 18.128 7.46 1.628 6.652-3.074 12.648-10.972 14.581-10.809 2.645-15.669-1.013-18.442-6.943-.822-1.56-2.273-2.087-3.52-1.782l-7.067 1.729c-1.663.407-2.604 1.959-2.197 3.623l.101.416c4.206 9.985 12.688 15.84 26.915 14.562l2.442 9.977c.406 1.662 1.959 2.604 4.139 2.511l6.235-1.526c1.663-.407 2.605-1.959 2.513-4.139l-2.442-9.977c11.963-5.131 18.14-15.895 15.393-27.119"/><path fill="#fff" fill-opacity=".15" d="M261.668 257.817c-35.273-3.704-60.752-35.801-56.53-70.761 1.963-18.985 12.426-35.645 27.944-46.051 1.46-1.238 1.986-2.689 1.477-4.768l-1.424-5.819c-.407-1.663-1.544-2.707-3.308-2.715-.416.102-1.247.305-1.562.822-36.439 22.135-47.782 69.412-25.646 105.851 13.179 21.448 35.429 34.949 60.539 36.735 1.867.424 3.326-.814 3.334-2.578.315-.517.213-.933.01-1.764l-1.425-5.821c-.305-1.247-1.959-2.604-3.409-3.131m12.325-140.482c-1.867-.424-3.326.814-3.334 2.578-.315.518-.213.933-.009 1.765l1.424 5.82c.407 1.663 2.061 3.02 3.511 3.547 35.273 3.704 60.752 35.801 56.529 70.761-1.962 18.985-12.425 35.644-27.943 46.051-1.46 1.238-1.986 2.688-1.477 4.768l1.424 5.819c.407 1.663 1.544 2.707 3.308 2.715.416-.102 1.247-.305 1.562-.822 36.439-22.135 47.782-69.412 25.646-105.851-13.281-21.864-35.947-35.264-60.641-37.151"/></g></g><defs><clipPath id="a"><path fill="#fff" d="M0 0h394v203H0z"/></clipPath><clipPath id="b"><path fill="#fff" d="M144.138 117.83 343.675 69l48.83 199.537-199.537 48.83z"/></clipPath></defs></svg>