<svg width="61" height="60" viewBox="0 0 61 60" fill="none" xmlns="http://www.w3.org/2000/svg">
<path d="M30.6667 0.5C46.9591 0.5 60.1667 13.7076 60.1667 30C60.1667 46.2924 46.9591 59.5 30.6667 59.5C14.3743 59.5 1.16675 46.2924 1.16675 30C1.16675 13.7076 14.3743 0.5 30.6667 0.5Z" stroke="url(#paint0_linear_60_5532)"/>
<mask id="mask0_60_5532" style="mask-type:alpha" maskUnits="userSpaceOnUse" x="17" y="17" width="27" height="26">
<rect x="17.6667" y="17" width="26" height="26" fill="#D9D9D9"/>
</mask>
<g mask="url(#mask0_60_5532)">
<path d="M28.5 31.0834C27.3084 31.0834 26.2882 30.6591 25.4396 29.8105C24.591 28.9619 24.1667 27.9417 24.1667 26.7501C24.1667 25.5584 24.591 24.5383 25.4396 23.6896C26.2882 22.841 27.3084 22.4167 28.5 22.4167C29.6917 22.4167 30.7118 22.841 31.5605 23.6896C32.4091 24.5383 32.8334 25.5584 32.8334 26.7501C32.8334 27.9417 32.4091 28.9619 31.5605 29.8105C30.7118 30.6591 29.6917 31.0834 28.5 31.0834ZM19.8334 37.5834V36.7167C19.8334 36.1209 19.9868 35.5612 20.2938 35.0376C20.6007 34.5139 21.025 34.1167 21.5667 33.8459C22.4875 33.3764 23.5257 32.9792 24.6813 32.6542C25.8368 32.3292 27.1098 32.1667 28.5 32.1667C29.8903 32.1667 31.1632 32.3292 32.3188 32.6542C33.4743 32.9792 34.5125 33.3764 35.4334 33.8459C35.975 34.1167 36.3993 34.5139 36.7063 35.0376C37.0132 35.5612 37.1667 36.1209 37.1667 36.7167V37.5834C37.1667 38.1792 36.9546 38.6893 36.5303 39.1136C36.1059 39.5379 35.5959 39.7501 35 39.7501H22C21.4042 39.7501 20.8941 39.5379 20.4698 39.1136C20.0455 38.6893 19.8334 38.1792 19.8334 37.5834ZM41.7709 29.1334C41.6264 29.1334 41.4865 29.1018 41.3511 29.0386C41.2157 28.9754 41.1028 28.8987 41.0125 28.8084C40.4889 28.3028 40.0827 27.716 39.7938 27.048C39.5049 26.3799 39.3605 25.6758 39.3605 24.9355C39.3605 24.1952 39.5049 23.5001 39.7938 22.8501C40.0827 22.2001 40.4889 21.6133 41.0125 21.0896C41.1028 20.9994 41.2157 20.9271 41.3511 20.873C41.4865 20.8188 41.6264 20.7917 41.7709 20.7917C42.0778 20.7917 42.3351 20.891 42.5427 21.0896C42.7504 21.2883 42.8542 21.541 42.8542 21.848C42.8542 21.9924 42.8226 22.1369 42.7594 22.2813C42.6962 22.4258 42.6195 22.5431 42.5292 22.6334C42.2223 22.9403 41.9785 23.2924 41.798 23.6896C41.6174 24.0869 41.5271 24.5112 41.5271 24.9626C41.5271 25.4139 41.6174 25.8383 41.798 26.2355C41.9785 26.6327 42.2223 26.9848 42.5292 27.2917C42.6195 27.382 42.6962 27.4948 42.7594 27.6303C42.8226 27.7657 42.8542 27.9056 42.8542 28.0501C42.8542 28.357 42.7504 28.6143 42.5427 28.8219C42.3351 29.0296 42.0778 29.1334 41.7709 29.1334ZM38.7375 32.2209C38.5931 32.2209 38.4532 32.1893 38.3177 32.1261C38.1823 32.0629 38.0695 31.9862 37.9792 31.8959C37.0584 30.9751 36.3362 29.9143 35.8125 28.7136C35.2889 27.5129 35.0271 26.2626 35.0271 24.9626C35.0271 23.6626 35.2889 22.4077 35.8125 21.198C36.3362 19.9883 37.0584 18.923 37.9792 18.0021C38.0695 17.9119 38.1823 17.8396 38.3177 17.7855C38.4532 17.7313 38.5931 17.7042 38.7375 17.7042C39.0445 17.7042 39.3018 17.808 39.5094 18.0157C39.7171 18.2233 39.8209 18.4806 39.8209 18.7876C39.8209 18.932 39.7938 19.0764 39.7396 19.2209C39.6855 19.3653 39.6042 19.4827 39.4959 19.573C38.7737 20.2952 38.2094 21.1167 37.8032 22.0376C37.3969 22.9584 37.1938 23.9334 37.1938 24.9626C37.1938 25.9917 37.3969 26.9712 37.8032 27.9011C38.2094 28.831 38.7737 29.657 39.4959 30.3792C39.5862 30.4695 39.6629 30.5823 39.7261 30.7178C39.7893 30.8532 39.8209 30.9931 39.8209 31.1376C39.8209 31.4445 39.7171 31.7018 39.5094 31.9094C39.3018 32.1171 39.0445 32.2209 38.7375 32.2209Z" fill="white"/>
</g>
<defs>
<linearGradient id="paint0_linear_60_5532" x1="30.6667" y1="0" x2="30.6667" y2="60" gradientUnits="userSpaceOnUse">
<stop stop-color="#426EFF"/>
<stop offset="1" stop-color="#426EFF" stop-opacity="0.05"/>
</linearGradient>
</defs>
</svg>
