<svg xmlns="http://www.w3.org/2000/svg" width="343" height="227" fill="none"><path fill="#AFC6FF" fill-opacity=".04" d="M186.935 163.891q-19.358 0-33.143-13.785t-13.785-33.143 13.785-33.143 33.143-13.785 33.143 13.785q13.786 13.785 13.786 33.143t-13.786 33.143q-13.785 13.785-33.143 13.785m-93.856 70.393v-9.386q0-9.678 4.986-18.185 4.986-8.505 13.785-12.905 14.958-7.626 33.73-12.905 18.771-5.28 41.355-5.28t41.356 5.28q18.77 5.279 33.73 12.905 8.799 4.4 13.785 12.905 4.986 8.507 4.986 18.185v9.386q0 9.678-6.893 16.571t-16.571 6.893H116.543q-9.68 0-16.572-6.893t-6.892-16.571"/><path stroke="#fff" stroke-opacity=".07" stroke-width=".801" d="M186.935 176.024q21.833.001 40.074 4.94l1.173.325q17.568 4.941 31.777 11.934l1.879.942.003.002q8.423 4.209 13.308 12.228l.311.521q4.932 8.414 4.931 17.982v9.386c0 6.147-2.115 11.428-6.357 15.862l-.418.426c-4.521 4.52-9.943 6.775-16.288 6.775H116.542c-6.147 0-11.427-2.115-15.861-6.357l-.427-.418c-4.52-4.521-6.775-9.943-6.775-16.288v-9.386q0-9.27 4.628-17.455l.304-.527q4.772-8.142 13.079-12.474l.539-.275.003-.002q13.985-7.13 31.329-12.208l2.327-.668q18.71-5.264 41.247-5.265Zm0-105.589c12.398 0 23.058 4.273 32 12.827l.86.841c9.116 9.116 13.668 20.062 13.668 32.86s-4.552 23.744-13.668 32.86-20.062 13.668-32.86 13.668-23.744-4.553-32.859-13.668c-9.116-9.116-13.668-20.062-13.668-32.86 0-12.398 4.272-23.058 12.826-32l.842-.86c9.115-9.115 20.061-13.668 32.859-13.668Z"/><path fill="#243143" d="M326.107 141.747a10.64 10.64 0 0 0 4.546 1.026q4.987 0 8.36-3.373 3.372-3.372 3.372-8.359 0-2.346-1.026-4.546-1.026-2.199-2.493-3.666a38.7 38.7 0 0 1-7.919-11.439q-2.933-6.453-2.933-13.785 0-7.333 2.933-13.785a38.7 38.7 0 0 1 7.919-11.439q1.467-1.467 2.493-3.813t1.026-4.693q0-4.986-3.372-8.212-3.373-3.227-8.36-3.227-2.346 0-4.546.88-2.199.881-3.666 2.347-8.506 8.505-13.199 19.064-4.692 10.56-4.692 22.585t4.692 22.877a58.55 58.55 0 0 0 13.199 19.065q1.467 1.467 3.666 2.493"/><path fill="#243143" d="M293.257 175.183a10.6 10.6 0 0 0 4.547 1.027q4.986 0 8.359-3.373 3.372-3.373 3.373-8.359 0-2.346-1.027-4.546t-2.493-3.667q-11.732-11.732-18.331-26.837t-6.6-31.823q0-16.717 6.6-31.677 6.599-14.958 18.331-26.69 1.76-1.467 2.64-3.813t.88-4.693q0-4.986-3.373-8.359T297.804 19q-2.347 0-4.547.88t-3.666 2.346q-14.958 14.96-23.464 34.61t-8.506 40.769q0 21.117 8.506 40.622t23.464 34.463q1.467 1.467 3.666 2.493M90.348 48.8q1.601 0 2.706-1.106 1.106-1.105 1.106-2.707t-1.106-2.706q-1.105-1.106-2.707-1.106t-2.706 1.106q-1.106 1.105-1.106 2.706 0 1.602 1.106 2.707 1.105 1.106 2.706 1.106M90.5 61q-6.33 0-11.895-2.402-5.566-2.401-9.684-6.52-4.117-4.116-6.52-9.683Q60.002 36.829 60 30.5q0-6.33 2.402-11.895 2.401-5.566 6.52-9.684 4.116-4.117 9.683-6.52Q84.171.002 90.5 0q6.33 0 11.895 2.402 5.567 2.401 9.684 6.52 4.117 4.116 6.519 9.683Q121 24.171 121 30.5q0 6.33-2.402 11.895-2.402 5.566-6.519 9.684-4.118 4.117-9.684 6.52Q96.829 60.998 90.5 61m.305-43.615q1.905 0 3.317 1.22 1.41 1.22 1.41 3.05 0 1.677-1.029 2.974a19 19 0 0 1-2.326 2.44 20.3 20.3 0 0 0-3.088 3.355 6.8 6.8 0 0 0-1.334 4.117q0 1.069.8 1.792a2.7 2.7 0 0 0 1.869.724q1.143 0 1.944-.762.8-.763 1.03-1.906a6.1 6.1 0 0 1 1.372-2.86 29 29 0 0 1 2.288-2.401 19.5 19.5 0 0 0 3.011-3.66q1.258-1.983 1.258-4.423 0-3.89-3.164-6.367Q95 12.2 90.805 12.2q-2.897 0-5.528 1.22t-4.003 3.736a2.75 2.75 0 0 0-.343 1.945q.19 1.029 1.029 1.563 1.068.61 2.211.381 1.144-.23 1.906-1.296a5.6 5.6 0 0 1 2.097-1.754 5.96 5.96 0 0 1 2.631-.61M96.418 118.4a2 2 0 0 0 1.464-.598q.598-.598.598-1.465 0-.865-.598-1.464a2 2 0 0 0-1.465-.598 2 2 0 0 0-1.464.598 2 2 0 0 0-.598 1.464q0 .867.598 1.465a2 2 0 0 0 1.465.598m.082 6.6q-3.423 0-6.435-1.299-3.011-1.3-5.239-3.527t-3.527-5.239T80 108.5q0-3.424 1.3-6.435 1.299-3.012 3.526-5.239 2.228-2.227 5.239-3.527Q93.077 92 96.5 92t6.435 1.3 5.239 3.526 3.527 5.239Q113 105.075 113 108.5q0 3.423-1.299 6.435-1.3 3.012-3.527 5.239t-5.239 3.527T96.5 125m.165-23.595q1.032 0 1.794.66.764.66.763 1.65 0 .907-.556 1.609-.558.7-1.258 1.32a11 11 0 0 0-1.671 1.815 3.7 3.7 0 0 0-.722 2.227q0 .577.433.97a1.46 1.46 0 0 0 1.01.392 1.47 1.47 0 0 0 1.053-.413q.433-.413.556-1.031.165-.867.743-1.547.577-.68 1.238-1.3a10.6 10.6 0 0 0 1.629-1.979 4.38 4.38 0 0 0 .681-2.393q0-2.104-1.712-3.444-1.713-1.341-3.981-1.341-1.568 0-2.99.66a4.6 4.6 0 0 0-2.166 2.021q-.29.495-.186 1.052.104.556.557.846.578.33 1.196.206.62-.124 1.032-.701a3 3 0 0 1 1.134-.949q.68-.33 1.423-.33"/><path fill="#243143" d="M39.8 85q2.1 0 3.55-1.45T44.8 80t-1.45-3.55T39.8 75t-3.55 1.45T34.8 80t1.45 3.55T39.8 85m.2 16q-8.3 0-15.6-3.15T11.7 89.3 3.15 76.6 0 61t3.15-15.6 8.55-12.7 12.7-8.55T40 21t15.6 3.15 12.7 8.55 8.55 12.7T80 61t-3.15 15.6-8.55 12.7-12.7 8.55T40 101m.4-57.2q2.5 0 4.35 1.6t1.85 4q0 2.2-1.35 3.9t-3.05 3.2a26.6 26.6 0 0 0-4.05 4.4q-1.75 2.4-1.75 5.4 0 1.4 1.05 2.35t2.45.95q1.5 0 2.55-1t1.35-2.5a8.03 8.03 0 0 1 1.8-3.75q1.4-1.65 3-3.15a25.7 25.7 0 0 0 3.95-4.8q1.65-2.6 1.65-5.8 0-5.1-4.15-8.35T40.4 37q-3.8 0-7.25 1.6t-5.25 4.9q-.7 1.2-.45 2.55t1.35 2.05q1.4.8 2.9.5t2.5-1.7q1.1-1.5 2.75-2.3t3.45-.8"/></svg>