<svg xmlns="http://www.w3.org/2000/svg" width="394" height="204" fill="none"><rect width="384" height="220" x="18" y="18" fill="#AFC6FF" fill-opacity=".04" rx="8.01"/><rect width="383.199" height="219.199" x="18.401" y="18.401" stroke="#fff" stroke-opacity=".07" stroke-width=".801" rx="7.609"/><rect width="415.199" height="248.199" x=".4" y="1.4" stroke="#243143" stroke-width=".801" rx="11.6"/><rect width="100" height="9" x="36" y="93" fill="#243143" rx="3.204"/><rect width="76" height="9" x="36" y="107" fill="#243143" rx="3.204"/><rect width="76" height="9" x="36" y="121" fill="#243143" rx="3.204"/><path fill="#243143" d="M204.284 235.868q-6.339-3.905-8.322-10.938-1.983-7.035.827-13.701l7.405-16.756a42 42 0 0 1-4.022-6.352 91 91 0 0 1-3.12-6.766l-18.306-2.876q-7.455-1.039-12.027-6.761t-4.542-13.132l.789-25.997q.03-7.41 5.188-12.63 5.159-5.221 12.54-6.165l18.212-1.704a26 26 0 0 1 1.712-3.305l3.893-6.323a26 26 0 0 1 2.182-3.016l-6.676-17.03q-2.48-7.017-.138-13.972 2.34-6.957 8.944-10.318l22.859-12.405q6.604-3.36 13.771-1.854 7.169 1.507 11.451 7.698l10.808 15.052a75 75 0 0 1 7.563-.187q3.826.096 7.365.66l11.631-14.153q4.688-5.509 11.862-6.905t13.513 2.509l22.07 13.591q6.339 3.904 8.322 10.938t-.828 13.701l-7.404 16.756a42 42 0 0 1 4.022 6.352 91 91 0 0 1 3.119 6.766l18.306 2.876q7.456 1.04 12.028 6.761 4.572 5.722 4.542 13.132l-.789 25.997q-.03 7.41-5.188 12.631-5.159 5.22-12.54 6.164l-18.212 1.704a26 26 0 0 1-1.712 3.305l-3.893 6.323q-.938 1.522-2.417 2.872l6.676 17.029q2.48 7.017.138 13.973-2.34 6.955-8.944 10.317l-23.094 12.261q-6.604 3.362-13.771 1.854-7.168-1.507-11.451-7.698l-10.338-14.763a75 75 0 0 1-7.563.187 56 56 0 0 1-7.365-.66l-11.631 14.153q-4.688 5.51-11.862 6.905t-13.513-2.509zm48.997-53.796q13.617 8.386 29.156 4.713t23.902-17.253q8.364-13.582 4.65-29.11-3.714-15.529-17.331-23.915-13.852-8.531-29.274-4.786-15.42 3.745-23.784 17.326t-4.768 29.037 17.449 23.988M48.33 58l3.77 3.77q.703.703.703 1.756 0 1.054-.703 1.821-.767.767-1.82.767-1.055 0-1.822-.767L42.9 59.79q-.767-.767-.767-1.789t.767-1.789l5.622-5.622q.767-.767 1.79-.735 1.02.033 1.788.799.702.766.735 1.789.031 1.021-.735 1.789zm21.34 0-3.77-3.77q-.703-.703-.703-1.756 0-1.055.703-1.821.767-.767 1.82-.767 1.055 0 1.822.767L75.1 56.21q.767.767.767 1.789t-.767 1.789l-5.622 5.622q-.767.767-1.79.735-1.02-.033-1.788-.799a2.7 2.7 0 0 1-.735-1.789q-.031-1.021.735-1.789zM41.11 81q-2.108 0-3.61-1.501-1.5-1.502-1.501-3.61v-7.667q0-1.085.735-1.82t1.82-.735q1.088 0 1.821.734.735.735.735 1.821v7.667h7.667q1.085 0 1.82.735.735.734.735 1.82t-.734 1.821-1.821.735zm35.778 0h-7.667q-1.085 0-1.82-.735t-.735-1.82q0-1.087.734-1.821.735-.735 1.821-.735h7.667v-7.667q0-1.085.735-1.82.734-.735 1.82-.735t1.821.734.735 1.821v7.667q0 2.108-1.501 3.61-1.502 1.5-3.61 1.501M36 47.778V40.11q0-2.108 1.501-3.61 1.502-1.5 3.61-1.501h7.667q1.085 0 1.82.735t.735 1.82q0 1.088-.734 1.821-.735.735-1.821.735H41.11v7.667q0 1.085-.735 1.82t-1.82.735q-1.086 0-1.821-.734Q36 48.864 36 47.778m40.889 0V40.11h-7.667q-1.085 0-1.82-.735t-.735-1.82q0-1.086.734-1.821.735-.735 1.821-.735h7.667q2.108 0 3.61 1.501 1.5 1.502 1.501 3.61v7.667q0 1.085-.735 1.82t-1.82.735q-1.087 0-1.821-.734-.735-.735-.735-1.821M102.895 42.263q-1.513 0-2.573 1.06-1.059 1.059-1.059 2.572t1.059 2.572q1.06 1.06 2.573 1.06t2.572-1.06 1.059-2.572-1.059-2.573-2.572-1.059m0 24.21q-1.513 0-2.573 1.06-1.059 1.06-1.059 2.572 0 1.514 1.059 2.573 1.06 1.059 2.573 1.059t2.572-1.06 1.059-2.572-1.059-2.572-2.572-1.06M94.421 35h38.737q1.029 0 1.725.696.696.697.696 1.725v16.947q0 1.029-.696 1.725t-1.725.696H94.421q-1.028 0-1.725-.696Q92 55.397 92 54.368V37.421q0-1.028.696-1.725.697-.696 1.725-.696m0 24.21h38.737q1.029 0 1.725.697.696.696.696 1.725v16.947q0 1.028-.696 1.725-.696.696-1.725.696H94.421q-1.028 0-1.725-.696Q92 79.607 92 78.579V61.632q0-1.029.696-1.725.697-.696 1.725-.696"/></svg>