<svg width="61" height="60" viewBox="0 0 61 60" fill="none" xmlns="http://www.w3.org/2000/svg">
<path d="M30.3334 0.5C46.6258 0.5 59.8334 13.7076 59.8334 30C59.8334 46.2924 46.6258 59.5 30.3334 59.5C14.041 59.5 0.833374 46.2924 0.833374 30C0.833374 13.7076 14.041 0.5 30.3334 0.5Z" stroke="url(#paint0_linear_60_5528)"/>
<mask id="mask0_60_5528" style="mask-type:alpha" maskUnits="userSpaceOnUse" x="17" y="17" width="27" height="26">
<rect x="17.3334" y="17" width="26" height="26" fill="#D9D9D9"/>
</mask>
<g mask="url(#mask0_60_5528)">
<path d="M33.9084 40.698C33.6917 40.9146 33.4344 41.023 33.1365 41.023C32.8386 41.023 32.5813 40.9146 32.3646 40.698L30.0084 38.3417C29.7917 38.125 29.6834 37.8723 29.6834 37.5834C29.6834 37.2945 29.7917 37.0417 30.0084 36.825L32.3646 34.4688C32.5813 34.2521 32.8386 34.1438 33.1365 34.1438C33.4344 34.1438 33.6917 34.2521 33.9084 34.4688C34.1251 34.6855 34.2334 34.9382 34.2334 35.2271C34.2334 35.516 34.1251 35.7688 33.9084 35.9855L32.3105 37.5834L33.9084 39.1813C34.1251 39.398 34.2334 39.6507 34.2334 39.9396C34.2334 40.2285 34.1251 40.4813 33.9084 40.698ZM37.5917 40.698C37.3751 40.4813 37.2667 40.2285 37.2667 39.9396C37.2667 39.6507 37.3751 39.398 37.5917 39.1813L39.1896 37.5834L37.5917 35.9855C37.3751 35.7688 37.2667 35.516 37.2667 35.2271C37.2667 34.9382 37.3751 34.6855 37.5917 34.4688C37.8084 34.2521 38.0657 34.1438 38.3636 34.1438C38.6615 34.1438 38.9188 34.2521 39.1355 34.4688L41.4917 36.825C41.7084 37.0417 41.8167 37.2945 41.8167 37.5834C41.8167 37.8723 41.7084 38.125 41.4917 38.3417L39.1355 40.698C38.9188 40.9146 38.6615 41.023 38.3636 41.023C38.0657 41.023 37.8084 40.9146 37.5917 40.698ZM21.6667 38.6667C21.0709 38.6667 20.5608 38.4546 20.1365 38.0303C19.7122 37.6059 19.5001 37.0959 19.5001 36.5V23.5C19.5001 22.9042 19.7122 22.3941 20.1365 21.9698C20.5608 21.5455 21.0709 21.3334 21.6667 21.3334H27.273C27.5619 21.3334 27.8372 21.3875 28.099 21.4959C28.3608 21.6042 28.591 21.7577 28.7896 21.9563L30.3334 23.5H39.0001C39.5959 23.5 40.106 23.7122 40.5303 24.1365C40.9546 24.5608 41.1667 25.0709 41.1667 25.6667V30C41.1667 30.307 41.0629 30.5643 40.8553 30.7719C40.6476 30.9796 40.3903 31.0834 40.0834 31.0834H33.5834C31.7778 31.0834 30.2431 31.7153 28.9792 32.9792C27.7153 34.2431 27.0834 35.7778 27.0834 37.5834C27.0834 37.8903 26.9796 38.1476 26.7719 38.3553C26.5643 38.5629 26.307 38.6667 26.0001 38.6667H21.6667Z" fill="white"/>
</g>
<defs>
<linearGradient id="paint0_linear_60_5528" x1="30.3334" y1="0" x2="30.3334" y2="60" gradientUnits="userSpaceOnUse">
<stop stop-color="#426EFF"/>
<stop offset="1" stop-color="#426EFF" stop-opacity="0.05"/>
</linearGradient>
</defs>
</svg>
