<svg width="60" height="60" viewBox="0 0 60 60" fill="none" xmlns="http://www.w3.org/2000/svg">
<path d="M30 0.5C46.2924 0.5 59.5 13.7076 59.5 30C59.5 46.2924 46.2924 59.5 30 59.5C13.7076 59.5 0.5 46.2924 0.5 30C0.5 13.7076 13.7076 0.5 30 0.5Z" stroke="url(#paint0_linear_60_5524)"/>
<mask id="mask0_60_5524" style="mask-type:alpha" maskUnits="userSpaceOnUse" x="17" y="17" width="26" height="26">
<rect x="17" y="17" width="26" height="26" fill="#D9D9D9"/>
</mask>
<g mask="url(#mask0_60_5524)">
<path d="M22.2 28.9167L24.2584 26.8583C24.457 26.6597 24.5563 26.4069 24.5563 26.1C24.5563 25.7931 24.457 25.5403 24.2584 25.3417C24.0597 25.1431 23.807 25.0438 23.5 25.0438C23.1931 25.0438 22.9403 25.1431 22.7417 25.3417L19.925 28.1583C19.7084 28.375 19.6 28.6278 19.6 28.9167C19.6 29.2056 19.7084 29.4583 19.925 29.675L22.7417 32.4917C22.9403 32.6903 23.1931 32.7896 23.5 32.7896C23.807 32.7896 24.0597 32.6903 24.2584 32.4917C24.457 32.2931 24.5563 32.0403 24.5563 31.7333C24.5563 31.4264 24.457 31.1736 24.2584 30.975L22.2 28.9167ZM37.8 28.9167L35.7417 30.975C35.5431 31.1736 35.4438 31.4264 35.4438 31.7333C35.4438 32.0403 35.5431 32.2931 35.7417 32.4917C35.9403 32.6903 36.1931 32.7896 36.5 32.7896C36.807 32.7896 37.0597 32.6903 37.2584 32.4917L40.075 29.675C40.2917 29.4583 40.4 29.2056 40.4 28.9167C40.4 28.6278 40.2917 28.375 40.075 28.1583L37.2584 25.3417C37.0597 25.1431 36.807 25.0438 36.5 25.0438C36.1931 25.0438 35.9403 25.1431 35.7417 25.3417C35.5431 25.5403 35.4438 25.7931 35.4438 26.1C35.4438 26.4069 35.5431 26.6597 35.7417 26.8583L37.8 28.9167ZM26.75 39.75C26.4431 39.75 26.1858 39.6462 25.9781 39.4385C25.7705 39.2309 25.6667 38.9736 25.6667 38.6667V37.5833H21.3334C20.7375 37.5833 20.2275 37.3712 19.8031 36.9469C19.3788 36.5226 19.1667 36.0125 19.1667 35.4167V22.4167C19.1667 21.8208 19.3788 21.3108 19.8031 20.8865C20.2275 20.4622 20.7375 20.25 21.3334 20.25H38.6667C39.2625 20.25 39.7726 20.4622 40.1969 20.8865C40.6212 21.3108 40.8334 21.8208 40.8334 22.4167V35.4167C40.8334 36.0125 40.6212 36.5226 40.1969 36.9469C39.7726 37.3712 39.2625 37.5833 38.6667 37.5833H34.3334V38.6667C34.3334 38.9736 34.2295 39.2309 34.0219 39.4385C33.8143 39.6462 33.557 39.75 33.25 39.75H26.75Z" fill="white"/>
</g>
<defs>
<linearGradient id="paint0_linear_60_5524" x1="30" y1="0" x2="30" y2="60" gradientUnits="userSpaceOnUse">
<stop stop-color="#426EFF"/>
<stop offset="1" stop-color="#426EFF" stop-opacity="0.05"/>
</linearGradient>
</defs>
</svg>
