<svg xmlns="http://www.w3.org/2000/svg" width="394" height="203" fill="none"><rect width="209" height="201" x="193" y="18" fill="#AFC6FF" fill-opacity=".04" rx="8.01"/><rect width="208.199" height="200.199" x="193.4" y="18.401" stroke="#fff" stroke-opacity=".07" stroke-width=".801" rx="7.609"/><rect width="54" height="15" x="18" y="136" fill="#243143" rx="3.204"/><rect width="136" height="9" x="18" y="159" fill="#243143" rx="3.204"/><rect width="87" height="12" x="206" y="130" fill="#243143" rx="3.204"/><rect width="136" height="9" x="18" y="173" fill="#243143" rx="3.204"/><rect width="70" height="12" x="206" y="149" fill="#243143" rx="3.204"/><rect width="136" height="9" x="18" y="187" fill="#243143" rx="3.204"/><rect width="36" height="28" x="18" y="18" fill="#243143" rx="3.204"/><rect width="36" height="28" x="85" y="18" fill="#243143" rx="3.204"/><rect width="36" height="28" x="85" y="93" fill="#243143" rx="3.204"/><rect width="36" height="28" x="18" y="93" fill="#243143" rx="3.204"/><rect width="44" height="44" x="136" y="77" fill="#243143" rx="3.204"/><rect width="44" height="44" x="136" y="18" fill="#243143" rx="3.204"/><rect width="415.199" height="248.199" x=".4" y=".4" stroke="#243143" stroke-width=".801" rx="11.6"/><path fill="#243143" d="M32.714 121q-6.069 0-10.392-4.322Q18 112.355 18 106.286V32.714q0-6.069 4.322-10.392Q26.645 18 32.714 18h73.572q6.069 0 10.392 4.322Q121 26.645 121 32.714v73.572q0 6.069-4.322 10.392Q112.355 121 106.286 121zm110.357-58.857q-3.126 0-5.242-2.115t-2.115-5.242V25.357q0-3.126 2.115-5.242T143.071 18H172.5q3.127 0 5.242 2.115t2.115 5.242v29.429q0 3.127-2.115 5.242t-5.242 2.115zm-103 29.428H98.93l-19.313-25.75-13.795 18.393-10.116-13.427zm103 29.429q-3.126 0-5.242-2.115t-2.115-5.242V84.214q0-3.126 2.115-5.242t5.242-2.115H172.5q3.127 0 5.242 2.115t2.115 5.242v29.429q0 3.126-2.115 5.242T172.5 121zM290.983 73.318c1.104-.031 1.979-.952 1.896-2.054a43.5 43.5 0 0 0-27.485-37.256c-1.028-.404-2.167.16-2.523 1.205l-5.774 16.966c-.356 1.046.208 2.174 1.216 2.625a21.58 21.58 0 0 1 12.607 17.088c.133 1.096 1.044 1.968 2.149 1.937zM260.132 34.68c.276-1.07-.368-2.165-1.449-2.39A43.43 43.43 0 0 0 211.13 55.04c-.503.984-.054 2.172.952 2.629l16.286 7.397c1.006.457 2.183.006 2.731-.953a21.55 21.55 0 0 1 22.119-10.582c1.09.175 2.18-.46 2.455-1.529zM211.144 59.906c-1.031-.397-2.193.115-2.542 1.163a43.4 43.4 0 0 0-2.228 13.429c-.008 1.104.926 1.965 2.03 1.921l17.874-.697c1.104-.043 1.954-.974 2.013-2.077.086-1.587.347-3.16.779-4.69.299-1.064-.204-2.22-1.235-2.617zM208.559 78.727c-1.1.104-1.911 1.081-1.756 2.175a43.43 43.43 0 0 0 37.833 37.025c1.097.132 2.056-.7 2.137-1.802l1.309-17.84c.081-1.101-.749-2.05-1.839-2.233a21.54 21.54 0 0 1-17.605-17.229c-.206-1.085-1.172-1.894-2.272-1.79zM249.5 116c0 1.105.896 2.005 1.999 1.954a43.5 43.5 0 0 0 41.343-39.744c.094-1.1-.771-2.031-1.874-2.075l-17.908-.706c-1.104-.044-2.024.818-2.17 1.913a21.58 21.58 0 0 1-19.393 18.644c-1.1.102-1.997.987-1.997 2.092z"/></svg>