<svg xmlns="http://www.w3.org/2000/svg" width="237" height="92" fill="none"><circle cx="53.035" cy="75.685" r="8.839" fill="#AFC6FF" fill-opacity=".04"/><circle cx="53.035" cy="75.685" r="8.439" stroke="#fff" stroke-opacity=".07" stroke-width=".801"/><circle cx="30.937" cy="75.685" r="8.839" fill="#AFC6FF" fill-opacity=".04"/><circle cx="30.937" cy="75.685" r="8.439" stroke="#fff" stroke-opacity=".07" stroke-width=".801"/><circle cx="8.839" cy="75.685" r="8.839" fill="#AFC6FF" fill-opacity=".04"/><circle cx="8.839" cy="75.685" r="8.439" stroke="#fff" stroke-opacity=".07" stroke-width=".801"/><path fill="#1D2632" d="M91.037 42.236a6 6 0 0 0 0 6.683l17.609 26.265c2.673 3.986-.184 9.341-4.983 9.341H89.53a6 6 0 0 1-4.983-2.659L62.457 48.92a6 6 0 0 1 0-6.683L84.547 9.29a6 6 0 0 1 4.983-2.66h14.133c4.799 0 7.656 5.356 4.983 9.342z"/><path stroke="#fff" stroke-opacity=".07" d="M89.53 7.13h14.133c4.262 0 6.853 4.607 4.783 8.217l-.216.345-17.609 26.266a6.5 6.5 0 0 0-.133 7.032l.133.207 17.609 26.265c2.45 3.654-.168 8.563-4.567 8.563H89.53a5.5 5.5 0 0 1-4.369-2.159l-.2-.278L62.873 48.64a5.5 5.5 0 0 1-.112-5.95l.112-.176 22.09-32.948a5.5 5.5 0 0 1 4.227-2.426z"/><path fill="#1D2632" d="M181.32 42.236a6 6 0 0 1 0 6.683l-17.61 26.265c-2.672 3.986.185 9.341 4.984 9.341h14.132a6 6 0 0 0 4.984-2.659L209.9 48.92a6 6 0 0 0 0-6.683L187.81 9.29a6 6 0 0 0-4.984-2.66h-14.132c-4.799 0-7.656 5.356-4.984 9.342z"/><path stroke="#fff" stroke-opacity=".07" d="M182.826 7.13h-14.132c-4.262 0-6.853 4.607-4.784 8.217l.216.345 17.61 26.266a6.5 6.5 0 0 1 .132 7.032l-.132.207-17.61 26.265c-2.45 3.654.169 8.563 4.568 8.563h14.132c1.72 0 3.333-.803 4.37-2.159l.199-.278 22.09-32.947a5.5 5.5 0 0 0 .112-5.95l-.112-.176-22.09-32.948a5.5 5.5 0 0 0-4.227-2.426z"/><path fill="#1D2632" d="M130.132 5.066A6 6 0 0 1 136.059 0h12.712c3.686 0 6.5 3.293 5.927 6.934l-12.473 79.154a6 6 0 0 1-5.927 5.066h-12.712c-3.686 0-6.501-3.293-5.927-6.934z"/><path stroke="#fff" stroke-opacity=".07" d="M136.059.5h12.712c3.273 0 5.797 2.832 5.473 6.044l-.04.312L141.73 86.01a5.5 5.5 0 0 1-5.432 4.644h-12.712c-3.274 0-5.797-2.833-5.474-6.045l.041-.311 12.473-79.154A5.5 5.5 0 0 1 136.059.5Z"/><rect width="56.35" height="22.098" x="180.65" y="55.797" fill="#AFC6FF" fill-opacity=".04" rx="6"/><rect width="55.549" height="21.297" x="181.051" y="56.198" stroke="#fff" stroke-opacity=".07" stroke-width=".801" rx="5.6"/><path fill="#fff" fill-opacity=".07" d="M193.895 67.746v4.1h-1.917v-9.553h1.917v3.796h3.879v-3.796h1.911v9.553h-1.911v-4.1zm11.344-3.809v7.91h-1.911v-7.91h-2.488v-1.644h6.881v1.644zm5.541 2.031v5.878h-1.917v-9.553h1.587l2.876 4.043 2.869-4.043h1.58v9.553h-1.91v-5.859l-2.254 3.161h-.584zm14.885 4.228v1.65h-6.734v-9.553h1.917v7.903z"/><rect width="50.273" height="22.098" x="37.014" y="11.049" fill="#AFC6FF" fill-opacity=".04" rx="6"/><rect width="49.472" height="21.297" x="37.414" y="11.45" stroke="#fff" stroke-opacity=".07" stroke-width=".801" rx="5.6"/><path fill="#fff" fill-opacity=".07" d="M53.72 27.25a5 5 0 0 1-1.897-.349 4.7 4.7 0 0 1-1.498-.97 4.8 4.8 0 0 1-.997-1.41 5.2 5.2 0 0 1-.463-2.196 5.2 5.2 0 0 1 .463-2.197 4.62 4.62 0 0 1 2.495-2.374 5 5 0 0 1 1.898-.349q1.136 0 2.082.445a4.66 4.66 0 0 1 1.625 1.231q.266.318.514.73.095.153.108.197l.032.082-1.645.857-.057-.12-.057-.115a3.2 3.2 0 0 0-.33-.546 2.8 2.8 0 0 0-.984-.8 2.8 2.8 0 0 0-1.288-.298q-.667 0-1.213.248-.54.247-.92.68a2.9 2.9 0 0 0-.578.97 4 4 0 0 0-.228 1.359q0 .723.228 1.352.197.546.572.977.38.432.926.68.546.247 1.213.247.697 0 1.27-.28.57-.285.983-.793.158-.19.356-.533l.12-.222 1.619.882-.038.083-.051.089a4.7 4.7 0 0 1-1.028 1.263q-.636.552-1.46.87a5 5 0 0 1-1.771.31m9.592 0a4.3 4.3 0 0 1-2.133-.533 4.07 4.07 0 0 1-1.498-1.434 4.7 4.7 0 0 1-.419-.94l-.025-.082 1.752-.73.031.133q.242.85.8 1.384.56.533 1.492.533.647 0 1.08-.273a.88.88 0 0 0 .43-.78q0-.33-.12-.534a.9.9 0 0 0-.362-.343 3 3 0 0 0-.64-.266q-.21-.064-.82-.235-.406-.102-.819-.229-1.162-.36-1.815-1.053-.648-.692-.647-1.689 0-.786.425-1.422a2.9 2.9 0 0 1 1.193-.996q.762-.362 1.72-.362 1.054 0 1.93.457.882.45 1.41 1.231.26.38.456.94l.026.082-1.74.768-.038-.127q-.253-.78-.73-1.237-.475-.457-1.3-.457-.642 0-1.042.279-.4.273-.4.78 0 .82 1.155 1.175a18 18 0 0 0 .813.229l.743.209q1.212.362 1.866 1.022t.654 1.695a2.5 2.5 0 0 1-.445 1.46q-.438.634-1.218.99-.781.355-1.765.355m8.67 0a4.3 4.3 0 0 1-2.132-.533 4.07 4.07 0 0 1-1.498-1.434 4.7 4.7 0 0 1-.419-.94l-.025-.082 1.752-.73.031.133q.242.85.8 1.384.56.533 1.492.533.647 0 1.079-.273a.88.88 0 0 0 .432-.78q0-.33-.121-.534a.9.9 0 0 0-.362-.343 3 3 0 0 0-.64-.266q-.21-.064-.82-.235-.406-.102-.819-.229-1.162-.36-1.815-1.053-.648-.692-.648-1.689 0-.786.426-1.422a2.9 2.9 0 0 1 1.193-.996q.762-.362 1.72-.362 1.054 0 1.93.457.882.45 1.41 1.231.26.38.456.94l.026.082-1.74.768-.038-.127q-.253-.78-.73-1.237-.475-.457-1.301-.457-.64 0-1.041.279-.4.273-.4.78 0 .82 1.155 1.175a18 18 0 0 0 .813.229l.743.209q1.212.362 1.866 1.022t.654 1.695a2.5 2.5 0 0 1-.445 1.46q-.438.634-1.218.99-.782.355-1.765.355"/></svg>