<svg xmlns="http://www.w3.org/2000/svg" width="523" height="165" fill="none"><circle cx="190" cy="137" r="16" fill="#AFC6FF" fill-opacity=".04"/><circle cx="190" cy="137" r="15.6" stroke="#fff" stroke-opacity=".07" stroke-width=".801"/><circle cx="150" cy="137" r="16" fill="#AFC6FF" fill-opacity=".04"/><circle cx="150" cy="137" r="15.6" stroke="#fff" stroke-opacity=".07" stroke-width=".801"/><circle cx="110" cy="137" r="16" fill="#AFC6FF" fill-opacity=".04"/><circle cx="110" cy="137" r="15.6" stroke="#fff" stroke-opacity=".07" stroke-width=".801"/><path fill="#1D2632" d="M256.973 79.159a6 6 0 0 0 0 6.682l38.764 57.818c2.673 3.986-.184 9.341-4.983 9.341h-37.286c-2 0-3.869-.997-4.983-2.659l-43.245-64.5a6 6 0 0 1 0-6.682l43.245-64.5A6 6 0 0 1 253.468 12h37.286c4.799 0 7.656 5.355 4.983 9.341z"/><path stroke="#fff" stroke-opacity=".07" d="M253.468 12.5h37.286c4.262 0 6.852 4.607 4.783 8.217l-.215.346-38.764 57.817a6.5 6.5 0 0 0-.133 7.032l.133.208 38.764 57.818c2.45 3.653-.169 8.562-4.568 8.562h-37.286a5.5 5.5 0 0 1-4.368-2.159l-.201-.279-43.244-64.5a5.5 5.5 0 0 1-.112-5.95l.112-.174 43.244-64.5a5.5 5.5 0 0 1 4.569-2.438Z"/><path fill="#1D2632" d="M424.027 79.159a6 6 0 0 1 0 6.682l-38.764 57.818c-2.673 3.986.184 9.341 4.983 9.341h37.286c2 0 3.869-.997 4.983-2.659l43.245-64.5a6 6 0 0 0 0-6.682l-43.245-64.5A6 6 0 0 0 427.532 12h-37.286c-4.799 0-7.656 5.355-4.983 9.341z"/><path stroke="#fff" stroke-opacity=".07" d="M427.532 12.5h-37.286c-4.262 0-6.852 4.607-4.783 8.217l.215.346 38.764 57.817a6.5 6.5 0 0 1 .133 7.032l-.133.208-38.764 57.818c-2.45 3.653.169 8.562 4.568 8.562h37.286a5.5 5.5 0 0 0 4.368-2.159l.201-.279 43.244-64.5a5.5 5.5 0 0 0 .112-5.95l-.112-.174-43.244-64.5a5.5 5.5 0 0 0-4.569-2.438Z"/><path fill="#1D2632" d="M330.202 5.066A6 6 0 0 1 336.129 0h32.852c3.686 0 6.5 3.293 5.926 6.934l-24.109 153a6 6 0 0 1-5.927 5.066h-32.852c-3.686 0-6.5-3.293-5.926-6.934z"/><path stroke="#fff" stroke-opacity=".07" d="M336.129.5h32.851a5.5 5.5 0 0 1 5.474 6.044l-.041.312-24.108 153a5.5 5.5 0 0 1-5.434 4.644H312.02a5.5 5.5 0 0 1-5.474-6.044l.041-.312 24.108-153A5.5 5.5 0 0 1 336.129.5Z"/><rect width="102" height="40" x="421" y="101" fill="#AFC6FF" fill-opacity=".04" rx="6"/><rect width="101.199" height="39.199" x="421.4" y="101.4" stroke="#fff" stroke-opacity=".07" stroke-width=".801" rx="5.6"/><path fill="#fff" fill-opacity=".07" d="M449.031 121.691V128h-2.949v-14.697h2.949v5.84h5.967v-5.84h2.94V128h-2.94v-6.309zm17.451-5.859V128h-2.939v-12.168h-3.828v-2.529h10.586v2.529zm8.526 3.125V128h-2.949v-14.697h2.441l4.424 6.22 4.414-6.22h2.432V128h-2.94v-9.014l-3.467 4.864h-.898zm22.9 6.504V128h-10.361v-14.697h2.949v12.158z"/><rect width="91" height="40" x="161" y="20" fill="#AFC6FF" fill-opacity=".04" rx="6"/><rect width="90.199" height="39.199" x="161.4" y="20.401" stroke="#fff" stroke-opacity=".07" stroke-width=".801" rx="5.6"/><path fill="#fff" fill-opacity=".07" d="M193.531 47.234q-1.582 0-2.92-.537a7.2 7.2 0 0 1-2.304-1.494 7.3 7.3 0 0 1-1.534-2.168q-.712-1.552-.712-3.379 0-1.825.712-3.379a7.088 7.088 0 0 1 3.838-3.652q1.339-.537 2.92-.537 1.748 0 3.203.684 1.465.673 2.5 1.894.41.489.791 1.123.147.234.166.303l.049.127-2.529 1.318-.088-.185-.088-.176a5 5 0 0 0-.508-.84 4.3 4.3 0 0 0-1.513-1.23 4.34 4.34 0 0 0-1.983-.46q-1.025 0-1.865.381a4.2 4.2 0 0 0-1.416 1.045 4.5 4.5 0 0 0-.889 1.494 6.1 6.1 0 0 0-.351 2.09q0 1.114.351 2.08.303.84.879 1.504a4.2 4.2 0 0 0 1.426 1.045q.84.381 1.865.381 1.074 0 1.953-.43a4.6 4.6 0 0 0 1.514-1.22q.244-.295.547-.82l.185-.343 2.491 1.358-.059.127-.078.137a7.2 7.2 0 0 1-1.582 1.943 7.5 7.5 0 0 1-2.246 1.338 7.7 7.7 0 0 1-2.725.478m14.756 0q-1.806 0-3.281-.82a6.26 6.26 0 0 1-2.305-2.207q-.351-.576-.644-1.445l-.039-.127 2.695-1.123.049.205q.37 1.308 1.23 2.129.86.82 2.295.82.996 0 1.66-.42.664-.43.664-1.201 0-.508-.185-.82a1.4 1.4 0 0 0-.557-.528q-.362-.215-.986-.41a82 82 0 0 0-1.26-.361 24 24 0 0 1-1.26-.352q-1.787-.556-2.793-1.62-.996-1.065-.996-2.599 0-1.21.655-2.187.663-.977 1.835-1.533 1.173-.557 2.647-.557 1.621 0 2.969.703a5.7 5.7 0 0 1 2.168 1.895q.4.585.703 1.445l.039.127-2.676 1.182-.059-.196q-.39-1.2-1.123-1.904-.732-.703-2.002-.703-.986 0-1.601.43-.615.42-.615 1.2 0 1.26 1.777 1.808a28 28 0 0 0 1.25.351l1.143.322q1.864.557 2.871 1.572 1.005 1.017 1.006 2.608 0 1.26-.684 2.246-.674.977-1.875 1.523-1.202.547-2.715.547m13.34 0q-1.806 0-3.281-.82a6.26 6.26 0 0 1-2.305-2.207q-.351-.576-.645-1.445l-.039-.127 2.696-1.123.049.205q.37 1.308 1.23 2.129.86.82 2.295.82.996 0 1.66-.42.664-.43.664-1.201 0-.508-.185-.82a1.4 1.4 0 0 0-.557-.528q-.362-.215-.986-.41a82 82 0 0 0-1.26-.361 24 24 0 0 1-1.26-.352q-1.786-.556-2.793-1.62-.996-1.065-.996-2.599 0-1.21.654-2.187.665-.977 1.836-1.533 1.173-.557 2.647-.557 1.621 0 2.969.703a5.7 5.7 0 0 1 2.168 1.895q.4.585.703 1.445l.039.127-2.676 1.182-.059-.196q-.39-1.2-1.123-1.904-.732-.703-2.002-.703-.986 0-1.601.43-.615.42-.615 1.2 0 1.26 1.777 1.808a28 28 0 0 0 1.25.351l1.142.322q1.866.557 2.872 1.572 1.005 1.017 1.005 2.608 0 1.26-.683 2.246-.674.977-1.875 1.523-1.201.547-2.715.547"/><mask id="a" fill="#fff"><path d="M73.226 22c17.789 0 32.757 12.065 37.174 28.459 1.003 3.725 5.016 6.267 8.874 6.267 11.674 0 21.138 9.463 21.138 21.137 0 11.492-9.17 20.84-20.592 21.13l-.546.007H28.692a.005.005 0 0 1-.006-.005.005.005 0 0 0-.005-.006q-.373.01-.75.011C12.507 99 0 86.494 0 71.068s12.506-27.93 27.932-27.93c1.541 0 3.054.125 4.528.366 3.162.516 6.492-.845 8.205-3.553C47.486 29.164 59.519 22 73.225 22"/></mask><path fill="#AFC6FF" fill-opacity=".04" d="M73.226 22c17.789 0 32.757 12.065 37.174 28.459 1.003 3.725 5.016 6.267 8.874 6.267 11.674 0 21.138 9.463 21.138 21.137 0 11.492-9.17 20.84-20.592 21.13l-.546.007H28.692a.005.005 0 0 1-.006-.005.005.005 0 0 0-.005-.006q-.373.01-.75.011C12.507 99 0 86.494 0 71.068s12.506-27.93 27.932-27.93c1.541 0 3.054.125 4.528.366 3.162.516 6.492-.845 8.205-3.553C47.486 29.164 59.519 22 73.225 22"/><path fill="#fff" fill-opacity=".07" d="M73.226 22v-.801zm67.186 55.863h.801zm-20.592 21.13.01.801h.011zm-.546.007v.801h.01zm-91.342 0v.801zM0 71.068h-.801zm27.932-27.93v-.801zm.75 55.851.02.801zm11.983-59.038.677.428zM73.225 22v.801c17.418 0 32.077 11.813 36.401 27.866l.774-.209.773-.208C106.665 33.516 91.386 21.2 73.226 21.2zm46.049 34.726v.8c11.232 0 20.337 9.106 20.337 20.337h1.602c0-12.116-9.822-21.938-21.939-21.938zm21.138 21.137h-.801c0 11.056-8.823 20.051-19.811 20.33l.02.8.021.8c11.854-.3 21.372-10.003 21.372-21.93zm-20.592 21.13-.01-.8-.546.006.01.801.01.8.546-.006zm-.546.007v-.801H28.692v1.602h90.582zm-90.593-.01-.021-.801q-.366.01-.728.01v1.602q.389 0 .77-.01zm-.75.01v-.801c-14.983 0-27.13-12.147-27.13-27.13H-.801c0 15.868 12.864 28.732 28.733 28.732zM0 71.068h.801c0-14.983 12.147-27.13 27.13-27.13v-1.601C12.064 42.337-.8 55.2-.8 71.068zm27.932-27.93v.8c1.498 0 2.967.122 4.399.356l.129-.79.129-.79a29 29 0 0 0-4.657-.377zm12.733-3.187.677.428c6.68-10.565 18.463-17.578 31.884-17.578v-1.602c-13.993 0-26.276 7.314-33.238 18.324zM28.687 98.995h.8a.806.806 0 0 0-.827-.806l.021.8.021.801a.796.796 0 0 1-.816-.795zm3.773-55.491-.13.79c3.455.564 7.114-.914 9.012-3.915l-.677-.428-.677-.428c-1.528 2.416-4.528 3.659-7.4 3.19zM28.692 99v-.801c.439 0 .796.356.796.796h-1.602c0 .445.361.806.806.806zM110.4 50.459l-.774.208c1.116 4.143 5.504 6.86 9.648 6.86v-1.602c-3.571 0-7.21-2.367-8.101-5.675z" mask="url(#a)"/></svg>