<svg xmlns="http://www.w3.org/2000/svg" fill="none" viewBox="0 0 82 18"><g clip-path="url(#a)"><path d="M62.826 6.021h-1.699a.716.716 0 0 1-.518-.217l-.688-.727a.56.56 0 0 0-.405-.17.557.557 0 0 0-.405.17l-.591.624a1.053 1.053 0 0 1-.764.321H48.46a8.432 8.432 0 0 0-.506 2.222h8.777a.584.584 0 0 0 .409-.163l.818-.796a.559.559 0 0 1 .39-.156h.034c.154 0 .302.062.405.17l.688.727c.132.138.32.218.518.218h7.164a8.436 8.436 0 0 0-.506-2.222h-3.824Zm-9.56 6.893a.584.584 0 0 0 .408-.163l.818-.796a.559.559 0 0 1 .39-.156h.034c.155 0 .303.062.405.17l.689.727a.714.714 0 0 0 .517.218h9.71c.363-.702.63-1.456.788-2.244h-9.319a.715.715 0 0 1-.517-.218l-.689-.726a.56.56 0 0 0-.405-.17.557.557 0 0 0-.405.17l-.591.624a1.053 1.053 0 0 1-.763.32h-6.25a8.52 8.52 0 0 0 .79 2.244h4.39Zm6.887-9.32a.584.584 0 0 0 .409-.163l.817-.796a.559.559 0 0 1 .39-.155h.034c.155 0 .303.061.405.17l.689.727c.131.138.32.217.517.217h1.847C63.502 1.412 60.705 0 57.556 0c-3.15 0-5.947 1.412-7.706 3.594h10.304Zm-3.709 11.544H53.92a.715.715 0 0 1-.518-.218l-.688-.727a.56.56 0 0 0-.406-.17.557.557 0 0 0-.405.17l-.59.624a1.053 1.053 0 0 1-.764.321h-.04C52.27 16.898 54.774 18 57.556 18s5.286-1.102 7.045-2.862h-8.155Zm-41.494 2.28-1.961-4.447H4.228l-1.961 4.447H0L8.595.58l8.621 16.837H14.95Zm-9.984-6.136h7.259L8.584 4.11l-3.617 7.173Zm15.381 6.136V.58h5.018c3.922 0 5.984 1.689 5.984 4.851 0 3.163-2.19 4.804-6.01 4.804h-2.878v7.182h-2.114Zm2.114-8.942h2.394c3.031 0 4.356-.927 4.356-3.044 0-2.116-1.35-3.091-4.356-3.091h-2.394v6.135Zm16.566-6.088h-6.214V.581h14.542v1.807h-6.214v15.03h-2.114V2.388ZM70.132 14.35l1.82-1.153.142.273c1.12 1.902 2.342 2.663 4.202 2.663 2.062 0 3.514-1.331 3.514-2.949 0-1.522-.815-2.544-4.075-3.805-3.743-1.45-5.017-2.949-5.017-5.088 0-2.331 1.96-4.162 5.348-4.162 2.496 0 4.202.999 5.17 2.616l-1.477.951-.433-.095c-.764-1.118-1.707-1.76-3.311-1.76-1.961 0-3.107 1.023-3.107 2.402 0 1.284.738 2.02 3.922 3.376C80.98 9.38 82 10.83 82 13.161c0 2.544-2.343 4.708-5.68 4.708-2.801 0-4.737-1-6.188-3.52v.001Z" fill="#fff"/></g><defs><clipPath id="a"><path d="M0 0h82v18H0z" fill="#fff"/></clipPath></defs></svg>