<svg xmlns="http://www.w3.org/2000/svg" width="106" height="28" fill="none"><path fill="#fff" d="m41.216 20.963-4.9-13.901h-4.604l-4.9 13.9h2.534l1.36-3.986h6.616l1.36 3.987zM34.023 7.355l2.61 7.609h-5.238zM44.317 11.104h-2.31v9.859h2.329v-5.524c0-1.72.876-2.305 2.683-2.305h.634v-2.25c-1.938 0-2.945 1.135-3.336 2.616zM53.035 21.182c2.404 0 4.324-1.28 4.827-3.621h-2.348c-.373 1.28-1.156 2.012-2.479 2.012-1.677 0-2.665-1.354-2.665-3.549 0-2.158.97-3.53 2.665-3.53 1.342 0 2.106.915 2.367 2.049h2.367c-.43-2.195-2.162-3.658-4.734-3.658-3.019 0-5.031 2.066-5.031 5.14 0 3.072 1.994 5.157 5.031 5.157M64.658 10.885c-1.734 0-2.721 1.024-3.187 2.231V7.062H59.16v13.9h2.33v-5.724c0-1.884.82-2.725 2.124-2.725 1.323 0 2.124.823 2.124 2.688v5.762h2.33v-6.201c0-2.195-1.1-3.877-3.41-3.877M80.912 20.725l-1.676-9.62h-4.138l-1.677 9.62-2.087-9.62h-2.18l2.161 9.858h4.212l1.64-9.64 1.64 9.64h4.212l2.16-9.859H83zM90.499 10.885c-2.46 0-4.175 1.225-4.417 3.164h2.348c.13-.823.82-1.555 2.069-1.555 1.398 0 2.068.933 2.068 2.085v.165l-2.664.274c-1.901.183-4.156.677-4.156 2.964 0 1.865 1.527 3.2 3.428 3.2 1.92 0 2.777-.877 3.41-2.176v1.957h2.312V14.67c0-2.012-1.305-3.786-4.398-3.786m-.43 8.853c-1.061 0-1.956-.64-1.956-1.756 0-1.28 1.38-1.464 2.647-1.61l1.807-.183v.585c0 1.646-.838 2.964-2.497 2.964M100.875 19.573l-3.056-8.469H95.47l3.224 8.798h2.068l-1.472 4.646h2.404L106 11.104h-2.442zM0 14.051c0-5.8 4.802-10.503 10.725-10.503 5.922 0 10.724 4.702 10.724 10.503v10.326c-.006-5.75-4.805-10.41-10.724-10.41C4.802 13.968 0 18.634 0 24.388z"/></svg>