<svg xmlns="http://www.w3.org/2000/svg" width="106" height="26" fill="none"><g fill="#fff" clip-path="url(#a)"><path d="M34.621 6.696c.248 0 .464.047.635.148q.258.151.508.58l3.273 5.733q.05.096.022.16-.027.064-.143.063h-1.26q-.166-.001-.225-.122l-.702-1.23h-4.654l-.685 1.23c-.044.085-.121.123-.226.123h-1.286q-.132 0-.155-.064-.026-.064.022-.16l3.252-5.737q.247-.43.486-.58.238-.152.552-.15h.585zm-1.927 4.22h3.412l-1.574-2.8c-.027-.042-.06-.069-.11-.069h-.06q-.069-.002-.11.07zM46.248 6.696c.762 0 1.303.165 1.634.495q.498.495.497 1.469v.543q0 .82-.347 1.298t-1.132.612l1.695 2.023q.051.048.027.143c-.01.064-.066.096-.16.096h-1.275a.4.4 0 0 1-.177-.027.4.4 0 0 1-.1-.096l-1.567-1.985H42.14v1.9q0 .208-.216.208h-1.07c-.155 0-.227-.07-.227-.208V6.982q0-.287.298-.287h5.322m-4.102 3.406h3.793q.505 0 .712-.208.209-.207.21-.638v-.4q-.002-.43-.21-.638-.207-.208-.712-.208h-3.666c-.088 0-.127.037-.127.117zM56.666 6.696q1.02 0 1.452.393.431.392.431 1.182v.458q.001.798-.635 1.213c.453.256.685.666.685 1.23v.554q.002.383-.088.686c-.061.203-.155.378-.293.522a1.3 1.3 0 0 1-.54.33 2.7 2.7 0 0 1-.834.117h-5.885q-.3 0-.299-.287v-6.11q0-.288.299-.288zm-4.488 2.778h4.063c.332 0 .552-.048.673-.143.121-.096.177-.235.177-.42v-.325q.001-.293-.17-.437-.177-.137-.559-.138H52.31c-.088 0-.127.043-.127.122v1.342zm0 1.038v1.42c0 .086.044.123.127.123h4.063q.398 0 .563-.138c.11-.09.171-.24.171-.442v-.362q0-.297-.182-.447-.181-.154-.679-.155zM62.292 6.696q.215 0 .215.207v6.265q0 .208-.215.208H61.22c-.154 0-.226-.07-.226-.208V6.903q.001-.207.226-.207zM72.67 6.696c.156 0 .227.069.227.207v.937c0 .149-.077.218-.226.218h-3.108v5.11q0 .207-.216.207h-1.082q-.216 0-.216-.208v-5.11h-3.108c-.154 0-.226-.074-.226-.217v-.937q.001-.207.226-.207zM80.505 6.696c.761 0 1.303.165 1.634.495q.497.495.497 1.469v.543q0 .82-.348 1.298-.346.479-1.131.612l1.694 2.023q.052.048.028.143-.018.096-.16.096h-1.276a.4.4 0 0 1-.177-.027.4.4 0 0 1-.099-.096l-1.568-1.985h-3.202v1.9q0 .208-.215.208h-1.07c-.155 0-.227-.07-.227-.208V6.982q0-.287.298-.287h5.322m-4.097 3.406h3.793q.506 0 .713-.208.209-.207.21-.638v-.4q-.002-.43-.21-.638-.207-.208-.713-.208h-3.665c-.089 0-.127.037-.127.117zM86.076 6.696q.215 0 .215.207v3.81q0 .386.066.635a.83.83 0 0 0 .216.399q.147.152.403.207c.171.043.38.064.64.064h2.744c.26 0 .47-.02.64-.064a.87.87 0 0 0 .404-.207.83.83 0 0 0 .21-.4c.038-.17.06-.377.06-.633v-3.81q0-.209.216-.208h1.082q.216 0 .216.207v3.955q0 .685-.15 1.17-.148.48-.48.783-.33.302-.86.437-.53.134-1.282.133h-2.854q-.754.001-1.275-.133-.523-.134-.856-.437a1.8 1.8 0 0 1-.486-.782c-.105-.32-.155-.714-.155-1.171V6.903q.002-.207.227-.207zM97.443 6.696q.217.001.376.026a.7.7 0 0 1 .276.112 1 1 0 0 1 .216.218q.092.135.192.367l2.06 4.583q.04.087.138.085h.121q.097.002.138-.085l2.059-4.583a2.3 2.3 0 0 1 .193-.367.76.76 0 0 1 .486-.33q.157-.028.37-.027h1.06q.513 0 .696.224c.121.15.177.405.177.767v5.482q-.002.208-.227.208h-1.01q-.216 0-.216-.208V8.18q-.001-.096-.077-.096h-.089q-.1.002-.127.075l-1.998 4.28c-.078.17-.16.319-.243.436a1.6 1.6 0 0 1-.265.293.9.9 0 0 1-.326.165 1.7 1.7 0 0 1-.431.047h-.475q-.248 0-.43-.047a.8.8 0 0 1-.326-.165 1.3 1.3 0 0 1-.265-.293 2.5 2.5 0 0 1-.243-.437l-1.999-4.28c-.021-.052-.06-.074-.127-.074h-.088c-.055 0-.078.032-.078.096v4.987q0 .208-.215.208h-1.01c-.155 0-.227-.07-.227-.208V7.686q.002-.543.177-.767.18-.223.702-.223zM30.75 15.355q.142.002.233.01a.4.4 0 0 1 .165.049.6.6 0 0 1 .133.1q.068.066.144.171l2.175 2.752c.017.027.039.037.078.037h.055c.033 0 .044-.02.044-.058v-2.944c0-.085.044-.122.127-.122h.613c.089 0 .127.042.127.122v3.236q-.001.343-.127.463-.132.121-.397.122h-.503q-.133-.001-.226-.01a.45.45 0 0 1-.298-.144 2 2 0 0 1-.155-.176l-2.18-2.751a.1.1 0 0 0-.078-.038h-.055c-.034 0-.045.021-.045.06v2.943c0 .085-.044.122-.127.122h-.613q-.132-.002-.132-.122V15.94q.001-.344.127-.463.132-.121.397-.123zM39.419 15.355c.298 0 .546.027.756.08q.316.078.508.26a.96.96 0 0 1 .282.459q.089.279.088.687v.968q.002.406-.088.692-.092.288-.282.463a1.2 1.2 0 0 1-.508.255q-.316.08-.756.08h-1.81c-.299 0-.547-.027-.757-.08a1.2 1.2 0 0 1-.508-.255 1 1 0 0 1-.287-.463 2.3 2.3 0 0 1-.089-.692v-.968q-.001-.407.089-.687.089-.28.287-.458c.133-.117.298-.208.508-.26q.308-.08.756-.08zm-2.55 2.396q-.002.222.038.367a.5.5 0 0 0 .127.239q.09.09.237.122.15.039.376.037h1.739c.154 0 .276-.01.375-.037a.5.5 0 0 0 .237-.122.5.5 0 0 0 .127-.24q.04-.15.039-.366v-.847q.002-.223-.039-.367a.5.5 0 0 0-.127-.239.47.47 0 0 0-.237-.122 1.5 1.5 0 0 0-.376-.037h-1.738c-.155 0-.277.01-.376.037a.5.5 0 0 0-.237.122.5.5 0 0 0-.127.24 1.4 1.4 0 0 0-.039.366zM42.549 15.355q.057 0 .083.016c.016.01.033.033.05.06l1.716 3.033q.015.039.072.037h.028q.04.002.066-.037l1.689-3.034c.022-.047.066-.075.133-.075h.767c.044 0 .078.01.083.037.01.027.006.054-.017.09l-1.921 3.391c-.1.176-.193.287-.288.346a.6.6 0 0 1-.325.085h-.337a.7.7 0 0 1-.376-.085c-.099-.059-.198-.17-.298-.346l-1.937-3.39a.12.12 0 0 1-.017-.09q.014-.04.088-.038zM49.792 15.355a.75.75 0 0 1 .376.086q.15.086.298.34l1.938 3.39a.12.12 0 0 1 .016.09q-.016.04-.082.038h-.745q-.099-.002-.133-.075l-.414-.73h-2.75l-.403.73a.14.14 0 0 1-.133.075H47c-.05 0-.083-.01-.089-.037a.11.11 0 0 1 .017-.09l1.922-3.39c.099-.171.192-.283.287-.341a.6.6 0 0 1 .325-.086zm-1.131 2.491h2.015l-.933-1.65a.07.07 0 0 0-.066-.037h-.033q-.042-.001-.066.038zM11.953 1.613a.4.4 0 0 1 .188.047l9.91 5.515a.35.35 0 0 1 .187.308v11.028a.35.35 0 0 1-.188.308l-9.91 5.52a.398.398 0 0 1-.376 0l-9.903-5.513a.35.35 0 0 1-.188-.309V7.484c0-.128.072-.245.188-.309l9.904-5.514a.4.4 0 0 1 .188-.048m0-1.612c-.354 0-.707.09-1.022.266L1.021 5.78A1.96 1.96 0 0 0 0 7.484v11.028c0 .702.392 1.351 1.021 1.708l9.91 5.514a2.095 2.095 0 0 0 2.043 0l9.91-5.514c.635-.351 1.021-1 1.021-1.708V7.484c0-.703-.392-1.352-1.021-1.709L12.974.261A2.1 2.1 0 0 0 11.953 0"/><path d="M9.424 7.35H8.132c-.1 0-.182.059-.215.15l-4.169 11c-.027.075.028.15.11.15h1.293c.099 0 .182-.06.215-.15L9.528 7.494c.034-.07-.021-.144-.105-.144zM11.103 11.619c-.039-.096-.182-.096-.216 0l-.674 1.778a.25.25 0 0 0 0 .154l1.878 4.956a.23.23 0 0 0 .215.148h1.292c.083 0 .138-.074.11-.148zM11.688 7.35h-1.292c-.1 0-.182.059-.215.15l-4.163 11c-.027.075.028.15.11.15H7.42c.1 0 .182-.06.216-.15l4.162-11.006c.028-.07-.027-.144-.11-.144M12.234 8.622c-.038-.096-.182-.096-.215 0l-.673 1.778a.25.25 0 0 0 0 .155l3.009 7.946a.23.23 0 0 0 .215.149h1.292c.083 0 .138-.075.11-.149zM20.046 7.35h-1.292c-.1 0-.182.059-.215.15l-3.014 7.946a.25.25 0 0 0 0 .154l.673 1.778c.039.096.183.096.216 0L20.151 7.5a.11.11 0 0 0-.105-.15M15.066 14.381c.039.096.182.096.216 0L17.887 7.5c.028-.075-.027-.149-.11-.149h-1.292c-.1 0-.182.059-.215.15l-1.878 4.954a.25.25 0 0 0 0 .155z"/></g><defs><clipPath id="a"><path fill="#fff" d="M0 0h106v26H0z"/></clipPath></defs></svg>