<svg xmlns="http://www.w3.org/2000/svg" width="88" height="26" fill="none"><g fill="#fff" clip-path="url(#a)"><path d="M33.193 17.689h7.366c.06 0 .1.038.1.096v1.92c0 .057-.04.095-.1.095h-9.761c-.06 0-.1-.038-.1-.096V6.384c0-.058.04-.096.1-.096h9.761c.06 0 .1.038.1.096v1.92c0 .057-.04.095-.1.095h-7.366c-.06 0-.1.038-.1.096v3.301c0 .058.04.096.1.096h6.368c.06 0 .1.039.1.096v1.92c0 .057-.04.096-.1.096h-6.368c-.06 0-.1.038-.1.096v3.493c0 .057.04.096.1.096M45.857 17.612l2.415-7.39c.02-.076.1-.134.16-.134h2.256c.08 0 .12.058.1.134l-3.294 9.482c-.02.058-.06.096-.12.096H44.14c-.06 0-.1-.038-.12-.096l-3.313-9.482c-.02-.076.02-.134.1-.134h2.295c.06 0 .12.058.14.134l2.416 7.39c.04.096.16.096.199 0M66.356 19.8H64.16c-.06 0-.1-.038-.1-.096v-5.317c0-1.151-.439-2.38-1.817-2.38-1.357 0-1.796 1.037-1.796 2.38v5.317c0 .058-.04.096-.1.096h-2.196c-.06 0-.1-.038-.1-.096v-5.317c0-1.151-.438-2.38-1.816-2.38-1.357 0-1.796 1.037-1.796 2.38v5.317c0 .058-.04.096-.1.096h-2.196c-.06 0-.1-.038-.1-.096v-9.52c0-.057.04-.096.1-.096h1.896c.12 0 .16.039.2.115l.2.576c.04.077.12.096.18.039.418-.404 1.496-.922 2.415-.922 1.177 0 2.076.46 2.595 1.133.04.057.12.057.16 0 .558-.576 1.377-1.133 2.654-1.133 2.515 0 4.013 1.382 4.013 4.376v5.432c0 .058-.04.096-.1.096M78.032 14.944c0 2.994-1.856 5.048-4.97 5.048s-4.95-2.054-4.95-5.048c0-3.013 1.836-5.048 4.95-5.048s4.97 2.054 4.97 5.048m-2.395 0c0-1.804-.879-2.937-2.576-2.937-1.676 0-2.554 1.133-2.554 2.937s.878 2.937 2.554 2.937c1.697 0 2.576-1.133 2.576-2.937M88.184 16.787c0 2.053-1.716 3.205-4.431 3.205-2.974 0-4.551-1.65-4.551-3.378 0-.058.04-.096.1-.096h2.295c.06 0 .1.038.1.096 0 .614.619 1.267 2.056 1.267.838 0 2.036-.154 2.036-1.094 0-.845-1.218-.845-2.036-.922-2.056-.191-4.372-.556-4.372-2.975 0-1.65 1.677-2.994 4.172-2.994 2.535 0 4.372 1.152 4.372 3.378 0 .058-.02.096-.08.096h-2.236c-.06 0-.1-.038-.1-.096 0-.537-.499-1.266-1.956-1.266-1.197 0-1.776.383-1.776.882 0 .615.858.73 1.776.845 1.757.211 4.631.326 4.631 3.052M10.076 5.52c-4.39 1.71-4.791 6.11-6.06 8.164-1.27 2.053-4.197 3.21-3.795 4.269s3.328-.082 5.643.603 5.465 3.65 9.854 1.939a7.9 7.9 0 0 0 2.82-1.892 8 8 0 0 0 1.777-2.915.37.37 0 0 0-.184-.48.356.356 0 0 0-.475.187 6.3 6.3 0 0 1-1.954 2.328 6.142 6.142 0 0 1-5.802.776 6.2 6.2 0 0 1-2.484-1.736 6.2 6.2 0 0 1-.964-1.483c-.08-.146-.145-.31-.21-.456-.063-.146-.112-.326-.16-.489a73 73 0 0 1 4.582-1.955c1.736-.668 3.23-1.206 4.597-1.63a52 52 0 0 1 2.54-.733l.177-.032a.223.223 0 0 1 .273.146 1 1 0 0 1 .064.196q.237.651.354 1.336a.28.28 0 0 0 .151.203.27.27 0 0 0 .251-.007 47 47 0 0 0 1.72-.994c1.93-1.206 2.99-2.233 2.765-2.803s-1.672-.62-3.89-.212c-.707.13-1.495.31-2.331.538l-.434.114a54 54 0 0 0-2.235.652 80 80 0 0 0-4.613 1.63c-1.608.618-2.91 1.189-4.228 1.792a6.4 6.4 0 0 1 .708-2.971 6.3 6.3 0 0 1 1.998-2.29 6.176 6.176 0 0 1 5.814-.687.38.38 0 0 0 .486-.241.36.36 0 0 0-.18-.427 7.717 7.717 0 0 0-6.575-.44"/></g><defs><clipPath id="a"><path fill="#fff" d="M0 0h88v26H0z"/></clipPath></defs></svg>