<svg xmlns="http://www.w3.org/2000/svg" viewBox="0 0 145 41" fill="none"><path d="M17.442 0 0 10.247v20.486l17.442 10.239 17.425-10.24V10.248L17.442 0zm12.265 27.696-12.265 7.202-12.27-7.202v-14.42l12.27-7.203 12.265 7.203v14.42z" fill="#fff"/><path d="m17.441 40.972 17.426-10.24V10.248L17.441 0v6.077l12.266 7.203V27.7l-12.266 7.198v6.074zM17.426 0 0 10.239v20.486l17.426 10.247v-6.078L5.16 27.692v-14.42l12.266-7.199V0z" fill="#fff"/><path d="m25.573 25.274-8.14 4.78-8.148-4.78v-9.569l8.148-4.788 8.14 4.788-3.387 1.993-4.753-2.796-4.753 2.796v5.575l4.753 2.796 4.753-2.796 3.387 2zM47.773 22.037v-.056a8.3 8.3 0 0 1 .592-3.17 8.175 8.175 0 0 1 1.753-2.687 8.015 8.015 0 0 1 2.641-1.783 7.885 7.885 0 0 1 3.115-.603 7.775 7.775 0 0 1 6.202 2.747l-2.234 2.427c-1.086-1.141-2.235-1.977-3.996-1.977-2.586 0-4.496 2.274-4.496 5.026v.06c0 2.807 1.91 5.049 4.638 5.049a5.419 5.419 0 0 0 4.05-1.944l2.148 2.157a8.13 8.13 0 0 1-4.101 2.675 7.985 7.985 0 0 1-4.864-.189 8.146 8.146 0 0 1-3.889-2.984 8.348 8.348 0 0 1-1.516-4.708l-.04-.04h-.003zM65.376 14.059h3.584v3.559c.971-2.362 2.76-3.977 5.496-3.86v3.832h-.202c-3.119 0-5.29 2.06-5.29 6.242v6.01H65.38V14.058h-.004zM76.162 22.036v-.056a8.485 8.485 0 0 1 2.483-5.809 8.197 8.197 0 0 1 5.76-2.402 8.19 8.19 0 0 1 5.775 2.362 8.494 8.494 0 0 1 2.527 5.788v.06c0 1.101-.217 2.19-.636 3.206a8.204 8.204 0 0 1-1.812 2.7 8.103 8.103 0 0 1-2.7 1.771 7.983 7.983 0 0 1-3.166.562 7.92 7.92 0 0 1-3.139-.562 8.024 8.024 0 0 1-2.676-1.763 8.186 8.186 0 0 1-1.793-2.684 8.286 8.286 0 0 1-.623-3.181v.008zm12.984 0v-.056a4.93 4.93 0 0 0-1.315-3.575 4.76 4.76 0 0 0-3.438-1.515c-2.854 0-4.678 2.274-4.678 5.026v.06c-.024.65.079 1.297.304 1.904a4.848 4.848 0 0 0 1.01 1.635 4.746 4.746 0 0 0 3.411 1.506c2.89 0 4.71-2.274 4.71-4.993l-.004.008zM96.287 14.06h3.569v2.425a5.668 5.668 0 0 1 2.068-2.024 5.542 5.542 0 0 1 2.784-.723c3.497 0 5.523 2.39 5.523 6.037V29.85h-3.557v-8.977c0-2.45-1.201-3.852-3.321-3.852s-3.497 1.47-3.497 3.916v8.93H96.27l.012-15.803.004-.004zM113.691 22.036v-.056a8.483 8.483 0 0 1 2.483-5.809 8.195 8.195 0 0 1 5.76-2.402 8.19 8.19 0 0 1 5.775 2.362 8.47 8.47 0 0 1 2.523 5.788v.06c0 1.101-.217 2.19-.636 3.206a8.193 8.193 0 0 1-1.812 2.7 8.091 8.091 0 0 1-2.7 1.771 7.982 7.982 0 0 1-3.166.562 7.922 7.922 0 0 1-3.139-.562 8.01 8.01 0 0 1-2.676-1.763 8.191 8.191 0 0 1-1.793-2.684 8.295 8.295 0 0 1-.623-3.181l.004.008zm12.984 0v-.056a4.93 4.93 0 0 0-1.315-3.575 4.76 4.76 0 0 0-3.438-1.515c-2.855 0-4.678 2.274-4.678 5.026v.06c-.024.65.079 1.297.304 1.904a4.85 4.85 0 0 0 1.01 1.635c.442.47.967.847 1.556 1.104a4.617 4.617 0 0 0 1.855.402c2.87 0 4.71-2.274 4.71-4.993l-.004.008zM132.581 27.78l1.587-2.45a8.69 8.69 0 0 0 5.081 1.945c1.532 0 2.408-.687 2.408-1.703v-.06c0-1.222-1.638-1.644-3.462-2.214-2.294-.687-4.852-1.615-4.852-4.6v-.06c0-3.02 2.444-4.84 5.527-4.84 2.029.04 4.003.659 5.697 1.792l-1.41 2.566a8.879 8.879 0 0 0-4.374-1.49c-1.35 0-2.175.687-2.175 1.55v.06c0 1.17 1.674 1.644 3.498 2.238 2.262.723 4.82 1.764 4.82 4.608v.056c0 3.322-2.531 4.965-5.764 4.965a10.571 10.571 0 0 1-6.581-2.362z" fill="#fff"/></svg>