<svg xmlns="http://www.w3.org/2000/svg" fill="none" viewBox="0 0 106 24"><path d="m42.905 8.202-.202 2.13c-.865-1.653-2.856-2.55-4.99-2.55-4.01 0-6.694 2.83-6.694 7.172 0 4.314 2.424 7.452 6.665 7.452 2.308 0 4.01-1.093 4.904-2.521l.23 2.157h3.29V8.202h-3.203Zm-.375 6.92c0 2.493-1.586 4.202-4.038 4.202-2.453 0-3.953-1.737-3.953-4.202s1.53-4.23 3.981-4.23c2.452 0 4.01 1.737 4.01 4.23Zm9.566 6.92v-3.726l2.077-2.101 3.722 5.827h4.039l-5.308-8.349 5.423-5.49h-4.414l-5.539 5.799V1.605h-3.49v20.436h3.49Z" fill="#fff"/><path d="m73.754 8.202-.202 2.13c-.866-1.653-2.857-2.55-4.991-2.55-4.01 0-6.693 2.83-6.693 7.172 0 4.314 2.423 7.452 6.664 7.452 2.308 0 4.01-1.093 4.904-2.521l.231 2.157h3.289V8.202h-3.203Zm-.375 6.92c0 2.493-1.587 4.202-4.04 4.202-2.452 0-3.952-1.737-3.952-4.202s1.53-4.23 3.981-4.23c2.453 0 4.01 1.737 4.01 4.23Zm5.358 2.718c0 2.717 2.25 4.566 5.799 4.566 3.52 0 5.971-1.737 5.971-4.538 0-2.13-1.211-3.194-3.606-3.726l-2.567-.589c-1.212-.28-1.847-.784-1.847-1.569 0-1.036.808-1.653 2.193-1.653 1.356 0 2.164.757 2.192 1.934h3.347c-.029-2.69-2.193-4.483-5.395-4.483-3.289 0-5.654 1.625-5.654 4.342 0 2.214 1.24 3.39 3.808 3.95l2.567.589c1.27.28 1.645.784 1.645 1.485 0 1.008-.895 1.653-2.539 1.653-1.616 0-2.539-.757-2.567-1.961h-3.347Zm17.251 4.202v-7.564c0-2.073 1.298-3.586 3.52-3.586 1.789 0 2.971 1.12 2.971 3.446v7.704h3.52v-8.517c0-3.586-1.847-5.743-5.367-5.743-2.047 0-3.721.869-4.615 2.213V1.606h-3.549v20.436h3.52ZM16.284 15.41l4.02 6.901h-8.121l-4.063-6.9h8.164Z" fill="#fff"/><path d="m20.302 22.313 4.057-6.901-8.12-13.806H8.12l12.183 20.707Z" fill="#fff"/><path d="M4.06 8.506h8.12L4.062 22.31 0 15.411l4.06-6.905Z" fill="#fff"/></svg>