<svg xmlns="http://www.w3.org/2000/svg" xmlns:xlink="http://www.w3.org/1999/xlink" xml:space="preserve" viewBox="0 0 132 34"><defs><path id="a" d="M.1 0h131.2v34H.1z"/></defs><clipPath id="b"><use xlink:href="#a" style="overflow:visible"/></clipPath><g style="clip-path:url(#b)"><path d="M56.7 13.6h5.8c.5 0 .9-.4.9-1-.1-.4-.4-.8-.9-.8h-7.2c-.5 0-.9.4-.9.9v8.6c0 .5.4.9.9.9h7.2c.5 0 .9-.4.9-1-.1-.4-.4-.8-.9-.8h-5.7c-.3 0-.6-.3-.6-.6v-1.5c0-.3.3-.6.6-.6H61c.5 0 .9-.4.9-1-.1-.4-.4-.8-.9-.8h-4.3c-.3 0-.6-.3-.6-.6v-1.5s.2-.2.6-.2m-10 0c1 0 1.8.3 2.4 1 .2.2.4.2.6.2.5 0 .9-.4.9-.9 0-.2-.1-.5-.4-.7-1-1-2.2-1.4-3.6-1.4s-2.6.5-3.7 1.5c-1 1-1.5 2.2-1.5 3.7 0 1.4.5 2.6 1.5 3.7 1 1 2.2 1.5 3.7 1.5 1.4 0 2.6-.5 3.7-1.5.3-.3.3-.9 0-1.2s-.9-.3-1.2 0c-.7.7-1.5 1-2.4 1s-1.8-.3-2.4-1c-.7-.7-1-1.5-1-2.4s.3-1.8 1-2.4c.7-.8 1.5-1.1 2.4-1.1m28.2 6.9h-5.7c-.3 0-.6-.3-.6-.6v-7.2c0-.4-.3-.8-.8-.9s-1 .3-1 .9v8.6c0 .5.4.9.9.9h7.2c.5 0 .9-.4.9-1-.1-.4-.5-.7-.9-.7m36.3-8.7h-8.6c-.5 0-.9.4-.9 1 .1.4.4.8.9.8h2.9c.3 0 .6.3.6.6v7.2c0 .5.4.9 1 .9.4-.1.8-.4.8-.9v-7.2c0-.3.3-.6.6-.6h2.9c.5 0 .9-.4.9-1-.3-.4-.7-.8-1.1-.8m4.6 0c-.5 0-.9.4-.9.9v8.6c0 .5.4.9.9.9s.9-.4.9-.9v-8.6c-.1-.5-.5-.9-.9-.9m-17.3 5.1c-.8-.5-1.9-.8-3.2-.8-1.8 0-2.7-.4-2.7-1.3s.9-1.3 2.7-1.3c1 0 1.9.2 2.8.5.5.2.9 0 1.1-.5.2-.4-.1-.9-.5-1.1-1-.4-2.1-.6-3.4-.6s-2.4.3-3.2.8-1.2 1.3-1.2 2.2c0 1 .4 1.8 1.2 2.3s1.9.8 3.2.8c1.8 0 2.7.4 2.7 1.3s-.9 1.3-2.7 1.3h-.4c-.9 0-1.8-.2-2.8-.5-.4-.2-.9 0-1.1.5-.2.4.1 1 .5 1.1 1 .4 2.1.6 3.4.6h.4c1.3 0 2.4-.3 3.2-.8s1.2-1.3 1.2-2.2c0-1-.4-1.8-1.2-2.3m-17.7-3.3h5.8c.5 0 .9-.4.9-1-.1-.4-.4-.8-.9-.8h-7.2c-.5 0-.9.4-.9.9v8.6c0 .5.4.9.9.9h7.2c.5 0 .9-.4.9-1-.1-.4-.4-.8-.9-.8h-5.7c-.3 0-.6-.3-.6-.6v-1.5c0-.3.3-.6.6-.6h4.3c.5 0 .9-.4.9-1-.1-.4-.4-.8-.9-.8h-4.3c-.3 0-.6-.3-.6-.6v-1.5s.2-.2.5-.2m-48.7 3.6c0 .1-.1.1-.2 0 0 0 0-.1-.1-.1v-.2l.1-.1c.1-.1.2-.1.2 0zm-.7-2c-.1.2-.4.2-.5 0 0 0 0-.1-.1-.1-.5-.7-1-1.4-1.6-2.1-.1-.2 0-.4.2-.4 1.4 0 2.1.3 2.3.8.2.3.2.9-.3 1.8m-.3 7.2c-.1.2-.2.4-.2.6v.1c-.5 1-1.4 1.7-2.5 2.3-.3.1-.5-.1-.5-.4.4-1.3.7-2.8.8-4.3 0-.3.2-.5.4-.7.5-.4.9-.8 1.3-1.2.2-.2.5-.1.6.2.4 1.1.5 2.3.1 3.4M28 27.2l-.4.4-.6.6c-.1.1-.3 0-.3-.2 0 0 0-.1.1-.1l.3-.6.1-.1c.2-.1.4-.1.6-.2s.3.1.2.2M25.7 26c-.5.1-.9.1-1.4.1q-1.8 0-3.9-.3c-.2 0-.2-.3 0-.3.3-.1.6-.3.9-.5 2-1.1 4-2.3 5.6-3.5.1-.1.3 0 .3.2-.2 1.4-.6 2.7-1 3.9-.1.2-.2.4-.5.4m-.4 1.9c-1.1 2.2-2.4 3.4-3.8 3.3-1.4 0-2.8-1.5-3.9-4.1-.1-.2 0-.3.2-.4h.2c2 .6 3.9.8 5.7.8H25c.2 0 .4.2.3.4M18.8 32c-.7.1-1.3.1-2 .1-3 0-5.8-.8-8.3-2.4-.2-.1-.1-.4.1-.4h.1c.6 0 1.3-.1 2-.3 1.6-.3 3.3-.8 5.2-1.5.2-.1.3 0 .4.2.7 1.7 1.6 3 2.6 3.9.2.1.1.3-.1.4M9.9 21.2c1.4-1.1 2.9-2.2 4.7-3.2 0 2.2.3 4.4.7 6.3-.6-.3-1.3-.6-1.9-.9-1.3-.7-2.4-1.4-3.5-2.2m-4.2 6c-.3-.6.1-2 2.2-4.2.2-.2.2-.6 0-.8-.1-.1-.2-.1-.3-.2-.2-.2-.5-.2-.7 0l-.1.1c-1.1 1.1-1.8 2.1-2.2 3-.1.3-.5.3-.6 0-1.6-2.5-2.5-5.4-2.5-8.4 0-1.1.1-2.2.3-3.2 0-.2.3-.2.3 0 .3 1.1.8 2.1 1.6 3.2 1 1.5 2.2 2.9 3.7 4.2.5.4 1.1.9 1.6 1.3 1.1.8 2.4 1.6 3.7 2.3.6.3 1.2.6 1.7.9.3.1.7.2 1 0 .3-.1.6-.2.8-.3.3-.1.5-.5.4-.8v-.1c-.5-1.9-.7-4.1-.7-6.4v-2.2c.1-2.8.6-5.4 1.4-7.6.1-.2 0-.4-.2-.5s-.4-.1-.6-.2-.4 0-.5.2c-.8 2.4-1.3 5.2-1.4 8.2 0 .4-.2.7-.5.9-1.8 1-3.4 2.2-4.8 3.3-.3.2-.7.2-1 0-1.4-1.2-2.6-2.5-3.5-3.9-1.8-2.7-2.2-5.2-1.2-7.2.2-.2.3-.4.4-.6 1.1-1.5 3.3-2.4 6.1-2.5h.5c1.7 0 3.6.3 5.5.8h.2c.4.1.9.3 1.3.4.1 0 .2.1.3.1h.2c.9.4 1.9.8 2.8 1.3 1.8.9 3.4 2 4.8 3.2-2.7.6-5.8 1.8-9 3.4-.1.1-.2.2-.2.4v.9c0 .2.2.3.4.2 3.1-1.6 6.2-2.9 8.9-3.5.5-.1.8-.6.8-1.1 0-.4-.1-.7-.2-1-.1-.4-.3-.8-.7-1.1-1.2-1-2.6-1.8-4.1-2.6-1-.5-2-1-3-1.4-.2-.1-.3-.3-.2-.5 1-1.9 2.3-2.9 3.5-2.9 1.4 0 2.8 1.5 3.9 4.1.5 1.3.9 2.8 1.2 4.4l.3 2.1c.1 1.2.2 2.5.1 3.8 0 .8-.1 1.6-.1 2.4-1.9 1.5-4.3 3.1-6.8 4.4-.8.5-1.7.9-2.5 1.3-.1 0-.1.1-.2.1l-2.1.9h-.1s-.1 0-.1.1c-.1 0-.2.1-.3.1h-.1c-.1.1-.3.1-.4.1h-.1c-1.5.5-2.8.9-4.1 1.2-3 .9-4.5.5-4.8-.1m2.2-23c2.6-1.8 5.7-2.8 8.9-2.8.9 0 1.7.1 2.5.2.2 0 .3.3.1.5-.8.6-1.5 1.6-2.2 2.8-.2.3-.5.4-.8.3-2.2-.6-4.3-.9-6.3-.8-.7 0-1.4 0-2.1.1-.2.1-.3-.2-.1-.3M29 15.4c0-.2.2-.3.3-.1s.2.4.4.5c.2.2.3.5.4.7.1.1.1.3 0 .5l-.6.6-.2.2c-.1.1-.3 0-.3-.1v-2.3m-1.6-9.8.3.3c1.5 1.5 2.6 3.2 3.4 5.1.1.2-.1.4-.3.4-.4-.1-.9-.1-1.5-.1-.4 0-.7-.3-.8-.6-.3-1.7-.7-3.2-1.3-4.6 0-.1-.1-.2-.1-.2-.1-.3.1-.4.3-.3m5.8 7.7c-.7-3.1-2.2-6-4.5-8.4C25.5 1.7 21.3 0 16.8 0S8.1 1.7 5 4.9c-.8.8-1.5 1.6-2 2.5-.3.2-.4.5-.6.7C.9 10.7 0 13.6 0 16.7c0 4.5 1.7 8.7 4.9 11.8 3.2 3.2 7.4 4.9 11.8 4.9 4.5 0 8.7-1.7 11.8-4.9 1.5-1.5 2.7-3.2 3.5-5.1l.3-.6c.8-1.9 1.1-4 1.1-6.1.1-1.1 0-2.3-.2-3.4m93.7 5h-3.2c-.3 0-.5-.3-.3-.6L125 15c.1-.3.5-.3.7 0l1.6 2.7c.1.3-.1.6-.4.6m4.2 2.6-5-8.7c-.4-.6-1.1-.6-1.5 0l-5 8.7c-.1.1-.1.2-.1.3 0 .5.3.9.8.9.3 0 .6-.2.8-.5l.8-1.3c.1-.2.3-.3.5-.3h5.8c.2 0 .4.1.5.3l.8 1.3c.2.3.5.5.8.5.5 0 .9-.4.9-.9 0 0-.1-.1-.1-.3" style="fill-rule:evenodd;clip-rule:evenodd;fill:#fff"/></g></svg>