<svg xmlns="http://www.w3.org/2000/svg" width="68" height="18" fill="none"><g clip-path="url(#a)"><path fill="#fff" fill-rule="evenodd" d="M17.986 8.922c0 4.927-4.033 8.921-9.009 8.921-4.72 0-8.592-3.595-8.977-8.171h11.908v-1.5H0C.385 3.595 4.257 0 8.977 0c4.976 0 9.01 3.994 9.01 8.922m33.4 7.305c3.121 0 5.168-1.67 5.168-4.183 0-2.332-1.54-3.438-3.871-3.82l-2.068-.342c-1.58-.262-2.635-.945-2.635-2.454 0-1.528 1.176-2.694 3.405-2.694 2.17 0 3.284 1.086 3.406 2.634h1.56c-.12-2.051-1.702-3.881-4.945-3.881-3.203 0-4.966 1.79-4.966 4.002 0 2.352 1.6 3.438 3.79 3.8l2.088.322c1.743.302 2.716 1.005 2.716 2.494 0 1.75-1.439 2.875-3.628 2.875-2.27 0-3.69-1.086-3.811-2.936h-1.54c.121 2.413 1.986 4.183 5.33 4.183m-23.013-.282h-5.676V1.79h5.473c2.412 0 4.094 1.407 4.094 3.66 0 1.628-.932 2.714-2.432 3.076v.06c1.784.342 2.878 1.549 2.878 3.44 0 2.432-1.803 3.92-4.337 3.92m-.406-7.943c1.723 0 2.777-.925 2.777-2.373v-.2c0-1.448-1.054-2.353-2.777-2.353h-3.75v4.926zm.183 6.656c1.885 0 3.04-1.025 3.04-2.594v-.2c0-1.63-1.175-2.615-3.06-2.615h-3.913v5.41zm16.837 1.287h-1.622l-1.216-3.84h-5.675l-1.216 3.84h-1.541L38.399 1.79h1.845zM39.393 3.337h-.122l-2.392 7.5h4.885zm19.445 12.609V1.788H68v1.307h-7.642v4.866h7.034V9.25h-7.034v5.39H68v1.306z" clip-rule="evenodd"/></g><defs><clipPath id="a"><path fill="#fff" d="M0 0h68v18H0z"/></clipPath></defs></svg>