<svg xmlns="http://www.w3.org/2000/svg" width="96" height="22" fill="none"><path fill="#fff" d="m96 6.586-3.789-2.69H78.195l-.912 2.69h7.394l-3.97 11.612h3.058l3.957-11.612zM43.693 3.896l-3.803 2.69h14.34l.926-2.69zM39.89 6.586l-3.97 11.612h3.058l3.382-9.894z"/><path fill="#fff" d="M55.156 3.896 51.016 16l1.446-.107-5.935-4.274H42.12l8.797 6.578h2.4l4.307-12.584zM17.946 10.914l3.606-1.691 1.234-3.61-2.47-1.717h-16.5L0 6.586h19.39l-1.023 3.036h-7.774l-.757 2.197h7.773l-2.175 6.379 3.634-1.718 1.305-3.822-2.441-1.704z"/><path fill="#fff" d="M5.486 15.455 7.73 8.823 5.233 7.052 1.501 18.198h13.933l.926-2.743zM27.473 5.374l-2.47-1.718-3.999 11.679-.35 1.025 2.623 1.838h11.085l.94-2.743H24.02zM61.049 9.689l.49-1.399-2.455-1.704-1.403 4.075 2.442 1.691v.013h10.944l-1.052 3.09H56.082l-.926 2.743h13.919l3.647-1.718 1.797-5.247-2.26-1.571z"/><path fill="#fff" d="m62.873 3.896-3.789 2.69h16.683l.926-2.69z"/></svg>